<?xml version="1.0" encoding="utf-8" standalone="no"?>
<!DOCTYPE svg PUBLIC "-//W3C//DTD SVG 1.1//EN"
  "http://www.w3.org/Graphics/SVG/1.1/DTD/svg11.dtd">
<svg xmlns:xlink="http://www.w3.org/1999/xlink" width="551.1pt" height="259.900837pt" viewBox="0 0 551.1 259.900837" xmlns="http://www.w3.org/2000/svg" version="1.1">
 <metadata>
  <rdf:RDF xmlns:dc="http://purl.org/dc/elements/1.1/" xmlns:cc="http://creativecommons.org/ns#" xmlns:rdf="http://www.w3.org/1999/02/22-rdf-syntax-ns#">
   <cc:Work>
    <dc:type rdf:resource="http://purl.org/dc/dcmitype/StillImage"/>
    <dc:date>2026-09-30T14:27:43.350778</dc:date>
    <dc:format>image/svg+xml</dc:format>
    <dc:creator>
     <cc:Agent>
      <dc:title>Matplotlib v3.5.1, https://matplotlib.org/</dc:title>
     </cc:Agent>
    </dc:creator>
   </cc:Work>
  </rdf:RDF>
 </metadata>
 <defs>
  <style type="text/css">*{stroke-linejoin: round; stroke-linecap: butt}</style>
 </defs>
 <g id="figure_1">
  <g id="patch_1">
   <path d="M 0 259.900837 
L 551.1 259.900837 
L 551.1 0 
L 0 0 
z
" style="fill: #ffffff"/>
  </g>
  <g id="axes_1">
   <g id="patch_2">
    <path d="M 39.32774 167.417957 
L 179.38726 167.417957 
L 179.38726 27.358437 
L 39.32774 27.358437 
z
" style="fill: #ffffff"/>
   </g>
   <g id="matplotlib.axis_1"/>
   <g id="matplotlib.axis_2"/>
   <g id="patch_3">
    <path d="M 65.5889 114.895637 
L 44.741304 102.859272 
L 44.132702 103.981065 
L 43.584407 105.133536 
L 43.097962 106.313445 
L 42.674732 107.517477 
L 42.315909 108.742247 
L 42.0225 109.984313 
L 41.79533 111.240183 
L 41.635038 112.506328 
L 41.542073 113.779188 
L 41.516699 115.055186 
L 41.558985 116.330736 
L 41.668813 117.602253 
L 41.845874 118.866161 
L 42.089671 120.11891 
L 42.399518 121.356977 
L 42.774545 122.576883 
L 43.213697 123.775199 
L 43.71574 124.948557 
L 44.279263 126.093659 
L 44.902681 127.207286 
L 45.584244 128.286308 
L 46.322034 129.327692 
L 47.113978 130.328512 
L 47.957851 131.285953 
L 48.85128 132.197326 
L 49.791755 133.060068 
L 50.776631 133.871754 
L 51.80314 134.630104 
L 52.868398 135.332985 
L 53.96941 135.978422 
L 55.103081 136.5646 
L 56.266226 137.089873 
L 57.455573 137.552763 
L 58.667782 137.95197 
L 59.899444 138.286371 
L 61.147098 138.555027 
L 62.407236 138.757183 
L 63.676318 138.89227 
L 64.950775 138.959908 
L 66.227025 138.959908 
L 67.501482 138.89227 
L 68.770564 138.757183 
L 70.030702 138.555027 
L 71.278356 138.286371 
L 72.510018 137.95197 
L 73.722227 137.552763 
L 74.911574 137.089873 
L 76.074719 136.5646 
L 77.20839 135.978422 
L 78.309402 135.332985 
L 79.37466 134.630104 
L 80.401169 133.871754 
L 81.386045 133.060068 
L 82.32652 132.197326 
L 83.219949 131.285953 
L 84.063822 130.328512 
L 84.855766 129.327692 
L 85.593556 128.286308 
L 86.275119 127.207286 
L 86.898537 126.093659 
L 87.46206 124.948557 
L 87.964103 123.775199 
L 88.403255 122.576883 
L 88.778282 121.356977 
L 89.088129 120.11891 
L 89.331926 118.866161 
L 89.508987 117.602253 
L 89.618815 116.330736 
L 89.661101 115.055186 
L 89.635727 113.779188 
L 89.542762 112.506328 
L 89.38247 111.240183 
L 89.1553 109.984313 
L 88.861891 108.742247 
L 88.503068 107.517477 
L 88.079838 106.313445 
L 87.593393 105.133536 
L 87.045098 103.981065 
L 86.436496 102.859272 
z
" clip-path="url(#pd11c9d3a33)" style="fill: #2a78d6; opacity: 0.18"/>
   </g>
   <g id="patch_4">
    <path d="M 65.5889 114.895637 
L 37.16036 131.308862 
L 37.605436 132.056685 
L 38.070178 132.792446 
L 38.554261 133.51563 
L 39.057344 134.225727 
L 39.579074 134.922239 
L 40.119083 135.604676 
L 40.676993 136.272558 
L 41.252412 136.925417 
L 41.844934 137.562792 
L 42.454144 138.184237 
L 43.079613 138.789315 
L 43.720902 139.3776 
L 44.37756 139.948679 
L 45.049125 140.50215 
L 45.735126 141.037624 
L 46.43508 141.554726 
L 47.148496 142.053092 
L 47.874872 142.532371 
L 48.613698 142.992227 
L 49.364454 143.432336 
L 50.126612 143.852389 
L 50.899638 144.252092 
L 51.682987 144.631162 
L 52.47611 144.989334 
L 53.278448 145.326355 
L 54.089438 145.64199 
L 54.908511 145.936016 
L 55.735089 146.208227 
L 56.568593 146.45843 
L 57.408436 146.686451 
L 58.254029 146.892129 
L 59.104777 147.07532 
L 59.960082 147.235895 
L 60.819342 147.37374 
L 61.681955 147.48876 
L 62.547314 147.580872 
L 63.41481 147.650014 
L 64.283835 147.696135 
L 65.153776 147.719204 
L 66.024024 147.719204 
L 66.893965 147.696135 
L 67.76299 147.650014 
L 68.630486 147.580872 
L 69.495845 147.48876 
L 70.358458 147.37374 
L 71.217718 147.235895 
L 72.073023 147.07532 
L 72.923771 146.892129 
L 73.769364 146.686451 
L 74.609207 146.45843 
L 75.442711 146.208227 
L 76.269289 145.936016 
L 77.088362 145.64199 
L 77.899352 145.326355 
L 78.70169 144.989334 
L 79.494813 144.631162 
L 80.278162 144.252092 
L 81.051188 143.852389 
L 81.813346 143.432336 
L 82.564102 142.992227 
L 83.302928 142.532371 
L 84.029304 142.053092 
L 84.74272 141.554726 
L 85.442674 141.037624 
L 86.128675 140.50215 
L 86.80024 139.948679 
L 87.456898 139.3776 
L 88.098187 138.789315 
L 88.723656 138.184237 
L 89.332866 137.562792 
L 89.925388 136.925417 
L 90.500807 136.272558 
L 91.058717 135.604676 
L 91.598726 134.922239 
L 92.120456 134.225727 
L 92.623539 133.51563 
L 93.107622 132.792446 
L 93.572364 132.056685 
L 94.01744 131.308862 
z
" clip-path="url(#pd11c9d3a33)" style="fill: #eb6834; opacity: 0.18"/>
   </g>
   <g id="line2d_1">
    <path d="M 43.7046 163.041097 
L 175.0104 163.041097 
L 175.0104 31.735297 
L 43.7046 31.735297 
L 43.7046 163.041097 
" clip-path="url(#pd11c9d3a33)" style="fill: none; stroke: #52514e; stroke-width: 1.5; stroke-linecap: round"/>
   </g>
   <g id="line2d_2">
    <path d="M 87.4732 119.272497 
L 131.2418 119.272497 
L 131.2418 75.503897 
L 87.4732 75.503897 
L 87.4732 119.272497 
" clip-path="url(#pd11c9d3a33)" style="fill: none; stroke: #52514e; stroke-width: 1.5; stroke-linecap: round"/>
   </g>
   <g id="line2d_3">
    <path d="M 65.5889 114.895637 
L 44.741304 102.859272 
L 44.132702 103.981065 
L 43.584407 105.133536 
L 43.097962 106.313445 
L 42.674732 107.517477 
L 42.315909 108.742247 
L 42.0225 109.984313 
L 41.79533 111.240183 
L 41.635038 112.506328 
L 41.542073 113.779188 
L 41.516699 115.055186 
L 41.558985 116.330736 
L 41.668813 117.602253 
L 41.845874 118.866161 
L 42.089671 120.11891 
L 42.399518 121.356977 
L 42.774545 122.576883 
L 43.213697 123.775199 
L 43.71574 124.948557 
L 44.279263 126.093659 
L 44.902681 127.207286 
L 45.584244 128.286308 
L 46.322034 129.327692 
L 47.113978 130.328512 
L 47.957851 131.285953 
L 48.85128 132.197326 
L 49.791755 133.060068 
L 50.776631 133.871754 
L 51.80314 134.630104 
L 52.868398 135.332985 
L 53.96941 135.978422 
L 55.103081 136.5646 
L 56.266226 137.089873 
L 57.455573 137.552763 
L 58.667782 137.95197 
L 59.899444 138.286371 
L 61.147098 138.555027 
L 62.407236 138.757183 
L 63.676318 138.89227 
L 64.950775 138.959908 
L 66.227025 138.959908 
L 67.501482 138.89227 
L 68.770564 138.757183 
L 70.030702 138.555027 
L 71.278356 138.286371 
L 72.510018 137.95197 
L 73.722227 137.552763 
L 74.911574 137.089873 
L 76.074719 136.5646 
L 77.20839 135.978422 
L 78.309402 135.332985 
L 79.37466 134.630104 
L 80.401169 133.871754 
L 81.386045 133.060068 
L 82.32652 132.197326 
L 83.219949 131.285953 
L 84.063822 130.328512 
L 84.855766 129.327692 
L 85.593556 128.286308 
L 86.275119 127.207286 
L 86.898537 126.093659 
L 87.46206 124.948557 
L 87.964103 123.775199 
L 88.403255 122.576883 
L 88.778282 121.356977 
L 89.088129 120.11891 
L 89.331926 118.866161 
L 89.508987 117.602253 
L 89.618815 116.330736 
L 89.661101 115.055186 
L 89.635727 113.779188 
L 89.542762 112.506328 
L 89.38247 111.240183 
L 89.1553 109.984313 
L 88.861891 108.742247 
L 88.503068 107.517477 
L 88.079838 106.313445 
L 87.593393 105.133536 
L 87.045098 103.981065 
L 86.436496 102.859272 
L 65.5889 114.895637 
" clip-path="url(#pd11c9d3a33)" style="fill: none; stroke: #2a78d6; stroke-linecap: round"/>
   </g>
   <g id="line2d_4">
    <path d="M 65.5889 114.895637 
L 37.16036 131.308862 
L 37.605436 132.056685 
L 38.070178 132.792446 
L 38.554261 133.51563 
L 39.057344 134.225727 
L 39.579074 134.922239 
L 40.119083 135.604676 
L 40.676993 136.272558 
L 41.252412 136.925417 
L 41.844934 137.562792 
L 42.454144 138.184237 
L 43.079613 138.789315 
L 43.720902 139.3776 
L 44.37756 139.948679 
L 45.049125 140.50215 
L 45.735126 141.037624 
L 46.43508 141.554726 
L 47.148496 142.053092 
L 47.874872 142.532371 
L 48.613698 142.992227 
L 49.364454 143.432336 
L 50.126612 143.852389 
L 50.899638 144.252092 
L 51.682987 144.631162 
L 52.47611 144.989334 
L 53.278448 145.326355 
L 54.089438 145.64199 
L 54.908511 145.936016 
L 55.735089 146.208227 
L 56.568593 146.45843 
L 57.408436 146.686451 
L 58.254029 146.892129 
L 59.104777 147.07532 
L 59.960082 147.235895 
L 60.819342 147.37374 
L 61.681955 147.48876 
L 62.547314 147.580872 
L 63.41481 147.650014 
L 64.283835 147.696135 
L 65.153776 147.719204 
L 66.024024 147.719204 
L 66.893965 147.696135 
L 67.76299 147.650014 
L 68.630486 147.580872 
L 69.495845 147.48876 
L 70.358458 147.37374 
L 71.217718 147.235895 
L 72.073023 147.07532 
L 72.923771 146.892129 
L 73.769364 146.686451 
L 74.609207 146.45843 
L 75.442711 146.208227 
L 76.269289 145.936016 
L 77.088362 145.64199 
L 77.899352 145.326355 
L 78.70169 144.989334 
L 79.494813 144.631162 
L 80.278162 144.252092 
L 81.051188 143.852389 
L 81.813346 143.432336 
L 82.564102 142.992227 
L 83.302928 142.532371 
L 84.029304 142.053092 
L 84.74272 141.554726 
L 85.442674 141.037624 
L 86.128675 140.50215 
L 86.80024 139.948679 
L 87.456898 139.3776 
L 88.098187 138.789315 
L 88.723656 138.184237 
L 89.332866 137.562792 
L 89.925388 136.925417 
L 90.500807 136.272558 
L 91.058717 135.604676 
L 91.598726 134.922239 
L 92.120456 134.225727 
L 92.623539 133.51563 
L 93.107622 132.792446 
L 93.572364 132.056685 
L 94.01744 131.308862 
L 65.5889 114.895637 
" clip-path="url(#pd11c9d3a33)" style="fill: none; stroke: #eb6834; stroke-linecap: round"/>
   </g>
   <g id="line2d_5">
    <defs>
     <path id="maead937568" d="M 0 1.5 
C 0.397805 1.5 0.77937 1.341951 1.06066 1.06066 
C 1.341951 0.77937 1.5 0.397805 1.5 0 
C 1.5 -0.397805 1.341951 -0.77937 1.06066 -1.06066 
C 0.77937 -1.341951 0.397805 -1.5 0 -1.5 
C -0.397805 -1.5 -0.77937 -1.341951 -1.06066 -1.06066 
C -1.341951 -0.77937 -1.5 -0.397805 -1.5 0 
C -1.5 0.397805 -1.341951 0.77937 -1.06066 1.06066 
C -0.77937 1.341951 -0.397805 1.5 0 1.5 
z
" style="stroke: #c3c2b7"/>
    </defs>
    <g clip-path="url(#pd11c9d3a33)">
     <use xlink:href="#maead937568" x="61.21204" y="119.272497" style="fill: #c3c2b7; stroke: #c3c2b7"/>
    </g>
   </g>
   <g id="line2d_6">
    <g clip-path="url(#pd11c9d3a33)">
     <use xlink:href="#maead937568" x="69.96576" y="119.272497" style="fill: #c3c2b7; stroke: #c3c2b7"/>
    </g>
   </g>
   <g id="line2d_7">
    <g clip-path="url(#pd11c9d3a33)">
     <use xlink:href="#maead937568" x="61.21204" y="97.388197" style="fill: #c3c2b7; stroke: #c3c2b7"/>
    </g>
   </g>
   <g id="line2d_8">
    <g clip-path="url(#pd11c9d3a33)">
     <use xlink:href="#maead937568" x="69.96576" y="97.388197" style="fill: #c3c2b7; stroke: #c3c2b7"/>
    </g>
   </g>
   <g id="line2d_9">
    <g clip-path="url(#pd11c9d3a33)">
     <use xlink:href="#maead937568" x="61.21204" y="75.503897" style="fill: #c3c2b7; stroke: #c3c2b7"/>
    </g>
   </g>
   <g id="line2d_10">
    <g clip-path="url(#pd11c9d3a33)">
     <use xlink:href="#maead937568" x="69.96576" y="75.503897" style="fill: #c3c2b7; stroke: #c3c2b7"/>
    </g>
   </g>
   <g id="line2d_11">
    <defs>
     <path id="m3091557afb" d="M -3 3 
L 3 3 
L 3 -3 
L -3 -3 
z
" style="stroke: #52514e; stroke-width: 0.8; stroke-linejoin: miter"/>
    </defs>
    <g clip-path="url(#pd11c9d3a33)">
     <use xlink:href="#m3091557afb" x="131.2418" y="145.533657" style="fill: #2a78d6; stroke: #52514e; stroke-width: 0.8; stroke-linejoin: miter"/>
    </g>
   </g>
   <g id="line2d_12">
    <g clip-path="url(#pd11c9d3a33)">
     <use xlink:href="#m3091557afb" x="131.2418" y="136.779937" style="fill: #2a78d6; stroke: #52514e; stroke-width: 0.8; stroke-linejoin: miter"/>
    </g>
   </g>
   <g id="line2d_13">
    <defs>
     <path id="mb6cbaea58e" d="M -3 3 
L 3 3 
L 3 -3 
L -3 -3 
z
" style="stroke: #52514e; stroke-width: 0.8; stroke-linejoin: miter"/>
    </defs>
    <g clip-path="url(#pd11c9d3a33)">
     <use xlink:href="#mb6cbaea58e" x="109.3575" y="145.533657" style="fill: #eb6834; stroke: #52514e; stroke-width: 0.8; stroke-linejoin: miter"/>
    </g>
   </g>
   <g id="line2d_14">
    <g clip-path="url(#pd11c9d3a33)">
     <use xlink:href="#m3091557afb" x="109.3575" y="136.779937" style="fill: #2a78d6; stroke: #52514e; stroke-width: 0.8; stroke-linejoin: miter"/>
    </g>
   </g>
   <g id="line2d_15">
    <g clip-path="url(#pd11c9d3a33)">
     <use xlink:href="#mb6cbaea58e" x="87.4732" y="145.533657" style="fill: #eb6834; stroke: #52514e; stroke-width: 0.8; stroke-linejoin: miter"/>
    </g>
   </g>
   <g id="line2d_16">
    <g clip-path="url(#pd11c9d3a33)">
     <use xlink:href="#mb6cbaea58e" x="87.4732" y="136.779937" style="fill: #eb6834; stroke: #52514e; stroke-width: 0.8; stroke-linejoin: miter"/>
    </g>
   </g>
   <g id="line2d_17">
    <g clip-path="url(#pd11c9d3a33)">
     <use xlink:href="#maead937568" x="157.50296" y="75.503897" style="fill: #c3c2b7; stroke: #c3c2b7"/>
    </g>
   </g>
   <g id="line2d_18">
    <g clip-path="url(#pd11c9d3a33)">
     <use xlink:href="#maead937568" x="148.74924" y="75.503897" style="fill: #c3c2b7; stroke: #c3c2b7"/>
    </g>
   </g>
   <g id="line2d_19">
    <g clip-path="url(#pd11c9d3a33)">
     <use xlink:href="#maead937568" x="157.50296" y="97.388197" style="fill: #c3c2b7; stroke: #c3c2b7"/>
    </g>
   </g>
   <g id="line2d_20">
    <g clip-path="url(#pd11c9d3a33)">
     <use xlink:href="#maead937568" x="148.74924" y="97.388197" style="fill: #c3c2b7; stroke: #c3c2b7"/>
    </g>
   </g>
   <g id="line2d_21">
    <g clip-path="url(#pd11c9d3a33)">
     <use xlink:href="#maead937568" x="157.50296" y="119.272497" style="fill: #c3c2b7; stroke: #c3c2b7"/>
    </g>
   </g>
   <g id="line2d_22">
    <g clip-path="url(#pd11c9d3a33)">
     <use xlink:href="#maead937568" x="148.74924" y="119.272497" style="fill: #c3c2b7; stroke: #c3c2b7"/>
    </g>
   </g>
   <g id="line2d_23">
    <g clip-path="url(#pd11c9d3a33)">
     <use xlink:href="#maead937568" x="87.4732" y="49.242737" style="fill: #c3c2b7; stroke: #c3c2b7"/>
    </g>
   </g>
   <g id="line2d_24">
    <g clip-path="url(#pd11c9d3a33)">
     <use xlink:href="#maead937568" x="87.4732" y="57.996457" style="fill: #c3c2b7; stroke: #c3c2b7"/>
    </g>
   </g>
   <g id="line2d_25">
    <g clip-path="url(#pd11c9d3a33)">
     <use xlink:href="#maead937568" x="109.3575" y="49.242737" style="fill: #c3c2b7; stroke: #c3c2b7"/>
    </g>
   </g>
   <g id="line2d_26">
    <g clip-path="url(#pd11c9d3a33)">
     <use xlink:href="#maead937568" x="109.3575" y="57.996457" style="fill: #c3c2b7; stroke: #c3c2b7"/>
    </g>
   </g>
   <g id="line2d_27">
    <g clip-path="url(#pd11c9d3a33)">
     <use xlink:href="#maead937568" x="131.2418" y="49.242737" style="fill: #c3c2b7; stroke: #c3c2b7"/>
    </g>
   </g>
   <g id="line2d_28">
    <g clip-path="url(#pd11c9d3a33)">
     <use xlink:href="#maead937568" x="131.2418" y="57.996457" style="fill: #c3c2b7; stroke: #c3c2b7"/>
    </g>
   </g>
   <g id="line2d_29">
    <path d="M 65.5889 114.895637 
" clip-path="url(#pd11c9d3a33)" style="fill: none; stroke: #0b0b0b; stroke-width: 1.5; stroke-linecap: round"/>
    <defs>
     <path id="m2b9362c091" d="M -0 4.5 
L 3.897114 -2.25 
L -3.897114 -2.25 
z
" style="stroke: #0b0b0b; stroke-linejoin: miter"/>
    </defs>
    <g clip-path="url(#pd11c9d3a33)">
     <use xlink:href="#m2b9362c091" x="65.5889" y="114.895637" style="fill: #0b0b0b; stroke: #0b0b0b; stroke-linejoin: miter"/>
    </g>
   </g>
   <g id="line2d_30"/>
   <g id="line2d_31"/>
   <g id="text_1">
    <!-- View at the scan halt (1.10 m) -->
    <g style="fill: #0b0b0b" transform="translate(39.32774 13.358437)scale(0.1 -0.1)">
     <defs>
      <path id="DejaVuSans-Bold-56" d="M 31 4666 
L 1241 4666 
L 2478 1222 
L 3713 4666 
L 4922 4666 
L 3194 0 
L 1759 0 
L 31 4666 
z
" transform="scale(0.015625)"/>
      <path id="DejaVuSans-Bold-69" d="M 538 3500 
L 1656 3500 
L 1656 0 
L 538 0 
L 538 3500 
z
M 538 4863 
L 1656 4863 
L 1656 3950 
L 538 3950 
L 538 4863 
z
" transform="scale(0.015625)"/>
      <path id="DejaVuSans-Bold-65" d="M 4031 1759 
L 4031 1441 
L 1416 1441 
Q 1456 1047 1700 850 
Q 1944 653 2381 653 
Q 2734 653 3104 758 
Q 3475 863 3866 1075 
L 3866 213 
Q 3469 63 3072 -14 
Q 2675 -91 2278 -91 
Q 1328 -91 801 392 
Q 275 875 275 1747 
Q 275 2603 792 3093 
Q 1309 3584 2216 3584 
Q 3041 3584 3536 3087 
Q 4031 2591 4031 1759 
z
M 2881 2131 
Q 2881 2450 2695 2645 
Q 2509 2841 2209 2841 
Q 1884 2841 1681 2658 
Q 1478 2475 1428 2131 
L 2881 2131 
z
" transform="scale(0.015625)"/>
      <path id="DejaVuSans-Bold-77" d="M 225 3500 
L 1313 3500 
L 1900 1088 
L 2491 3500 
L 3425 3500 
L 4013 1113 
L 4603 3500 
L 5691 3500 
L 4769 0 
L 3547 0 
L 2956 2406 
L 2369 0 
L 1147 0 
L 225 3500 
z
" transform="scale(0.015625)"/>
      <path id="DejaVuSans-Bold-20" transform="scale(0.015625)"/>
      <path id="DejaVuSans-Bold-61" d="M 2106 1575 
Q 1756 1575 1579 1456 
Q 1403 1338 1403 1106 
Q 1403 894 1545 773 
Q 1688 653 1941 653 
Q 2256 653 2472 879 
Q 2688 1106 2688 1447 
L 2688 1575 
L 2106 1575 
z
M 3816 1997 
L 3816 0 
L 2688 0 
L 2688 519 
Q 2463 200 2181 54 
Q 1900 -91 1497 -91 
Q 953 -91 614 226 
Q 275 544 275 1050 
Q 275 1666 698 1953 
Q 1122 2241 2028 2241 
L 2688 2241 
L 2688 2328 
Q 2688 2594 2478 2717 
Q 2269 2841 1825 2841 
Q 1466 2841 1156 2769 
Q 847 2697 581 2553 
L 581 3406 
Q 941 3494 1303 3539 
Q 1666 3584 2028 3584 
Q 2975 3584 3395 3211 
Q 3816 2838 3816 1997 
z
" transform="scale(0.015625)"/>
      <path id="DejaVuSans-Bold-74" d="M 1759 4494 
L 1759 3500 
L 2913 3500 
L 2913 2700 
L 1759 2700 
L 1759 1216 
Q 1759 972 1856 886 
Q 1953 800 2241 800 
L 2816 800 
L 2816 0 
L 1856 0 
Q 1194 0 917 276 
Q 641 553 641 1216 
L 641 2700 
L 84 2700 
L 84 3500 
L 641 3500 
L 641 4494 
L 1759 4494 
z
" transform="scale(0.015625)"/>
      <path id="DejaVuSans-Bold-68" d="M 4056 2131 
L 4056 0 
L 2931 0 
L 2931 347 
L 2931 1625 
Q 2931 2084 2911 2256 
Q 2891 2428 2841 2509 
Q 2775 2619 2662 2680 
Q 2550 2741 2406 2741 
Q 2056 2741 1856 2470 
Q 1656 2200 1656 1722 
L 1656 0 
L 538 0 
L 538 4863 
L 1656 4863 
L 1656 2988 
Q 1909 3294 2193 3439 
Q 2478 3584 2822 3584 
Q 3428 3584 3742 3212 
Q 4056 2841 4056 2131 
z
" transform="scale(0.015625)"/>
      <path id="DejaVuSans-Bold-73" d="M 3272 3391 
L 3272 2541 
Q 2913 2691 2578 2766 
Q 2244 2841 1947 2841 
Q 1628 2841 1473 2761 
Q 1319 2681 1319 2516 
Q 1319 2381 1436 2309 
Q 1553 2238 1856 2203 
L 2053 2175 
Q 2913 2066 3209 1816 
Q 3506 1566 3506 1031 
Q 3506 472 3093 190 
Q 2681 -91 1863 -91 
Q 1516 -91 1145 -36 
Q 775 19 384 128 
L 384 978 
Q 719 816 1070 734 
Q 1422 653 1784 653 
Q 2113 653 2278 743 
Q 2444 834 2444 1013 
Q 2444 1163 2330 1236 
Q 2216 1309 1875 1350 
L 1678 1375 
Q 931 1469 631 1722 
Q 331 1975 331 2491 
Q 331 3047 712 3315 
Q 1094 3584 1881 3584 
Q 2191 3584 2531 3537 
Q 2872 3491 3272 3391 
z
" transform="scale(0.015625)"/>
      <path id="DejaVuSans-Bold-63" d="M 3366 3391 
L 3366 2478 
Q 3138 2634 2908 2709 
Q 2678 2784 2431 2784 
Q 1963 2784 1702 2511 
Q 1441 2238 1441 1747 
Q 1441 1256 1702 982 
Q 1963 709 2431 709 
Q 2694 709 2930 787 
Q 3166 866 3366 1019 
L 3366 103 
Q 3103 6 2833 -42 
Q 2563 -91 2291 -91 
Q 1344 -91 809 395 
Q 275 881 275 1747 
Q 275 2613 809 3098 
Q 1344 3584 2291 3584 
Q 2566 3584 2833 3536 
Q 3100 3488 3366 3391 
z
" transform="scale(0.015625)"/>
      <path id="DejaVuSans-Bold-6e" d="M 4056 2131 
L 4056 0 
L 2931 0 
L 2931 347 
L 2931 1631 
Q 2931 2084 2911 2256 
Q 2891 2428 2841 2509 
Q 2775 2619 2662 2680 
Q 2550 2741 2406 2741 
Q 2056 2741 1856 2470 
Q 1656 2200 1656 1722 
L 1656 0 
L 538 0 
L 538 3500 
L 1656 3500 
L 1656 2988 
Q 1909 3294 2193 3439 
Q 2478 3584 2822 3584 
Q 3428 3584 3742 3212 
Q 4056 2841 4056 2131 
z
" transform="scale(0.015625)"/>
      <path id="DejaVuSans-Bold-6c" d="M 538 4863 
L 1656 4863 
L 1656 0 
L 538 0 
L 538 4863 
z
" transform="scale(0.015625)"/>
      <path id="DejaVuSans-Bold-28" d="M 2413 -844 
L 1484 -844 
Q 1006 -72 778 623 
Q 550 1319 550 2003 
Q 550 2688 779 3389 
Q 1009 4091 1484 4856 
L 2413 4856 
Q 2013 4116 1813 3408 
Q 1613 2700 1613 2009 
Q 1613 1319 1811 609 
Q 2009 -100 2413 -844 
z
" transform="scale(0.015625)"/>
      <path id="DejaVuSans-Bold-31" d="M 750 831 
L 1813 831 
L 1813 3847 
L 722 3622 
L 722 4441 
L 1806 4666 
L 2950 4666 
L 2950 831 
L 4013 831 
L 4013 0 
L 750 0 
L 750 831 
z
" transform="scale(0.015625)"/>
      <path id="DejaVuSans-Bold-2e" d="M 653 1209 
L 1778 1209 
L 1778 0 
L 653 0 
L 653 1209 
z
" transform="scale(0.015625)"/>
      <path id="DejaVuSans-Bold-30" d="M 2944 2338 
Q 2944 3213 2780 3570 
Q 2616 3928 2228 3928 
Q 1841 3928 1675 3570 
Q 1509 3213 1509 2338 
Q 1509 1453 1675 1090 
Q 1841 728 2228 728 
Q 2613 728 2778 1090 
Q 2944 1453 2944 2338 
z
M 4147 2328 
Q 4147 1169 3647 539 
Q 3147 -91 2228 -91 
Q 1306 -91 806 539 
Q 306 1169 306 2328 
Q 306 3491 806 4120 
Q 1306 4750 2228 4750 
Q 3147 4750 3647 4120 
Q 4147 3491 4147 2328 
z
" transform="scale(0.015625)"/>
      <path id="DejaVuSans-Bold-6d" d="M 3781 2919 
Q 3994 3244 4286 3414 
Q 4578 3584 4928 3584 
Q 5531 3584 5847 3212 
Q 6163 2841 6163 2131 
L 6163 0 
L 5038 0 
L 5038 1825 
Q 5041 1866 5042 1909 
Q 5044 1953 5044 2034 
Q 5044 2406 4934 2573 
Q 4825 2741 4581 2741 
Q 4263 2741 4089 2478 
Q 3916 2216 3909 1719 
L 3909 0 
L 2784 0 
L 2784 1825 
Q 2784 2406 2684 2573 
Q 2584 2741 2328 2741 
Q 2006 2741 1831 2477 
Q 1656 2213 1656 1722 
L 1656 0 
L 531 0 
L 531 3500 
L 1656 3500 
L 1656 2988 
Q 1863 3284 2130 3434 
Q 2397 3584 2719 3584 
Q 3081 3584 3359 3409 
Q 3638 3234 3781 2919 
z
" transform="scale(0.015625)"/>
      <path id="DejaVuSans-Bold-29" d="M 513 -844 
Q 913 -100 1113 609 
Q 1313 1319 1313 2009 
Q 1313 2700 1113 3408 
Q 913 4116 513 4856 
L 1441 4856 
Q 1916 4091 2145 3389 
Q 2375 2688 2375 2003 
Q 2375 1319 2147 623 
Q 1919 -72 1441 -844 
L 513 -844 
z
" transform="scale(0.015625)"/>
     </defs>
     <use xlink:href="#DejaVuSans-Bold-56"/>
     <use xlink:href="#DejaVuSans-Bold-69" x="75.642578"/>
     <use xlink:href="#DejaVuSans-Bold-65" x="109.919922"/>
     <use xlink:href="#DejaVuSans-Bold-77" x="177.742188"/>
     <use xlink:href="#DejaVuSans-Bold-20" x="270.125"/>
     <use xlink:href="#DejaVuSans-Bold-61" x="304.939453"/>
     <use xlink:href="#DejaVuSans-Bold-74" x="372.419922"/>
     <use xlink:href="#DejaVuSans-Bold-20" x="420.222656"/>
     <use xlink:href="#DejaVuSans-Bold-74" x="455.037109"/>
     <use xlink:href="#DejaVuSans-Bold-68" x="502.839844"/>
     <use xlink:href="#DejaVuSans-Bold-65" x="574.03125"/>
     <use xlink:href="#DejaVuSans-Bold-20" x="641.853516"/>
     <use xlink:href="#DejaVuSans-Bold-73" x="676.667969"/>
     <use xlink:href="#DejaVuSans-Bold-63" x="736.189453"/>
     <use xlink:href="#DejaVuSans-Bold-61" x="795.466797"/>
     <use xlink:href="#DejaVuSans-Bold-6e" x="862.947266"/>
     <use xlink:href="#DejaVuSans-Bold-20" x="934.138672"/>
     <use xlink:href="#DejaVuSans-Bold-68" x="968.953125"/>
     <use xlink:href="#DejaVuSans-Bold-61" x="1040.144531"/>
     <use xlink:href="#DejaVuSans-Bold-6c" x="1107.625"/>
     <use xlink:href="#DejaVuSans-Bold-74" x="1141.902344"/>
     <use xlink:href="#DejaVuSans-Bold-20" x="1189.705078"/>
     <use xlink:href="#DejaVuSans-Bold-28" x="1224.519531"/>
     <use xlink:href="#DejaVuSans-Bold-31" x="1270.222656"/>
     <use xlink:href="#DejaVuSans-Bold-2e" x="1339.802734"/>
     <use xlink:href="#DejaVuSans-Bold-31" x="1377.791016"/>
     <use xlink:href="#DejaVuSans-Bold-30" x="1447.371094"/>
     <use xlink:href="#DejaVuSans-Bold-20" x="1516.951172"/>
     <use xlink:href="#DejaVuSans-Bold-6d" x="1551.765625"/>
     <use xlink:href="#DejaVuSans-Bold-29" x="1655.964844"/>
    </g>
   </g>
   <g id="legend_1">
    <g id="line2d_32">
     <path d="M 27.462422 179.388054 
L 34.462422 179.388054 
L 41.462422 179.388054 
" style="fill: none; stroke: #2a78d6; stroke-linecap: round"/>
    </g>
    <g id="text_2">
     <!-- 240 deg -->
     <g style="fill: #52514e" transform="translate(47.062422 181.838054)scale(0.07 -0.07)">
      <defs>
       <path id="DejaVuSans-32" d="M 1228 531 
L 3431 531 
L 3431 0 
L 469 0 
L 469 531 
Q 828 903 1448 1529 
Q 2069 2156 2228 2338 
Q 2531 2678 2651 2914 
Q 2772 3150 2772 3378 
Q 2772 3750 2511 3984 
Q 2250 4219 1831 4219 
Q 1534 4219 1204 4116 
Q 875 4013 500 3803 
L 500 4441 
Q 881 4594 1212 4672 
Q 1544 4750 1819 4750 
Q 2544 4750 2975 4387 
Q 3406 4025 3406 3419 
Q 3406 3131 3298 2873 
Q 3191 2616 2906 2266 
Q 2828 2175 2409 1742 
Q 1991 1309 1228 531 
z
" transform="scale(0.015625)"/>
       <path id="DejaVuSans-34" d="M 2419 4116 
L 825 1625 
L 2419 1625 
L 2419 4116 
z
M 2253 4666 
L 3047 4666 
L 3047 1625 
L 3713 1625 
L 3713 1100 
L 3047 1100 
L 3047 0 
L 2419 0 
L 2419 1100 
L 313 1100 
L 313 1709 
L 2253 4666 
z
" transform="scale(0.015625)"/>
       <path id="DejaVuSans-30" d="M 2034 4250 
Q 1547 4250 1301 3770 
Q 1056 3291 1056 2328 
Q 1056 1369 1301 889 
Q 1547 409 2034 409 
Q 2525 409 2770 889 
Q 3016 1369 3016 2328 
Q 3016 3291 2770 3770 
Q 2525 4250 2034 4250 
z
M 2034 4750 
Q 2819 4750 3233 4129 
Q 3647 3509 3647 2328 
Q 3647 1150 3233 529 
Q 2819 -91 2034 -91 
Q 1250 -91 836 529 
Q 422 1150 422 2328 
Q 422 3509 836 4129 
Q 1250 4750 2034 4750 
z
" transform="scale(0.015625)"/>
       <path id="DejaVuSans-20" transform="scale(0.015625)"/>
       <path id="DejaVuSans-64" d="M 2906 2969 
L 2906 4863 
L 3481 4863 
L 3481 0 
L 2906 0 
L 2906 525 
Q 2725 213 2448 61 
Q 2172 -91 1784 -91 
Q 1150 -91 751 415 
Q 353 922 353 1747 
Q 353 2572 751 3078 
Q 1150 3584 1784 3584 
Q 2172 3584 2448 3432 
Q 2725 3281 2906 2969 
z
M 947 1747 
Q 947 1113 1208 752 
Q 1469 391 1925 391 
Q 2381 391 2643 752 
Q 2906 1113 2906 1747 
Q 2906 2381 2643 2742 
Q 2381 3103 1925 3103 
Q 1469 3103 1208 2742 
Q 947 2381 947 1747 
z
" transform="scale(0.015625)"/>
       <path id="DejaVuSans-65" d="M 3597 1894 
L 3597 1613 
L 953 1613 
Q 991 1019 1311 708 
Q 1631 397 2203 397 
Q 2534 397 2845 478 
Q 3156 559 3463 722 
L 3463 178 
Q 3153 47 2828 -22 
Q 2503 -91 2169 -91 
Q 1331 -91 842 396 
Q 353 884 353 1716 
Q 353 2575 817 3079 
Q 1281 3584 2069 3584 
Q 2775 3584 3186 3129 
Q 3597 2675 3597 1894 
z
M 3022 2063 
Q 3016 2534 2758 2815 
Q 2500 3097 2075 3097 
Q 1594 3097 1305 2825 
Q 1016 2553 972 2059 
L 3022 2063 
z
" transform="scale(0.015625)"/>
       <path id="DejaVuSans-67" d="M 2906 1791 
Q 2906 2416 2648 2759 
Q 2391 3103 1925 3103 
Q 1463 3103 1205 2759 
Q 947 2416 947 1791 
Q 947 1169 1205 825 
Q 1463 481 1925 481 
Q 2391 481 2648 825 
Q 2906 1169 2906 1791 
z
M 3481 434 
Q 3481 -459 3084 -895 
Q 2688 -1331 1869 -1331 
Q 1566 -1331 1297 -1286 
Q 1028 -1241 775 -1147 
L 775 -588 
Q 1028 -725 1275 -790 
Q 1522 -856 1778 -856 
Q 2344 -856 2625 -561 
Q 2906 -266 2906 331 
L 2906 616 
Q 2728 306 2450 153 
Q 2172 0 1784 0 
Q 1141 0 747 490 
Q 353 981 353 1791 
Q 353 2603 747 3093 
Q 1141 3584 1784 3584 
Q 2172 3584 2450 3431 
Q 2728 3278 2906 2969 
L 2906 3500 
L 3481 3500 
L 3481 434 
z
" transform="scale(0.015625)"/>
      </defs>
      <use xlink:href="#DejaVuSans-32"/>
      <use xlink:href="#DejaVuSans-34" x="63.623047"/>
      <use xlink:href="#DejaVuSans-30" x="127.246094"/>
      <use xlink:href="#DejaVuSans-20" x="190.869141"/>
      <use xlink:href="#DejaVuSans-64" x="222.65625"/>
      <use xlink:href="#DejaVuSans-65" x="286.132812"/>
      <use xlink:href="#DejaVuSans-67" x="347.65625"/>
     </g>
    </g>
    <g id="line2d_33">
     <path d="M 27.462422 189.662742 
L 34.462422 189.662742 
L 41.462422 189.662742 
" style="fill: none; stroke: #eb6834; stroke-linecap: round"/>
    </g>
    <g id="text_3">
     <!-- 120 deg -->
     <g style="fill: #52514e" transform="translate(47.062422 192.112742)scale(0.07 -0.07)">
      <defs>
       <path id="DejaVuSans-31" d="M 794 531 
L 1825 531 
L 1825 4091 
L 703 3866 
L 703 4441 
L 1819 4666 
L 2450 4666 
L 2450 531 
L 3481 531 
L 3481 0 
L 794 0 
L 794 531 
z
" transform="scale(0.015625)"/>
      </defs>
      <use xlink:href="#DejaVuSans-31"/>
      <use xlink:href="#DejaVuSans-32" x="63.623047"/>
      <use xlink:href="#DejaVuSans-30" x="127.246094"/>
      <use xlink:href="#DejaVuSans-20" x="190.869141"/>
      <use xlink:href="#DejaVuSans-64" x="222.65625"/>
      <use xlink:href="#DejaVuSans-65" x="286.132812"/>
      <use xlink:href="#DejaVuSans-67" x="347.65625"/>
     </g>
    </g>
    <g id="line2d_34">
     <defs>
      <path id="m5baeadbe91" d="M -3 3 
L 3 3 
L 3 -3 
L -3 -3 
z
" style="stroke: #52514e; stroke-linejoin: miter"/>
     </defs>
     <g>
      <use xlink:href="#m5baeadbe91" x="96.843359" y="179.388054" style="fill: #eb6834; stroke: #52514e; stroke-linejoin: miter"/>
     </g>
    </g>
    <g id="text_4">
     <!-- seen with both -->
     <g style="fill: #52514e" transform="translate(109.443359 181.838054)scale(0.07 -0.07)">
      <defs>
       <path id="DejaVuSans-73" d="M 2834 3397 
L 2834 2853 
Q 2591 2978 2328 3040 
Q 2066 3103 1784 3103 
Q 1356 3103 1142 2972 
Q 928 2841 928 2578 
Q 928 2378 1081 2264 
Q 1234 2150 1697 2047 
L 1894 2003 
Q 2506 1872 2764 1633 
Q 3022 1394 3022 966 
Q 3022 478 2636 193 
Q 2250 -91 1575 -91 
Q 1294 -91 989 -36 
Q 684 19 347 128 
L 347 722 
Q 666 556 975 473 
Q 1284 391 1588 391 
Q 1994 391 2212 530 
Q 2431 669 2431 922 
Q 2431 1156 2273 1281 
Q 2116 1406 1581 1522 
L 1381 1569 
Q 847 1681 609 1914 
Q 372 2147 372 2553 
Q 372 3047 722 3315 
Q 1072 3584 1716 3584 
Q 2034 3584 2315 3537 
Q 2597 3491 2834 3397 
z
" transform="scale(0.015625)"/>
       <path id="DejaVuSans-6e" d="M 3513 2113 
L 3513 0 
L 2938 0 
L 2938 2094 
Q 2938 2591 2744 2837 
Q 2550 3084 2163 3084 
Q 1697 3084 1428 2787 
Q 1159 2491 1159 1978 
L 1159 0 
L 581 0 
L 581 3500 
L 1159 3500 
L 1159 2956 
Q 1366 3272 1645 3428 
Q 1925 3584 2291 3584 
Q 2894 3584 3203 3211 
Q 3513 2838 3513 2113 
z
" transform="scale(0.015625)"/>
       <path id="DejaVuSans-77" d="M 269 3500 
L 844 3500 
L 1563 769 
L 2278 3500 
L 2956 3500 
L 3675 769 
L 4391 3500 
L 4966 3500 
L 4050 0 
L 3372 0 
L 2619 2869 
L 1863 0 
L 1184 0 
L 269 3500 
z
" transform="scale(0.015625)"/>
       <path id="DejaVuSans-69" d="M 603 3500 
L 1178 3500 
L 1178 0 
L 603 0 
L 603 3500 
z
M 603 4863 
L 1178 4863 
L 1178 4134 
L 603 4134 
L 603 4863 
z
" transform="scale(0.015625)"/>
       <path id="DejaVuSans-74" d="M 1172 4494 
L 1172 3500 
L 2356 3500 
L 2356 3053 
L 1172 3053 
L 1172 1153 
Q 1172 725 1289 603 
Q 1406 481 1766 481 
L 2356 481 
L 2356 0 
L 1766 0 
Q 1100 0 847 248 
Q 594 497 594 1153 
L 594 3053 
L 172 3053 
L 172 3500 
L 594 3500 
L 594 4494 
L 1172 4494 
z
" transform="scale(0.015625)"/>
       <path id="DejaVuSans-68" d="M 3513 2113 
L 3513 0 
L 2938 0 
L 2938 2094 
Q 2938 2591 2744 2837 
Q 2550 3084 2163 3084 
Q 1697 3084 1428 2787 
Q 1159 2491 1159 1978 
L 1159 0 
L 581 0 
L 581 4863 
L 1159 4863 
L 1159 2956 
Q 1366 3272 1645 3428 
Q 1925 3584 2291 3584 
Q 2894 3584 3203 3211 
Q 3513 2838 3513 2113 
z
" transform="scale(0.015625)"/>
       <path id="DejaVuSans-62" d="M 3116 1747 
Q 3116 2381 2855 2742 
Q 2594 3103 2138 3103 
Q 1681 3103 1420 2742 
Q 1159 2381 1159 1747 
Q 1159 1113 1420 752 
Q 1681 391 2138 391 
Q 2594 391 2855 752 
Q 3116 1113 3116 1747 
z
M 1159 2969 
Q 1341 3281 1617 3432 
Q 1894 3584 2278 3584 
Q 2916 3584 3314 3078 
Q 3713 2572 3713 1747 
Q 3713 922 3314 415 
Q 2916 -91 2278 -91 
Q 1894 -91 1617 61 
Q 1341 213 1159 525 
L 1159 0 
L 581 0 
L 581 4863 
L 1159 4863 
L 1159 2969 
z
" transform="scale(0.015625)"/>
       <path id="DejaVuSans-6f" d="M 1959 3097 
Q 1497 3097 1228 2736 
Q 959 2375 959 1747 
Q 959 1119 1226 758 
Q 1494 397 1959 397 
Q 2419 397 2687 759 
Q 2956 1122 2956 1747 
Q 2956 2369 2687 2733 
Q 2419 3097 1959 3097 
z
M 1959 3584 
Q 2709 3584 3137 3096 
Q 3566 2609 3566 1747 
Q 3566 888 3137 398 
Q 2709 -91 1959 -91 
Q 1206 -91 779 398 
Q 353 888 353 1747 
Q 353 2609 779 3096 
Q 1206 3584 1959 3584 
z
" transform="scale(0.015625)"/>
      </defs>
      <use xlink:href="#DejaVuSans-73"/>
      <use xlink:href="#DejaVuSans-65" x="52.099609"/>
      <use xlink:href="#DejaVuSans-65" x="113.623047"/>
      <use xlink:href="#DejaVuSans-6e" x="175.146484"/>
      <use xlink:href="#DejaVuSans-20" x="238.525391"/>
      <use xlink:href="#DejaVuSans-77" x="270.3125"/>
      <use xlink:href="#DejaVuSans-69" x="352.099609"/>
      <use xlink:href="#DejaVuSans-74" x="379.882812"/>
      <use xlink:href="#DejaVuSans-68" x="419.091797"/>
      <use xlink:href="#DejaVuSans-20" x="482.470703"/>
      <use xlink:href="#DejaVuSans-62" x="514.257812"/>
      <use xlink:href="#DejaVuSans-6f" x="577.734375"/>
      <use xlink:href="#DejaVuSans-74" x="638.916016"/>
      <use xlink:href="#DejaVuSans-68" x="678.125"/>
     </g>
    </g>
    <g id="line2d_35">
     <defs>
      <path id="mc90f373dce" d="M -3 3 
L 3 3 
L 3 -3 
L -3 -3 
z
" style="stroke: #52514e; stroke-linejoin: miter"/>
     </defs>
     <g>
      <use xlink:href="#mc90f373dce" x="96.843359" y="189.662742" style="fill: #2a78d6; stroke: #52514e; stroke-linejoin: miter"/>
     </g>
    </g>
    <g id="text_5">
     <!-- seen with 240 deg only -->
     <g style="fill: #52514e" transform="translate(109.443359 192.112742)scale(0.07 -0.07)">
      <defs>
       <path id="DejaVuSans-6c" d="M 603 4863 
L 1178 4863 
L 1178 0 
L 603 0 
L 603 4863 
z
" transform="scale(0.015625)"/>
       <path id="DejaVuSans-79" d="M 2059 -325 
Q 1816 -950 1584 -1140 
Q 1353 -1331 966 -1331 
L 506 -1331 
L 506 -850 
L 844 -850 
Q 1081 -850 1212 -737 
Q 1344 -625 1503 -206 
L 1606 56 
L 191 3500 
L 800 3500 
L 1894 763 
L 2988 3500 
L 3597 3500 
L 2059 -325 
z
" transform="scale(0.015625)"/>
      </defs>
      <use xlink:href="#DejaVuSans-73"/>
      <use xlink:href="#DejaVuSans-65" x="52.099609"/>
      <use xlink:href="#DejaVuSans-65" x="113.623047"/>
      <use xlink:href="#DejaVuSans-6e" x="175.146484"/>
      <use xlink:href="#DejaVuSans-20" x="238.525391"/>
      <use xlink:href="#DejaVuSans-77" x="270.3125"/>
      <use xlink:href="#DejaVuSans-69" x="352.099609"/>
      <use xlink:href="#DejaVuSans-74" x="379.882812"/>
      <use xlink:href="#DejaVuSans-68" x="419.091797"/>
      <use xlink:href="#DejaVuSans-20" x="482.470703"/>
      <use xlink:href="#DejaVuSans-32" x="514.257812"/>
      <use xlink:href="#DejaVuSans-34" x="577.880859"/>
      <use xlink:href="#DejaVuSans-30" x="641.503906"/>
      <use xlink:href="#DejaVuSans-20" x="705.126953"/>
      <use xlink:href="#DejaVuSans-64" x="736.914062"/>
      <use xlink:href="#DejaVuSans-65" x="800.390625"/>
      <use xlink:href="#DejaVuSans-67" x="861.914062"/>
      <use xlink:href="#DejaVuSans-20" x="925.390625"/>
      <use xlink:href="#DejaVuSans-6f" x="957.177734"/>
      <use xlink:href="#DejaVuSans-6e" x="1018.359375"/>
      <use xlink:href="#DejaVuSans-6c" x="1081.738281"/>
      <use xlink:href="#DejaVuSans-79" x="1109.521484"/>
     </g>
    </g>
   </g>
  </g>
  <g id="axes_2">
   <g id="patch_5">
    <path d="M 253.291364 167.417957 
L 531.703636 167.417957 
L 531.703636 27.358437 
L 253.291364 27.358437 
z
" style="fill: #ffffff"/>
   </g>
   <g id="matplotlib.axis_3">
    <g id="xtick_1">
     <g id="line2d_36">
      <path d="M 494.943574 167.417957 
L 494.943574 27.358437 
" clip-path="url(#p40d4d2b95e)" style="fill: none; stroke: #e1e0d9; stroke-width: 0.6; stroke-linecap: round"/>
     </g>
     <g id="line2d_37">
      <defs>
       <path id="m70745df9d1" d="M 0 0 
L 0 3.5 
" style="stroke: #c3c2b7; stroke-width: 0.8"/>
      </defs>
      <g>
       <use xlink:href="#m70745df9d1" x="494.943574" y="167.417957" style="fill: #c3c2b7; stroke: #c3c2b7; stroke-width: 0.8"/>
      </g>
     </g>
     <g id="text_6">
      <!-- $\mathdefault{0.5}$ -->
      <g style="fill: #52514e" transform="translate(488.543574 180.496707)scale(0.08 -0.08)">
       <defs>
        <path id="DejaVuSans-2e" d="M 684 794 
L 1344 794 
L 1344 0 
L 684 0 
L 684 794 
z
" transform="scale(0.015625)"/>
        <path id="DejaVuSans-35" d="M 691 4666 
L 3169 4666 
L 3169 4134 
L 1269 4134 
L 1269 2991 
Q 1406 3038 1543 3061 
Q 1681 3084 1819 3084 
Q 2600 3084 3056 2656 
Q 3513 2228 3513 1497 
Q 3513 744 3044 326 
Q 2575 -91 1722 -91 
Q 1428 -91 1123 -41 
Q 819 9 494 109 
L 494 744 
Q 775 591 1075 516 
Q 1375 441 1709 441 
Q 2250 441 2565 725 
Q 2881 1009 2881 1497 
Q 2881 1984 2565 2268 
Q 2250 2553 1709 2553 
Q 1456 2553 1204 2497 
Q 953 2441 691 2322 
L 691 4666 
z
" transform="scale(0.015625)"/>
       </defs>
       <use xlink:href="#DejaVuSans-30" transform="translate(0 0.78125)"/>
       <use xlink:href="#DejaVuSans-2e" transform="translate(63.623047 0.78125)"/>
       <use xlink:href="#DejaVuSans-35" transform="translate(95.410156 0.78125)"/>
      </g>
     </g>
    </g>
    <g id="xtick_2">
     <g id="line2d_38">
      <path d="M 434.681178 167.417957 
L 434.681178 27.358437 
" clip-path="url(#p40d4d2b95e)" style="fill: none; stroke: #e1e0d9; stroke-width: 0.6; stroke-linecap: round"/>
     </g>
     <g id="line2d_39">
      <g>
       <use xlink:href="#m70745df9d1" x="434.681178" y="167.417957" style="fill: #c3c2b7; stroke: #c3c2b7; stroke-width: 0.8"/>
      </g>
     </g>
     <g id="text_7">
      <!-- $\mathdefault{1.0}$ -->
      <g style="fill: #52514e" transform="translate(428.281178 180.496707)scale(0.08 -0.08)">
       <use xlink:href="#DejaVuSans-31" transform="translate(0 0.78125)"/>
       <use xlink:href="#DejaVuSans-2e" transform="translate(63.623047 0.78125)"/>
       <use xlink:href="#DejaVuSans-30" transform="translate(95.410156 0.78125)"/>
      </g>
     </g>
    </g>
    <g id="xtick_3">
     <g id="line2d_40">
      <path d="M 374.418781 167.417957 
L 374.418781 27.358437 
" clip-path="url(#p40d4d2b95e)" style="fill: none; stroke: #e1e0d9; stroke-width: 0.6; stroke-linecap: round"/>
     </g>
     <g id="line2d_41">
      <g>
       <use xlink:href="#m70745df9d1" x="374.418781" y="167.417957" style="fill: #c3c2b7; stroke: #c3c2b7; stroke-width: 0.8"/>
      </g>
     </g>
     <g id="text_8">
      <!-- $\mathdefault{1.5}$ -->
      <g style="fill: #52514e" transform="translate(368.018781 180.496707)scale(0.08 -0.08)">
       <use xlink:href="#DejaVuSans-31" transform="translate(0 0.09375)"/>
       <use xlink:href="#DejaVuSans-2e" transform="translate(63.623047 0.09375)"/>
       <use xlink:href="#DejaVuSans-35" transform="translate(95.410156 0.09375)"/>
      </g>
     </g>
    </g>
    <g id="xtick_4">
     <g id="line2d_42">
      <path d="M 314.156384 167.417957 
L 314.156384 27.358437 
" clip-path="url(#p40d4d2b95e)" style="fill: none; stroke: #e1e0d9; stroke-width: 0.6; stroke-linecap: round"/>
     </g>
     <g id="line2d_43">
      <g>
       <use xlink:href="#m70745df9d1" x="314.156384" y="167.417957" style="fill: #c3c2b7; stroke: #c3c2b7; stroke-width: 0.8"/>
      </g>
     </g>
     <g id="text_9">
      <!-- $\mathdefault{2.0}$ -->
      <g style="fill: #52514e" transform="translate(307.756384 180.496707)scale(0.08 -0.08)">
       <use xlink:href="#DejaVuSans-32" transform="translate(0 0.78125)"/>
       <use xlink:href="#DejaVuSans-2e" transform="translate(63.623047 0.78125)"/>
       <use xlink:href="#DejaVuSans-30" transform="translate(95.410156 0.78125)"/>
      </g>
     </g>
    </g>
    <g id="xtick_5">
     <g id="line2d_44">
      <path d="M 253.893988 167.417957 
L 253.893988 27.358437 
" clip-path="url(#p40d4d2b95e)" style="fill: none; stroke: #e1e0d9; stroke-width: 0.6; stroke-linecap: round"/>
     </g>
     <g id="line2d_45">
      <g>
       <use xlink:href="#m70745df9d1" x="253.893988" y="167.417957" style="fill: #c3c2b7; stroke: #c3c2b7; stroke-width: 0.8"/>
      </g>
     </g>
     <g id="text_10">
      <!-- $\mathdefault{2.5}$ -->
      <g style="fill: #52514e" transform="translate(247.493988 180.496707)scale(0.08 -0.08)">
       <use xlink:href="#DejaVuSans-32" transform="translate(0 0.78125)"/>
       <use xlink:href="#DejaVuSans-2e" transform="translate(63.623047 0.78125)"/>
       <use xlink:href="#DejaVuSans-35" transform="translate(95.410156 0.78125)"/>
      </g>
     </g>
    </g>
    <g id="text_11">
     <!-- distance to the front wall [m] -->
     <g style="fill: #52514e" transform="translate(326.841094 192.999051)scale(0.09 -0.09)">
      <defs>
       <path id="DejaVuSans-61" d="M 2194 1759 
Q 1497 1759 1228 1600 
Q 959 1441 959 1056 
Q 959 750 1161 570 
Q 1363 391 1709 391 
Q 2188 391 2477 730 
Q 2766 1069 2766 1631 
L 2766 1759 
L 2194 1759 
z
M 3341 1997 
L 3341 0 
L 2766 0 
L 2766 531 
Q 2569 213 2275 61 
Q 1981 -91 1556 -91 
Q 1019 -91 701 211 
Q 384 513 384 1019 
Q 384 1609 779 1909 
Q 1175 2209 1959 2209 
L 2766 2209 
L 2766 2266 
Q 2766 2663 2505 2880 
Q 2244 3097 1772 3097 
Q 1472 3097 1187 3025 
Q 903 2953 641 2809 
L 641 3341 
Q 956 3463 1253 3523 
Q 1550 3584 1831 3584 
Q 2591 3584 2966 3190 
Q 3341 2797 3341 1997 
z
" transform="scale(0.015625)"/>
       <path id="DejaVuSans-63" d="M 3122 3366 
L 3122 2828 
Q 2878 2963 2633 3030 
Q 2388 3097 2138 3097 
Q 1578 3097 1268 2742 
Q 959 2388 959 1747 
Q 959 1106 1268 751 
Q 1578 397 2138 397 
Q 2388 397 2633 464 
Q 2878 531 3122 666 
L 3122 134 
Q 2881 22 2623 -34 
Q 2366 -91 2075 -91 
Q 1284 -91 818 406 
Q 353 903 353 1747 
Q 353 2603 823 3093 
Q 1294 3584 2113 3584 
Q 2378 3584 2631 3529 
Q 2884 3475 3122 3366 
z
" transform="scale(0.015625)"/>
       <path id="DejaVuSans-66" d="M 2375 4863 
L 2375 4384 
L 1825 4384 
Q 1516 4384 1395 4259 
Q 1275 4134 1275 3809 
L 1275 3500 
L 2222 3500 
L 2222 3053 
L 1275 3053 
L 1275 0 
L 697 0 
L 697 3053 
L 147 3053 
L 147 3500 
L 697 3500 
L 697 3744 
Q 697 4328 969 4595 
Q 1241 4863 1831 4863 
L 2375 4863 
z
" transform="scale(0.015625)"/>
       <path id="DejaVuSans-72" d="M 2631 2963 
Q 2534 3019 2420 3045 
Q 2306 3072 2169 3072 
Q 1681 3072 1420 2755 
Q 1159 2438 1159 1844 
L 1159 0 
L 581 0 
L 581 3500 
L 1159 3500 
L 1159 2956 
Q 1341 3275 1631 3429 
Q 1922 3584 2338 3584 
Q 2397 3584 2469 3576 
Q 2541 3569 2628 3553 
L 2631 2963 
z
" transform="scale(0.015625)"/>
       <path id="DejaVuSans-5b" d="M 550 4863 
L 1875 4863 
L 1875 4416 
L 1125 4416 
L 1125 -397 
L 1875 -397 
L 1875 -844 
L 550 -844 
L 550 4863 
z
" transform="scale(0.015625)"/>
       <path id="DejaVuSans-6d" d="M 3328 2828 
Q 3544 3216 3844 3400 
Q 4144 3584 4550 3584 
Q 5097 3584 5394 3201 
Q 5691 2819 5691 2113 
L 5691 0 
L 5113 0 
L 5113 2094 
Q 5113 2597 4934 2840 
Q 4756 3084 4391 3084 
Q 3944 3084 3684 2787 
Q 3425 2491 3425 1978 
L 3425 0 
L 2847 0 
L 2847 2094 
Q 2847 2600 2669 2842 
Q 2491 3084 2119 3084 
Q 1678 3084 1418 2786 
Q 1159 2488 1159 1978 
L 1159 0 
L 581 0 
L 581 3500 
L 1159 3500 
L 1159 2956 
Q 1356 3278 1631 3431 
Q 1906 3584 2284 3584 
Q 2666 3584 2933 3390 
Q 3200 3197 3328 2828 
z
" transform="scale(0.015625)"/>
       <path id="DejaVuSans-5d" d="M 1947 4863 
L 1947 -844 
L 622 -844 
L 622 -397 
L 1369 -397 
L 1369 4416 
L 622 4416 
L 622 4863 
L 1947 4863 
z
" transform="scale(0.015625)"/>
      </defs>
      <use xlink:href="#DejaVuSans-64"/>
      <use xlink:href="#DejaVuSans-69" x="63.476562"/>
      <use xlink:href="#DejaVuSans-73" x="91.259766"/>
      <use xlink:href="#DejaVuSans-74" x="143.359375"/>
      <use xlink:href="#DejaVuSans-61" x="182.568359"/>
      <use xlink:href="#DejaVuSans-6e" x="243.847656"/>
      <use xlink:href="#DejaVuSans-63" x="307.226562"/>
      <use xlink:href="#DejaVuSans-65" x="362.207031"/>
      <use xlink:href="#DejaVuSans-20" x="423.730469"/>
      <use xlink:href="#DejaVuSans-74" x="455.517578"/>
      <use xlink:href="#DejaVuSans-6f" x="494.726562"/>
      <use xlink:href="#DejaVuSans-20" x="555.908203"/>
      <use xlink:href="#DejaVuSans-74" x="587.695312"/>
      <use xlink:href="#DejaVuSans-68" x="626.904297"/>
      <use xlink:href="#DejaVuSans-65" x="690.283203"/>
      <use xlink:href="#DejaVuSans-20" x="751.806641"/>
      <use xlink:href="#DejaVuSans-66" x="783.59375"/>
      <use xlink:href="#DejaVuSans-72" x="818.798828"/>
      <use xlink:href="#DejaVuSans-6f" x="857.662109"/>
      <use xlink:href="#DejaVuSans-6e" x="918.84375"/>
      <use xlink:href="#DejaVuSans-74" x="982.222656"/>
      <use xlink:href="#DejaVuSans-20" x="1021.431641"/>
      <use xlink:href="#DejaVuSans-77" x="1053.21875"/>
      <use xlink:href="#DejaVuSans-61" x="1135.005859"/>
      <use xlink:href="#DejaVuSans-6c" x="1196.285156"/>
      <use xlink:href="#DejaVuSans-6c" x="1224.068359"/>
      <use xlink:href="#DejaVuSans-20" x="1251.851562"/>
      <use xlink:href="#DejaVuSans-5b" x="1283.638672"/>
      <use xlink:href="#DejaVuSans-6d" x="1322.652344"/>
      <use xlink:href="#DejaVuSans-5d" x="1420.064453"/>
     </g>
    </g>
   </g>
   <g id="matplotlib.axis_4">
    <g id="ytick_1">
     <g id="line2d_46">
      <path d="M 253.291364 161.238861 
L 531.703636 161.238861 
" clip-path="url(#p40d4d2b95e)" style="fill: none; stroke: #e1e0d9; stroke-width: 0.6; stroke-linecap: round"/>
     </g>
     <g id="line2d_47">
      <defs>
       <path id="m4f47e69097" d="M 0 0 
L -3.5 0 
" style="stroke: #c3c2b7; stroke-width: 0.8"/>
      </defs>
      <g>
       <use xlink:href="#m4f47e69097" x="253.291364" y="161.238861" style="fill: #c3c2b7; stroke: #c3c2b7; stroke-width: 0.8"/>
      </g>
     </g>
     <g id="text_12">
      <!-- $\mathdefault{0}$ -->
      <g style="fill: #52514e" transform="translate(241.171364 164.278236)scale(0.08 -0.08)">
       <use xlink:href="#DejaVuSans-30" transform="translate(0 0.78125)"/>
      </g>
     </g>
    </g>
    <g id="ytick_2">
     <g id="line2d_48">
      <path d="M 253.291364 140.641873 
L 531.703636 140.641873 
" clip-path="url(#p40d4d2b95e)" style="fill: none; stroke: #e1e0d9; stroke-width: 0.6; stroke-linecap: round"/>
     </g>
     <g id="line2d_49">
      <g>
       <use xlink:href="#m4f47e69097" x="253.291364" y="140.641873" style="fill: #c3c2b7; stroke: #c3c2b7; stroke-width: 0.8"/>
      </g>
     </g>
     <g id="text_13">
      <!-- $\mathdefault{1}$ -->
      <g style="fill: #52514e" transform="translate(241.171364 143.681248)scale(0.08 -0.08)">
       <use xlink:href="#DejaVuSans-31" transform="translate(0 0.09375)"/>
      </g>
     </g>
    </g>
    <g id="ytick_3">
     <g id="line2d_50">
      <path d="M 253.291364 120.044885 
L 531.703636 120.044885 
" clip-path="url(#p40d4d2b95e)" style="fill: none; stroke: #e1e0d9; stroke-width: 0.6; stroke-linecap: round"/>
     </g>
     <g id="line2d_51">
      <g>
       <use xlink:href="#m4f47e69097" x="253.291364" y="120.044885" style="fill: #c3c2b7; stroke: #c3c2b7; stroke-width: 0.8"/>
      </g>
     </g>
     <g id="text_14">
      <!-- $\mathdefault{2}$ -->
      <g style="fill: #52514e" transform="translate(241.171364 123.08426)scale(0.08 -0.08)">
       <use xlink:href="#DejaVuSans-32" transform="translate(0 0.78125)"/>
      </g>
     </g>
    </g>
    <g id="ytick_4">
     <g id="line2d_52">
      <path d="M 253.291364 99.447896 
L 531.703636 99.447896 
" clip-path="url(#p40d4d2b95e)" style="fill: none; stroke: #e1e0d9; stroke-width: 0.6; stroke-linecap: round"/>
     </g>
     <g id="line2d_53">
      <g>
       <use xlink:href="#m4f47e69097" x="253.291364" y="99.447896" style="fill: #c3c2b7; stroke: #c3c2b7; stroke-width: 0.8"/>
      </g>
     </g>
     <g id="text_15">
      <!-- $\mathdefault{3}$ -->
      <g style="fill: #52514e" transform="translate(241.171364 102.487271)scale(0.08 -0.08)">
       <defs>
        <path id="DejaVuSans-33" d="M 2597 2516 
Q 3050 2419 3304 2112 
Q 3559 1806 3559 1356 
Q 3559 666 3084 287 
Q 2609 -91 1734 -91 
Q 1441 -91 1130 -33 
Q 819 25 488 141 
L 488 750 
Q 750 597 1062 519 
Q 1375 441 1716 441 
Q 2309 441 2620 675 
Q 2931 909 2931 1356 
Q 2931 1769 2642 2001 
Q 2353 2234 1838 2234 
L 1294 2234 
L 1294 2753 
L 1863 2753 
Q 2328 2753 2575 2939 
Q 2822 3125 2822 3475 
Q 2822 3834 2567 4026 
Q 2313 4219 1838 4219 
Q 1578 4219 1281 4162 
Q 984 4106 628 3988 
L 628 4550 
Q 988 4650 1302 4700 
Q 1616 4750 1894 4750 
Q 2613 4750 3031 4423 
Q 3450 4097 3450 3541 
Q 3450 3153 3228 2886 
Q 3006 2619 2597 2516 
z
" transform="scale(0.015625)"/>
       </defs>
       <use xlink:href="#DejaVuSans-33" transform="translate(0 0.78125)"/>
      </g>
     </g>
    </g>
    <g id="ytick_5">
     <g id="line2d_54">
      <path d="M 253.291364 78.850908 
L 531.703636 78.850908 
" clip-path="url(#p40d4d2b95e)" style="fill: none; stroke: #e1e0d9; stroke-width: 0.6; stroke-linecap: round"/>
     </g>
     <g id="line2d_55">
      <g>
       <use xlink:href="#m4f47e69097" x="253.291364" y="78.850908" style="fill: #c3c2b7; stroke: #c3c2b7; stroke-width: 0.8"/>
      </g>
     </g>
     <g id="text_16">
      <!-- $\mathdefault{4}$ -->
      <g style="fill: #52514e" transform="translate(241.171364 81.890283)scale(0.08 -0.08)">
       <use xlink:href="#DejaVuSans-34" transform="translate(0 0.09375)"/>
      </g>
     </g>
    </g>
    <g id="ytick_6">
     <g id="line2d_56">
      <path d="M 253.291364 58.25392 
L 531.703636 58.25392 
" clip-path="url(#p40d4d2b95e)" style="fill: none; stroke: #e1e0d9; stroke-width: 0.6; stroke-linecap: round"/>
     </g>
     <g id="line2d_57">
      <g>
       <use xlink:href="#m4f47e69097" x="253.291364" y="58.25392" style="fill: #c3c2b7; stroke: #c3c2b7; stroke-width: 0.8"/>
      </g>
     </g>
     <g id="text_17">
      <!-- $\mathdefault{5}$ -->
      <g style="fill: #52514e" transform="translate(241.171364 61.293295)scale(0.08 -0.08)">
       <use xlink:href="#DejaVuSans-35" transform="translate(0 0.09375)"/>
      </g>
     </g>
    </g>
    <g id="ytick_7">
     <g id="line2d_58">
      <path d="M 253.291364 37.656932 
L 531.703636 37.656932 
" clip-path="url(#p40d4d2b95e)" style="fill: none; stroke: #e1e0d9; stroke-width: 0.6; stroke-linecap: round"/>
     </g>
     <g id="line2d_59">
      <g>
       <use xlink:href="#m4f47e69097" x="253.291364" y="37.656932" style="fill: #c3c2b7; stroke: #c3c2b7; stroke-width: 0.8"/>
      </g>
     </g>
     <g id="text_18">
      <!-- $\mathdefault{6}$ -->
      <g style="fill: #52514e" transform="translate(241.171364 40.696307)scale(0.08 -0.08)">
       <defs>
        <path id="DejaVuSans-36" d="M 2113 2584 
Q 1688 2584 1439 2293 
Q 1191 2003 1191 1497 
Q 1191 994 1439 701 
Q 1688 409 2113 409 
Q 2538 409 2786 701 
Q 3034 994 3034 1497 
Q 3034 2003 2786 2293 
Q 2538 2584 2113 2584 
z
M 3366 4563 
L 3366 3988 
Q 3128 4100 2886 4159 
Q 2644 4219 2406 4219 
Q 1781 4219 1451 3797 
Q 1122 3375 1075 2522 
Q 1259 2794 1537 2939 
Q 1816 3084 2150 3084 
Q 2853 3084 3261 2657 
Q 3669 2231 3669 1497 
Q 3669 778 3244 343 
Q 2819 -91 2113 -91 
Q 1303 -91 875 529 
Q 447 1150 447 2328 
Q 447 3434 972 4092 
Q 1497 4750 2381 4750 
Q 2619 4750 2861 4703 
Q 3103 4656 3366 4563 
z
" transform="scale(0.015625)"/>
       </defs>
       <use xlink:href="#DejaVuSans-36" transform="translate(0 0.78125)"/>
      </g>
     </g>
    </g>
    <g id="text_19">
     <!-- seats of the next straight visible -->
     <g style="fill: #52514e" transform="translate(235.299645 170.032963)rotate(-90)scale(0.09 -0.09)">
      <defs>
       <path id="DejaVuSans-78" d="M 3513 3500 
L 2247 1797 
L 3578 0 
L 2900 0 
L 1881 1375 
L 863 0 
L 184 0 
L 1544 1831 
L 300 3500 
L 978 3500 
L 1906 2253 
L 2834 3500 
L 3513 3500 
z
" transform="scale(0.015625)"/>
       <path id="DejaVuSans-76" d="M 191 3500 
L 800 3500 
L 1894 563 
L 2988 3500 
L 3597 3500 
L 2284 0 
L 1503 0 
L 191 3500 
z
" transform="scale(0.015625)"/>
      </defs>
      <use xlink:href="#DejaVuSans-73"/>
      <use xlink:href="#DejaVuSans-65" x="52.099609"/>
      <use xlink:href="#DejaVuSans-61" x="113.623047"/>
      <use xlink:href="#DejaVuSans-74" x="174.902344"/>
      <use xlink:href="#DejaVuSans-73" x="214.111328"/>
      <use xlink:href="#DejaVuSans-20" x="266.210938"/>
      <use xlink:href="#DejaVuSans-6f" x="297.998047"/>
      <use xlink:href="#DejaVuSans-66" x="359.179688"/>
      <use xlink:href="#DejaVuSans-20" x="394.384766"/>
      <use xlink:href="#DejaVuSans-74" x="426.171875"/>
      <use xlink:href="#DejaVuSans-68" x="465.380859"/>
      <use xlink:href="#DejaVuSans-65" x="528.759766"/>
      <use xlink:href="#DejaVuSans-20" x="590.283203"/>
      <use xlink:href="#DejaVuSans-6e" x="622.070312"/>
      <use xlink:href="#DejaVuSans-65" x="685.449219"/>
      <use xlink:href="#DejaVuSans-78" x="745.222656"/>
      <use xlink:href="#DejaVuSans-74" x="804.402344"/>
      <use xlink:href="#DejaVuSans-20" x="843.611328"/>
      <use xlink:href="#DejaVuSans-73" x="875.398438"/>
      <use xlink:href="#DejaVuSans-74" x="927.498047"/>
      <use xlink:href="#DejaVuSans-72" x="966.707031"/>
      <use xlink:href="#DejaVuSans-61" x="1007.820312"/>
      <use xlink:href="#DejaVuSans-69" x="1069.099609"/>
      <use xlink:href="#DejaVuSans-67" x="1096.882812"/>
      <use xlink:href="#DejaVuSans-68" x="1160.359375"/>
      <use xlink:href="#DejaVuSans-74" x="1223.738281"/>
      <use xlink:href="#DejaVuSans-20" x="1262.947266"/>
      <use xlink:href="#DejaVuSans-76" x="1294.734375"/>
      <use xlink:href="#DejaVuSans-69" x="1353.914062"/>
      <use xlink:href="#DejaVuSans-73" x="1381.697266"/>
      <use xlink:href="#DejaVuSans-69" x="1433.796875"/>
      <use xlink:href="#DejaVuSans-62" x="1461.580078"/>
      <use xlink:href="#DejaVuSans-6c" x="1525.056641"/>
      <use xlink:href="#DejaVuSans-65" x="1552.839844"/>
     </g>
    </g>
   </g>
   <g id="line2d_60">
    <path d="M 519.048533 58.25392 
L 517.240661 58.25392 
L 517.240661 37.656932 
L 409.973595 37.656932 
L 409.973595 58.25392 
L 397.921116 58.25392 
L 397.921116 78.850908 
L 384.663388 78.850908 
L 384.663388 99.447896 
L 359.353182 99.447896 
L 359.353182 120.044885 
L 265.946467 120.044885 
L 265.946467 120.044885 
" clip-path="url(#p40d4d2b95e)" style="fill: none; stroke: #2a78d6; stroke-width: 2.6; stroke-linecap: round"/>
   </g>
   <g id="line2d_61">
    <path d="M 519.048533 58.25392 
L 517.240661 58.25392 
L 517.240661 37.656932 
L 440.104793 37.656932 
L 440.104793 58.25392 
L 415.999835 58.25392 
L 415.999835 78.850908 
L 384.663388 78.850908 
L 384.663388 99.447896 
L 359.353182 99.447896 
L 359.353182 120.044885 
L 324.400992 120.044885 
L 324.400992 140.641873 
L 300.296033 140.641873 
L 300.296033 161.238861 
L 265.946467 161.238861 
L 265.946467 161.238861 
" clip-path="url(#p40d4d2b95e)" style="fill: none; stroke-dasharray: 9.62,4.16; stroke-dashoffset: 0; stroke: #2a78d6; stroke-width: 2.6"/>
   </g>
   <g id="line2d_62">
    <path d="M 519.048533 161.238861 
L 472.646488 161.238861 
L 472.646488 140.641873 
L 448.541529 140.641873 
L 448.541529 120.044885 
L 437.694298 120.044885 
L 437.694298 99.447896 
L 413.589339 99.447896 
L 413.589339 78.850908 
L 402.742107 78.850908 
L 402.742107 58.25392 
L 397.921116 58.25392 
L 397.921116 78.850908 
L 384.663388 78.850908 
L 384.663388 99.447896 
L 359.353182 99.447896 
L 359.353182 120.044885 
L 265.946467 120.044885 
L 265.946467 120.044885 
" clip-path="url(#p40d4d2b95e)" style="fill: none; stroke: #eb6834; stroke-width: 1.3; stroke-linecap: round"/>
   </g>
   <g id="line2d_63">
    <path d="M 519.048533 161.238861 
L 472.646488 161.238861 
L 472.646488 140.641873 
L 448.541529 140.641873 
L 448.541529 120.044885 
L 437.694298 120.044885 
L 437.694298 99.447896 
L 413.589339 99.447896 
L 413.589339 78.850908 
L 384.663388 78.850908 
L 384.663388 99.447896 
L 359.353182 99.447896 
L 359.353182 120.044885 
L 324.400992 120.044885 
L 324.400992 140.641873 
L 300.296033 140.641873 
L 300.296033 161.238861 
L 265.946467 161.238861 
L 265.946467 161.238861 
" clip-path="url(#p40d4d2b95e)" style="fill: none; stroke-dasharray: 4.81,2.08; stroke-dashoffset: 0; stroke: #eb6834; stroke-width: 1.3"/>
   </g>
   <g id="patch_6">
    <path d="M 253.291364 167.417957 
L 253.291364 27.358437 
" style="fill: none; stroke: #c3c2b7; stroke-width: 0.8; stroke-linejoin: miter; stroke-linecap: square"/>
   </g>
   <g id="patch_7">
    <path d="M 253.291364 167.417957 
L 531.703636 167.417957 
" style="fill: none; stroke: #c3c2b7; stroke-width: 0.8; stroke-linejoin: miter; stroke-linecap: square"/>
   </g>
   <g id="line2d_64">
    <path d="M 422.628698 167.417957 
L 422.628698 27.358437 
" clip-path="url(#p40d4d2b95e)" style="fill: none; stroke: #898781; stroke-width: 0.9; stroke-linecap: round"/>
   </g>
   <g id="line2d_65">
    <path d="M 332.235103 167.417957 
L 332.235103 27.358437 
" clip-path="url(#p40d4d2b95e)" style="fill: none; stroke: #898781; stroke-width: 0.9; stroke-linecap: round"/>
   </g>
   <g id="text_20">
    <!-- Seats seen before the corner -->
    <g style="fill: #0b0b0b" transform="translate(253.291364 13.358437)scale(0.1 -0.1)">
     <defs>
      <path id="DejaVuSans-Bold-53" d="M 3834 4519 
L 3834 3531 
Q 3450 3703 3084 3790 
Q 2719 3878 2394 3878 
Q 1963 3878 1756 3759 
Q 1550 3641 1550 3391 
Q 1550 3203 1689 3098 
Q 1828 2994 2194 2919 
L 2706 2816 
Q 3484 2659 3812 2340 
Q 4141 2022 4141 1434 
Q 4141 663 3683 286 
Q 3225 -91 2284 -91 
Q 1841 -91 1394 -6 
Q 947 78 500 244 
L 500 1259 
Q 947 1022 1364 901 
Q 1781 781 2169 781 
Q 2563 781 2772 912 
Q 2981 1044 2981 1288 
Q 2981 1506 2839 1625 
Q 2697 1744 2272 1838 
L 1806 1941 
Q 1106 2091 782 2419 
Q 459 2747 459 3303 
Q 459 4000 909 4375 
Q 1359 4750 2203 4750 
Q 2588 4750 2994 4692 
Q 3400 4634 3834 4519 
z
" transform="scale(0.015625)"/>
      <path id="DejaVuSans-Bold-62" d="M 2400 722 
Q 2759 722 2948 984 
Q 3138 1247 3138 1747 
Q 3138 2247 2948 2509 
Q 2759 2772 2400 2772 
Q 2041 2772 1848 2508 
Q 1656 2244 1656 1747 
Q 1656 1250 1848 986 
Q 2041 722 2400 722 
z
M 1656 2988 
Q 1888 3294 2169 3439 
Q 2450 3584 2816 3584 
Q 3463 3584 3878 3070 
Q 4294 2556 4294 1747 
Q 4294 938 3878 423 
Q 3463 -91 2816 -91 
Q 2450 -91 2169 54 
Q 1888 200 1656 506 
L 1656 0 
L 538 0 
L 538 4863 
L 1656 4863 
L 1656 2988 
z
" transform="scale(0.015625)"/>
      <path id="DejaVuSans-Bold-66" d="M 2841 4863 
L 2841 4128 
L 2222 4128 
Q 1984 4128 1890 4042 
Q 1797 3956 1797 3744 
L 1797 3500 
L 2753 3500 
L 2753 2700 
L 1797 2700 
L 1797 0 
L 678 0 
L 678 2700 
L 122 2700 
L 122 3500 
L 678 3500 
L 678 3744 
Q 678 4316 997 4589 
Q 1316 4863 1984 4863 
L 2841 4863 
z
" transform="scale(0.015625)"/>
      <path id="DejaVuSans-Bold-6f" d="M 2203 2784 
Q 1831 2784 1636 2517 
Q 1441 2250 1441 1747 
Q 1441 1244 1636 976 
Q 1831 709 2203 709 
Q 2569 709 2762 976 
Q 2956 1244 2956 1747 
Q 2956 2250 2762 2517 
Q 2569 2784 2203 2784 
z
M 2203 3584 
Q 3106 3584 3614 3096 
Q 4122 2609 4122 1747 
Q 4122 884 3614 396 
Q 3106 -91 2203 -91 
Q 1297 -91 786 396 
Q 275 884 275 1747 
Q 275 2609 786 3096 
Q 1297 3584 2203 3584 
z
" transform="scale(0.015625)"/>
      <path id="DejaVuSans-Bold-72" d="M 3138 2547 
Q 2991 2616 2845 2648 
Q 2700 2681 2553 2681 
Q 2122 2681 1889 2404 
Q 1656 2128 1656 1613 
L 1656 0 
L 538 0 
L 538 3500 
L 1656 3500 
L 1656 2925 
Q 1872 3269 2151 3426 
Q 2431 3584 2822 3584 
Q 2878 3584 2943 3579 
Q 3009 3575 3134 3559 
L 3138 2547 
z
" transform="scale(0.015625)"/>
     </defs>
     <use xlink:href="#DejaVuSans-Bold-53"/>
     <use xlink:href="#DejaVuSans-Bold-65" x="72.021484"/>
     <use xlink:href="#DejaVuSans-Bold-61" x="139.84375"/>
     <use xlink:href="#DejaVuSans-Bold-74" x="207.324219"/>
     <use xlink:href="#DejaVuSans-Bold-73" x="255.126953"/>
     <use xlink:href="#DejaVuSans-Bold-20" x="314.648438"/>
     <use xlink:href="#DejaVuSans-Bold-73" x="349.462891"/>
     <use xlink:href="#DejaVuSans-Bold-65" x="408.984375"/>
     <use xlink:href="#DejaVuSans-Bold-65" x="476.806641"/>
     <use xlink:href="#DejaVuSans-Bold-6e" x="544.628906"/>
     <use xlink:href="#DejaVuSans-Bold-20" x="615.820312"/>
     <use xlink:href="#DejaVuSans-Bold-62" x="650.634766"/>
     <use xlink:href="#DejaVuSans-Bold-65" x="722.216797"/>
     <use xlink:href="#DejaVuSans-Bold-66" x="790.039062"/>
     <use xlink:href="#DejaVuSans-Bold-6f" x="833.544922"/>
     <use xlink:href="#DejaVuSans-Bold-72" x="902.246094"/>
     <use xlink:href="#DejaVuSans-Bold-65" x="951.5625"/>
     <use xlink:href="#DejaVuSans-Bold-20" x="1019.384766"/>
     <use xlink:href="#DejaVuSans-Bold-74" x="1054.199219"/>
     <use xlink:href="#DejaVuSans-Bold-68" x="1102.001953"/>
     <use xlink:href="#DejaVuSans-Bold-65" x="1173.193359"/>
     <use xlink:href="#DejaVuSans-Bold-20" x="1241.015625"/>
     <use xlink:href="#DejaVuSans-Bold-63" x="1275.830078"/>
     <use xlink:href="#DejaVuSans-Bold-6f" x="1335.107422"/>
     <use xlink:href="#DejaVuSans-Bold-72" x="1403.808594"/>
     <use xlink:href="#DejaVuSans-Bold-6e" x="1453.125"/>
     <use xlink:href="#DejaVuSans-Bold-65" x="1524.316406"/>
     <use xlink:href="#DejaVuSans-Bold-72" x="1592.138672"/>
    </g>
   </g>
   <g id="text_21">
    <!--  scan halt -->
    <g style="fill: #52514e" transform="translate(422.628698 36.796741)scale(0.07 -0.07)">
     <use xlink:href="#DejaVuSans-20"/>
     <use xlink:href="#DejaVuSans-73" x="31.787109"/>
     <use xlink:href="#DejaVuSans-63" x="83.886719"/>
     <use xlink:href="#DejaVuSans-61" x="138.867188"/>
     <use xlink:href="#DejaVuSans-6e" x="200.146484"/>
     <use xlink:href="#DejaVuSans-20" x="263.525391"/>
     <use xlink:href="#DejaVuSans-68" x="295.3125"/>
     <use xlink:href="#DejaVuSans-61" x="358.691406"/>
     <use xlink:href="#DejaVuSans-6c" x="419.970703"/>
     <use xlink:href="#DejaVuSans-74" x="447.753906"/>
    </g>
   </g>
   <g id="text_22">
    <!--  look-ahead halt -->
    <g style="fill: #52514e" transform="translate(332.235103 36.796741)scale(0.07 -0.07)">
     <defs>
      <path id="DejaVuSans-6b" d="M 581 4863 
L 1159 4863 
L 1159 1991 
L 2875 3500 
L 3609 3500 
L 1753 1863 
L 3688 0 
L 2938 0 
L 1159 1709 
L 1159 0 
L 581 0 
L 581 4863 
z
" transform="scale(0.015625)"/>
      <path id="DejaVuSans-2d" d="M 313 2009 
L 1997 2009 
L 1997 1497 
L 313 1497 
L 313 2009 
z
" transform="scale(0.015625)"/>
     </defs>
     <use xlink:href="#DejaVuSans-20"/>
     <use xlink:href="#DejaVuSans-6c" x="31.787109"/>
     <use xlink:href="#DejaVuSans-6f" x="59.570312"/>
     <use xlink:href="#DejaVuSans-6f" x="120.751953"/>
     <use xlink:href="#DejaVuSans-6b" x="181.933594"/>
     <use xlink:href="#DejaVuSans-2d" x="239.84375"/>
     <use xlink:href="#DejaVuSans-61" x="275.927734"/>
     <use xlink:href="#DejaVuSans-68" x="337.207031"/>
     <use xlink:href="#DejaVuSans-65" x="400.585938"/>
     <use xlink:href="#DejaVuSans-61" x="462.109375"/>
     <use xlink:href="#DejaVuSans-64" x="523.388672"/>
     <use xlink:href="#DejaVuSans-20" x="586.865234"/>
     <use xlink:href="#DejaVuSans-68" x="618.652344"/>
     <use xlink:href="#DejaVuSans-61" x="682.03125"/>
     <use xlink:href="#DejaVuSans-6c" x="743.310547"/>
     <use xlink:href="#DejaVuSans-74" x="771.09375"/>
    </g>
   </g>
   <g id="legend_2">
    <g id="line2d_66">
     <path d="M 242.855 204.709802 
L 246.855 204.709802 
L 246.855 204.709802 
L 254.855 204.709802 
L 254.855 204.709802 
L 258.855 204.709802 
" style="fill: none; stroke: #2a78d6; stroke-width: 2.6; stroke-linecap: round"/>
    </g>
    <g id="text_23">
     <!-- 240 deg -->
     <g style="fill: #52514e" transform="translate(265.255 207.509802)scale(0.08 -0.08)">
      <use xlink:href="#DejaVuSans-32"/>
      <use xlink:href="#DejaVuSans-34" x="63.623047"/>
      <use xlink:href="#DejaVuSans-30" x="127.246094"/>
      <use xlink:href="#DejaVuSans-20" x="190.869141"/>
      <use xlink:href="#DejaVuSans-64" x="222.65625"/>
      <use xlink:href="#DejaVuSans-65" x="286.132812"/>
      <use xlink:href="#DejaVuSans-67" x="347.65625"/>
     </g>
    </g>
    <g id="line2d_67">
     <path d="M 242.855 216.452302 
L 246.855 216.452302 
L 246.855 216.452302 
L 254.855 216.452302 
L 254.855 216.452302 
L 258.855 216.452302 
" style="fill: none; stroke-dasharray: 9.62,4.16; stroke-dashoffset: 0; stroke: #2a78d6; stroke-width: 2.6"/>
    </g>
    <g id="text_24">
     <!-- 240 deg, colour range 1.60 m -->
     <g style="fill: #52514e" transform="translate(265.255 219.252302)scale(0.08 -0.08)">
      <defs>
       <path id="DejaVuSans-2c" d="M 750 794 
L 1409 794 
L 1409 256 
L 897 -744 
L 494 -744 
L 750 256 
L 750 794 
z
" transform="scale(0.015625)"/>
       <path id="DejaVuSans-75" d="M 544 1381 
L 544 3500 
L 1119 3500 
L 1119 1403 
Q 1119 906 1312 657 
Q 1506 409 1894 409 
Q 2359 409 2629 706 
Q 2900 1003 2900 1516 
L 2900 3500 
L 3475 3500 
L 3475 0 
L 2900 0 
L 2900 538 
Q 2691 219 2414 64 
Q 2138 -91 1772 -91 
Q 1169 -91 856 284 
Q 544 659 544 1381 
z
M 1991 3584 
L 1991 3584 
z
" transform="scale(0.015625)"/>
      </defs>
      <use xlink:href="#DejaVuSans-32"/>
      <use xlink:href="#DejaVuSans-34" x="63.623047"/>
      <use xlink:href="#DejaVuSans-30" x="127.246094"/>
      <use xlink:href="#DejaVuSans-20" x="190.869141"/>
      <use xlink:href="#DejaVuSans-64" x="222.65625"/>
      <use xlink:href="#DejaVuSans-65" x="286.132812"/>
      <use xlink:href="#DejaVuSans-67" x="347.65625"/>
      <use xlink:href="#DejaVuSans-2c" x="411.132812"/>
      <use xlink:href="#DejaVuSans-20" x="442.919922"/>
      <use xlink:href="#DejaVuSans-63" x="474.707031"/>
      <use xlink:href="#DejaVuSans-6f" x="529.6875"/>
      <use xlink:href="#DejaVuSans-6c" x="590.869141"/>
      <use xlink:href="#DejaVuSans-6f" x="618.652344"/>
      <use xlink:href="#DejaVuSans-75" x="679.833984"/>
      <use xlink:href="#DejaVuSans-72" x="743.212891"/>
      <use xlink:href="#DejaVuSans-20" x="784.326172"/>
      <use xlink:href="#DejaVuSans-72" x="816.113281"/>
      <use xlink:href="#DejaVuSans-61" x="857.226562"/>
      <use xlink:href="#DejaVuSans-6e" x="918.505859"/>
      <use xlink:href="#DejaVuSans-67" x="981.884766"/>
      <use xlink:href="#DejaVuSans-65" x="1045.361328"/>
      <use xlink:href="#DejaVuSans-20" x="1106.884766"/>
      <use xlink:href="#DejaVuSans-31" x="1138.671875"/>
      <use xlink:href="#DejaVuSans-2e" x="1202.294922"/>
      <use xlink:href="#DejaVuSans-36" x="1234.082031"/>
      <use xlink:href="#DejaVuSans-30" x="1297.705078"/>
      <use xlink:href="#DejaVuSans-20" x="1361.328125"/>
      <use xlink:href="#DejaVuSans-6d" x="1393.115234"/>
     </g>
    </g>
    <g id="line2d_68">
     <path d="M 400.4975 204.709802 
L 404.4975 204.709802 
L 404.4975 204.709802 
L 412.4975 204.709802 
L 412.4975 204.709802 
L 416.4975 204.709802 
" style="fill: none; stroke: #eb6834; stroke-width: 1.3; stroke-linecap: round"/>
    </g>
    <g id="text_25">
     <!-- 120 deg -->
     <g style="fill: #52514e" transform="translate(422.8975 207.509802)scale(0.08 -0.08)">
      <use xlink:href="#DejaVuSans-31"/>
      <use xlink:href="#DejaVuSans-32" x="63.623047"/>
      <use xlink:href="#DejaVuSans-30" x="127.246094"/>
      <use xlink:href="#DejaVuSans-20" x="190.869141"/>
      <use xlink:href="#DejaVuSans-64" x="222.65625"/>
      <use xlink:href="#DejaVuSans-65" x="286.132812"/>
      <use xlink:href="#DejaVuSans-67" x="347.65625"/>
     </g>
    </g>
    <g id="line2d_69">
     <path d="M 400.4975 216.452302 
L 404.4975 216.452302 
L 404.4975 216.452302 
L 412.4975 216.452302 
L 412.4975 216.452302 
L 416.4975 216.452302 
" style="fill: none; stroke-dasharray: 4.81,2.08; stroke-dashoffset: 0; stroke: #eb6834; stroke-width: 1.3"/>
    </g>
    <g id="text_26">
     <!-- 120 deg, colour range 1.60 m -->
     <g style="fill: #52514e" transform="translate(422.8975 219.252302)scale(0.08 -0.08)">
      <use xlink:href="#DejaVuSans-31"/>
      <use xlink:href="#DejaVuSans-32" x="63.623047"/>
      <use xlink:href="#DejaVuSans-30" x="127.246094"/>
      <use xlink:href="#DejaVuSans-20" x="190.869141"/>
      <use xlink:href="#DejaVuSans-64" x="222.65625"/>
      <use xlink:href="#DejaVuSans-65" x="286.132812"/>
      <use xlink:href="#DejaVuSans-67" x="347.65625"/>
      <use xlink:href="#DejaVuSans-2c" x="411.132812"/>
      <use xlink:href="#DejaVuSans-20" x="442.919922"/>
      <use xlink:href="#DejaVuSans-63" x="474.707031"/>
      <use xlink:href="#DejaVuSans-6f" x="529.6875"/>
      <use xlink:href="#DejaVuSans-6c" x="590.869141"/>
      <use xlink:href="#DejaVuSans-6f" x="618.652344"/>
      <use xlink:href="#DejaVuSans-75" x="679.833984"/>
      <use xlink:href="#DejaVuSans-72" x="743.212891"/>
      <use xlink:href="#DejaVuSans-20" x="784.326172"/>
      <use xlink:href="#DejaVuSans-72" x="816.113281"/>
      <use xlink:href="#DejaVuSans-61" x="857.226562"/>
      <use xlink:href="#DejaVuSans-6e" x="918.505859"/>
      <use xlink:href="#DejaVuSans-67" x="981.884766"/>
      <use xlink:href="#DejaVuSans-65" x="1045.361328"/>
      <use xlink:href="#DejaVuSans-20" x="1106.884766"/>
      <use xlink:href="#DejaVuSans-31" x="1138.671875"/>
      <use xlink:href="#DejaVuSans-2e" x="1202.294922"/>
      <use xlink:href="#DejaVuSans-36" x="1234.082031"/>
      <use xlink:href="#DejaVuSans-30" x="1297.705078"/>
      <use xlink:href="#DejaVuSans-20" x="1361.328125"/>
      <use xlink:href="#DejaVuSans-6d" x="1393.115234"/>
     </g>
    </g>
   </g>
  </g>
  <g id="text_27">
   <!-- Geometry only: lane centre, camera at the LiDAR, pillars as points  |  plot_fov_coverage.py -->
   <g style="fill: #898781" transform="translate(5.76 252.490369)scale(0.07 -0.07)">
    <defs>
     <path id="DejaVuSans-47" d="M 3809 666 
L 3809 1919 
L 2778 1919 
L 2778 2438 
L 4434 2438 
L 4434 434 
Q 4069 175 3628 42 
Q 3188 -91 2688 -91 
Q 1594 -91 976 548 
Q 359 1188 359 2328 
Q 359 3472 976 4111 
Q 1594 4750 2688 4750 
Q 3144 4750 3555 4637 
Q 3966 4525 4313 4306 
L 4313 3634 
Q 3963 3931 3569 4081 
Q 3175 4231 2741 4231 
Q 1884 4231 1454 3753 
Q 1025 3275 1025 2328 
Q 1025 1384 1454 906 
Q 1884 428 2741 428 
Q 3075 428 3337 486 
Q 3600 544 3809 666 
z
" transform="scale(0.015625)"/>
     <path id="DejaVuSans-3a" d="M 750 794 
L 1409 794 
L 1409 0 
L 750 0 
L 750 794 
z
M 750 3309 
L 1409 3309 
L 1409 2516 
L 750 2516 
L 750 3309 
z
" transform="scale(0.015625)"/>
     <path id="DejaVuSans-4c" d="M 628 4666 
L 1259 4666 
L 1259 531 
L 3531 531 
L 3531 0 
L 628 0 
L 628 4666 
z
" transform="scale(0.015625)"/>
     <path id="DejaVuSans-44" d="M 1259 4147 
L 1259 519 
L 2022 519 
Q 2988 519 3436 956 
Q 3884 1394 3884 2338 
Q 3884 3275 3436 3711 
Q 2988 4147 2022 4147 
L 1259 4147 
z
M 628 4666 
L 1925 4666 
Q 3281 4666 3915 4102 
Q 4550 3538 4550 2338 
Q 4550 1131 3912 565 
Q 3275 0 1925 0 
L 628 0 
L 628 4666 
z
" transform="scale(0.015625)"/>
     <path id="DejaVuSans-41" d="M 2188 4044 
L 1331 1722 
L 3047 1722 
L 2188 4044 
z
M 1831 4666 
L 2547 4666 
L 4325 0 
L 3669 0 
L 3244 1197 
L 1141 1197 
L 716 0 
L 50 0 
L 1831 4666 
z
" transform="scale(0.015625)"/>
     <path id="DejaVuSans-52" d="M 2841 2188 
Q 3044 2119 3236 1894 
Q 3428 1669 3622 1275 
L 4263 0 
L 3584 0 
L 2988 1197 
Q 2756 1666 2539 1819 
Q 2322 1972 1947 1972 
L 1259 1972 
L 1259 0 
L 628 0 
L 628 4666 
L 2053 4666 
Q 2853 4666 3247 4331 
Q 3641 3997 3641 3322 
Q 3641 2881 3436 2590 
Q 3231 2300 2841 2188 
z
M 1259 4147 
L 1259 2491 
L 2053 2491 
Q 2509 2491 2742 2702 
Q 2975 2913 2975 3322 
Q 2975 3731 2742 3939 
Q 2509 4147 2053 4147 
L 1259 4147 
z
" transform="scale(0.015625)"/>
     <path id="DejaVuSans-70" d="M 1159 525 
L 1159 -1331 
L 581 -1331 
L 581 3500 
L 1159 3500 
L 1159 2969 
Q 1341 3281 1617 3432 
Q 1894 3584 2278 3584 
Q 2916 3584 3314 3078 
Q 3713 2572 3713 1747 
Q 3713 922 3314 415 
Q 2916 -91 2278 -91 
Q 1894 -91 1617 61 
Q 1341 213 1159 525 
z
M 3116 1747 
Q 3116 2381 2855 2742 
Q 2594 3103 2138 3103 
Q 1681 3103 1420 2742 
Q 1159 2381 1159 1747 
Q 1159 1113 1420 752 
Q 1681 391 2138 391 
Q 2594 391 2855 752 
Q 3116 1113 3116 1747 
z
" transform="scale(0.015625)"/>
     <path id="DejaVuSans-7c" d="M 1344 4891 
L 1344 -1509 
L 813 -1509 
L 813 4891 
L 1344 4891 
z
" transform="scale(0.015625)"/>
     <path id="DejaVuSans-5f" d="M 3263 -1063 
L 3263 -1509 
L -63 -1509 
L -63 -1063 
L 3263 -1063 
z
" transform="scale(0.015625)"/>
    </defs>
    <use xlink:href="#DejaVuSans-47"/>
    <use xlink:href="#DejaVuSans-65" x="77.490234"/>
    <use xlink:href="#DejaVuSans-6f" x="139.013672"/>
    <use xlink:href="#DejaVuSans-6d" x="200.195312"/>
    <use xlink:href="#DejaVuSans-65" x="297.607422"/>
    <use xlink:href="#DejaVuSans-74" x="359.130859"/>
    <use xlink:href="#DejaVuSans-72" x="398.339844"/>
    <use xlink:href="#DejaVuSans-79" x="439.453125"/>
    <use xlink:href="#DejaVuSans-20" x="498.632812"/>
    <use xlink:href="#DejaVuSans-6f" x="530.419922"/>
    <use xlink:href="#DejaVuSans-6e" x="591.601562"/>
    <use xlink:href="#DejaVuSans-6c" x="654.980469"/>
    <use xlink:href="#DejaVuSans-79" x="682.763672"/>
    <use xlink:href="#DejaVuSans-3a" x="734.693359"/>
    <use xlink:href="#DejaVuSans-20" x="768.384766"/>
    <use xlink:href="#DejaVuSans-6c" x="800.171875"/>
    <use xlink:href="#DejaVuSans-61" x="827.955078"/>
    <use xlink:href="#DejaVuSans-6e" x="889.234375"/>
    <use xlink:href="#DejaVuSans-65" x="952.613281"/>
    <use xlink:href="#DejaVuSans-20" x="1014.136719"/>
    <use xlink:href="#DejaVuSans-63" x="1045.923828"/>
    <use xlink:href="#DejaVuSans-65" x="1100.904297"/>
    <use xlink:href="#DejaVuSans-6e" x="1162.427734"/>
    <use xlink:href="#DejaVuSans-74" x="1225.806641"/>
    <use xlink:href="#DejaVuSans-72" x="1265.015625"/>
    <use xlink:href="#DejaVuSans-65" x="1303.878906"/>
    <use xlink:href="#DejaVuSans-2c" x="1365.402344"/>
    <use xlink:href="#DejaVuSans-20" x="1397.189453"/>
    <use xlink:href="#DejaVuSans-63" x="1428.976562"/>
    <use xlink:href="#DejaVuSans-61" x="1483.957031"/>
    <use xlink:href="#DejaVuSans-6d" x="1545.236328"/>
    <use xlink:href="#DejaVuSans-65" x="1642.648438"/>
    <use xlink:href="#DejaVuSans-72" x="1704.171875"/>
    <use xlink:href="#DejaVuSans-61" x="1745.285156"/>
    <use xlink:href="#DejaVuSans-20" x="1806.564453"/>
    <use xlink:href="#DejaVuSans-61" x="1838.351562"/>
    <use xlink:href="#DejaVuSans-74" x="1899.630859"/>
    <use xlink:href="#DejaVuSans-20" x="1938.839844"/>
    <use xlink:href="#DejaVuSans-74" x="1970.626953"/>
    <use xlink:href="#DejaVuSans-68" x="2009.835938"/>
    <use xlink:href="#DejaVuSans-65" x="2073.214844"/>
    <use xlink:href="#DejaVuSans-20" x="2134.738281"/>
    <use xlink:href="#DejaVuSans-4c" x="2166.525391"/>
    <use xlink:href="#DejaVuSans-69" x="2222.238281"/>
    <use xlink:href="#DejaVuSans-44" x="2250.021484"/>
    <use xlink:href="#DejaVuSans-41" x="2325.273438"/>
    <use xlink:href="#DejaVuSans-52" x="2393.681641"/>
    <use xlink:href="#DejaVuSans-2c" x="2463.164062"/>
    <use xlink:href="#DejaVuSans-20" x="2494.951172"/>
    <use xlink:href="#DejaVuSans-70" x="2526.738281"/>
    <use xlink:href="#DejaVuSans-69" x="2590.214844"/>
    <use xlink:href="#DejaVuSans-6c" x="2617.998047"/>
    <use xlink:href="#DejaVuSans-6c" x="2645.78125"/>
    <use xlink:href="#DejaVuSans-61" x="2673.564453"/>
    <use xlink:href="#DejaVuSans-72" x="2734.84375"/>
    <use xlink:href="#DejaVuSans-73" x="2775.957031"/>
    <use xlink:href="#DejaVuSans-20" x="2828.056641"/>
    <use xlink:href="#DejaVuSans-61" x="2859.84375"/>
    <use xlink:href="#DejaVuSans-73" x="2921.123047"/>
    <use xlink:href="#DejaVuSans-20" x="2973.222656"/>
    <use xlink:href="#DejaVuSans-70" x="3005.009766"/>
    <use xlink:href="#DejaVuSans-6f" x="3068.486328"/>
    <use xlink:href="#DejaVuSans-69" x="3129.667969"/>
    <use xlink:href="#DejaVuSans-6e" x="3157.451172"/>
    <use xlink:href="#DejaVuSans-74" x="3220.830078"/>
    <use xlink:href="#DejaVuSans-73" x="3260.039062"/>
    <use xlink:href="#DejaVuSans-20" x="3312.138672"/>
    <use xlink:href="#DejaVuSans-20" x="3343.925781"/>
    <use xlink:href="#DejaVuSans-7c" x="3375.712891"/>
    <use xlink:href="#DejaVuSans-20" x="3409.404297"/>
    <use xlink:href="#DejaVuSans-20" x="3441.191406"/>
    <use xlink:href="#DejaVuSans-70" x="3472.978516"/>
    <use xlink:href="#DejaVuSans-6c" x="3536.455078"/>
    <use xlink:href="#DejaVuSans-6f" x="3564.238281"/>
    <use xlink:href="#DejaVuSans-74" x="3625.419922"/>
    <use xlink:href="#DejaVuSans-5f" x="3664.628906"/>
    <use xlink:href="#DejaVuSans-66" x="3714.628906"/>
    <use xlink:href="#DejaVuSans-6f" x="3749.833984"/>
    <use xlink:href="#DejaVuSans-76" x="3811.015625"/>
    <use xlink:href="#DejaVuSans-5f" x="3870.195312"/>
    <use xlink:href="#DejaVuSans-63" x="3920.195312"/>
    <use xlink:href="#DejaVuSans-6f" x="3975.175781"/>
    <use xlink:href="#DejaVuSans-76" x="4036.357422"/>
    <use xlink:href="#DejaVuSans-65" x="4095.537109"/>
    <use xlink:href="#DejaVuSans-72" x="4157.060547"/>
    <use xlink:href="#DejaVuSans-61" x="4198.173828"/>
    <use xlink:href="#DejaVuSans-67" x="4259.453125"/>
    <use xlink:href="#DejaVuSans-65" x="4322.929688"/>
    <use xlink:href="#DejaVuSans-2e" x="4384.453125"/>
    <use xlink:href="#DejaVuSans-70" x="4416.240234"/>
    <use xlink:href="#DejaVuSans-79" x="4479.716797"/>
   </g>
  </g>
 </g>
 <defs>
  <clipPath id="pd11c9d3a33">
   <rect x="39.32774" y="27.358437" width="140.05952" height="140.05952"/>
  </clipPath>
  <clipPath id="p40d4d2b95e">
   <rect x="253.291364" y="27.358437" width="278.412273" height="140.05952"/>
  </clipPath>
 </defs>
</svg>
