<?xml version="1.0" encoding="utf-8" standalone="no"?>
<!DOCTYPE svg PUBLIC "-//W3C//DTD SVG 1.1//EN"
  "http://www.w3.org/Graphics/SVG/1.1/DTD/svg11.dtd">
<svg xmlns:xlink="http://www.w3.org/1999/xlink" width="647.46864pt" height="245.544037pt" viewBox="0 0 647.46864 245.544037" xmlns="http://www.w3.org/2000/svg" version="1.1">
 <metadata>
  <rdf:RDF xmlns:dc="http://purl.org/dc/elements/1.1/" xmlns:cc="http://creativecommons.org/ns#" xmlns:rdf="http://www.w3.org/1999/02/22-rdf-syntax-ns#">
   <cc:Work>
    <dc:type rdf:resource="http://purl.org/dc/dcmitype/StillImage"/>
    <dc:date>2026-09-29T20:36:40.910925</dc:date>
    <dc:format>image/svg+xml</dc:format>
    <dc:creator>
     <cc:Agent>
      <dc:title>Matplotlib v3.11.2, https://matplotlib.org/</dc:title>
     </cc:Agent>
    </dc:creator>
   </cc:Work>
  </rdf:RDF>
 </metadata>
 <defs>
  <style type="text/css">*{stroke-linejoin: round; stroke-linecap: butt}</style>
 </defs>
 <g id="figure_1">
  <g id="patch_1">
   <path d="M -0 245.544037 
L 647.46864 245.544037 
L 647.46864 -0 
L -0 -0 
z
" style="fill: #ffffff"/>
  </g>
  <g id="axes_1">
   <g id="patch_2">
    <path d="M 47.362109 165.959442 
L 175.753262 165.959442 
L 175.753262 27.358437 
L 47.362109 27.358437 
z
" style="fill: #ffffff"/>
   </g>
   <g id="matplotlib.axis_1">
    <g id="xtick_1">
     <g id="line2d_1">
      <path d="M 53.198071 165.959442 
L 53.198071 27.358437 
" clip-path="url(#p55e4569e19)" style="fill: none; stroke: #e1e0d9; stroke-width: 0.6; stroke-linecap: round"/>
     </g>
     <g id="line2d_2">
      <defs>
       <path id="m5e57a02975" d="M 0 0 
L 0 3.5 
" style="stroke: #c3c2b7; stroke-width: 0.8"/>
      </defs>
      <g>
       <use xlink:href="#m5e57a02975" x="53.198071" y="165.959442" style="fill: #c3c2b7; stroke: #c3c2b7; stroke-width: 0.8"/>
      </g>
     </g>
     <g id="text_1">
      <!-- $\mathdefault{−100}$ -->
      <g style="fill: #52514e" transform="translate(42.198071 179.037567) scale(0.08 -0.08)">
       <defs>
        <path id="DejaVuSans-c9c" d="M 678 2272 
L 4684 2272 
L 4684 1741 
L 678 1741 
L 678 2272 
z
" transform="scale(0.015625)"/>
        <path id="DejaVuSans-14" d="M 794 531 
L 1825 531 
L 1825 4091 
L 703 3866 
L 703 4441 
L 1819 4666 
L 2450 4666 
L 2450 531 
L 3481 531 
L 3481 0 
L 794 0 
L 794 531 
z
" transform="scale(0.015625)"/>
        <path id="DejaVuSans-13" d="M 2034 4250 
Q 1547 4250 1301 3770 
Q 1056 3291 1056 2328 
Q 1056 1369 1301 889 
Q 1547 409 2034 409 
Q 2525 409 2770 889 
Q 3016 1369 3016 2328 
Q 3016 3291 2770 3770 
Q 2525 4250 2034 4250 
z
M 2034 4750 
Q 2819 4750 3233 4129 
Q 3647 3509 3647 2328 
Q 3647 1150 3233 529 
Q 2819 -91 2034 -91 
Q 1250 -91 836 529 
Q 422 1150 422 2328 
Q 422 3509 836 4129 
Q 1250 4750 2034 4750 
z
" transform="scale(0.015625)"/>
       </defs>
       <use xlink:href="#DejaVuSans-c9c" transform="translate(0 0.78125)"/>
       <use xlink:href="#DejaVuSans-14" transform="translate(83.789062 0.78125)"/>
       <use xlink:href="#DejaVuSans-13" transform="translate(147.412109 0.78125)"/>
       <use xlink:href="#DejaVuSans-13" transform="translate(211.035156 0.78125)"/>
      </g>
     </g>
    </g>
    <g id="xtick_2">
     <g id="line2d_3">
      <path d="M 82.377878 165.959442 
L 82.377878 27.358437 
" clip-path="url(#p55e4569e19)" style="fill: none; stroke: #e1e0d9; stroke-width: 0.6; stroke-linecap: round"/>
     </g>
     <g id="line2d_4">
      <g>
       <use xlink:href="#m5e57a02975" x="82.377878" y="165.959442" style="fill: #c3c2b7; stroke: #c3c2b7; stroke-width: 0.8"/>
      </g>
     </g>
     <g id="text_2">
      <!-- $\mathdefault{−50}$ -->
      <g style="fill: #52514e" transform="translate(73.897878 179.037567) scale(0.08 -0.08)">
       <defs>
        <path id="DejaVuSans-18" d="M 691 4666 
L 3169 4666 
L 3169 4134 
L 1269 4134 
L 1269 2991 
Q 1406 3038 1543 3061 
Q 1681 3084 1819 3084 
Q 2600 3084 3056 2656 
Q 3513 2228 3513 1497 
Q 3513 744 3044 326 
Q 2575 -91 1722 -91 
Q 1428 -91 1123 -41 
Q 819 9 494 109 
L 494 744 
Q 775 591 1075 516 
Q 1375 441 1709 441 
Q 2250 441 2565 725 
Q 2881 1009 2881 1497 
Q 2881 1984 2565 2268 
Q 2250 2553 1709 2553 
Q 1456 2553 1204 2497 
Q 953 2441 691 2322 
L 691 4666 
z
" transform="scale(0.015625)"/>
       </defs>
       <use xlink:href="#DejaVuSans-c9c" transform="translate(0 0.78125)"/>
       <use xlink:href="#DejaVuSans-18" transform="translate(83.789062 0.78125)"/>
       <use xlink:href="#DejaVuSans-13" transform="translate(147.412109 0.78125)"/>
      </g>
     </g>
    </g>
    <g id="xtick_3">
     <g id="line2d_5">
      <path d="M 111.557686 165.959442 
L 111.557686 27.358437 
" clip-path="url(#p55e4569e19)" style="fill: none; stroke: #e1e0d9; stroke-width: 0.6; stroke-linecap: round"/>
     </g>
     <g id="line2d_6">
      <g>
       <use xlink:href="#m5e57a02975" x="111.557686" y="165.959442" style="fill: #c3c2b7; stroke: #c3c2b7; stroke-width: 0.8"/>
      </g>
     </g>
     <g id="text_3">
      <!-- $\mathdefault{0}$ -->
      <g style="fill: #52514e" transform="translate(108.997686 179.037567) scale(0.08 -0.08)">
       <use xlink:href="#DejaVuSans-13" transform="translate(0 0.78125)"/>
      </g>
     </g>
    </g>
    <g id="xtick_4">
     <g id="line2d_7">
      <path d="M 140.737493 165.959442 
L 140.737493 27.358437 
" clip-path="url(#p55e4569e19)" style="fill: none; stroke: #e1e0d9; stroke-width: 0.6; stroke-linecap: round"/>
     </g>
     <g id="line2d_8">
      <g>
       <use xlink:href="#m5e57a02975" x="140.737493" y="165.959442" style="fill: #c3c2b7; stroke: #c3c2b7; stroke-width: 0.8"/>
      </g>
     </g>
     <g id="text_4">
      <!-- $\mathdefault{50}$ -->
      <g style="fill: #52514e" transform="translate(135.617493 179.037567) scale(0.08 -0.08)">
       <use xlink:href="#DejaVuSans-18" transform="translate(0 0.78125)"/>
       <use xlink:href="#DejaVuSans-13" transform="translate(63.623047 0.78125)"/>
      </g>
     </g>
    </g>
    <g id="xtick_5">
     <g id="line2d_9">
      <path d="M 169.917301 165.959442 
L 169.917301 27.358437 
" clip-path="url(#p55e4569e19)" style="fill: none; stroke: #e1e0d9; stroke-width: 0.6; stroke-linecap: round"/>
     </g>
     <g id="line2d_10">
      <g>
       <use xlink:href="#m5e57a02975" x="169.917301" y="165.959442" style="fill: #c3c2b7; stroke: #c3c2b7; stroke-width: 0.8"/>
      </g>
     </g>
     <g id="text_5">
      <!-- $\mathdefault{100}$ -->
      <g style="fill: #52514e" transform="translate(162.277301 179.037567) scale(0.08 -0.08)">
       <use xlink:href="#DejaVuSans-14" transform="translate(0 0.78125)"/>
       <use xlink:href="#DejaVuSans-13" transform="translate(63.623047 0.78125)"/>
       <use xlink:href="#DejaVuSans-13" transform="translate(127.246094 0.78125)"/>
      </g>
     </g>
    </g>
    <g id="text_6">
     <!-- servo command [%]  (+ = left) -->
     <g style="fill: #52514e" transform="translate(42.007373 191.798036) scale(0.09 -0.09)">
      <defs>
       <path id="DejaVuSans-56" d="M 2834 3397 
L 2834 2853 
Q 2591 2978 2328 3040 
Q 2066 3103 1784 3103 
Q 1356 3103 1142 2972 
Q 928 2841 928 2578 
Q 928 2378 1081 2264 
Q 1234 2150 1697 2047 
L 1894 2003 
Q 2506 1872 2764 1633 
Q 3022 1394 3022 966 
Q 3022 478 2636 193 
Q 2250 -91 1575 -91 
Q 1294 -91 989 -36 
Q 684 19 347 128 
L 347 722 
Q 666 556 975 473 
Q 1284 391 1588 391 
Q 1994 391 2212 530 
Q 2431 669 2431 922 
Q 2431 1156 2273 1281 
Q 2116 1406 1581 1522 
L 1381 1569 
Q 847 1681 609 1914 
Q 372 2147 372 2553 
Q 372 3047 722 3315 
Q 1072 3584 1716 3584 
Q 2034 3584 2315 3537 
Q 2597 3491 2834 3397 
z
" transform="scale(0.015625)"/>
       <path id="DejaVuSans-48" d="M 3597 1894 
L 3597 1613 
L 953 1613 
Q 991 1019 1311 708 
Q 1631 397 2203 397 
Q 2534 397 2845 478 
Q 3156 559 3463 722 
L 3463 178 
Q 3153 47 2828 -22 
Q 2503 -91 2169 -91 
Q 1331 -91 842 396 
Q 353 884 353 1716 
Q 353 2575 817 3079 
Q 1281 3584 2069 3584 
Q 2775 3584 3186 3129 
Q 3597 2675 3597 1894 
z
M 3022 2063 
Q 3016 2534 2758 2815 
Q 2500 3097 2075 3097 
Q 1594 3097 1305 2825 
Q 1016 2553 972 2059 
L 3022 2063 
z
" transform="scale(0.015625)"/>
       <path id="DejaVuSans-55" d="M 2631 2963 
Q 2534 3019 2420 3045 
Q 2306 3072 2169 3072 
Q 1681 3072 1420 2755 
Q 1159 2438 1159 1844 
L 1159 0 
L 581 0 
L 581 3500 
L 1159 3500 
L 1159 2956 
Q 1341 3275 1631 3429 
Q 1922 3584 2338 3584 
Q 2397 3584 2469 3576 
Q 2541 3569 2628 3553 
L 2631 2963 
z
" transform="scale(0.015625)"/>
       <path id="DejaVuSans-59" d="M 191 3500 
L 800 3500 
L 1894 563 
L 2988 3500 
L 3597 3500 
L 2284 0 
L 1503 0 
L 191 3500 
z
" transform="scale(0.015625)"/>
       <path id="DejaVuSans-52" d="M 1959 3097 
Q 1497 3097 1228 2736 
Q 959 2375 959 1747 
Q 959 1119 1226 758 
Q 1494 397 1959 397 
Q 2419 397 2687 759 
Q 2956 1122 2956 1747 
Q 2956 2369 2687 2733 
Q 2419 3097 1959 3097 
z
M 1959 3584 
Q 2709 3584 3137 3096 
Q 3566 2609 3566 1747 
Q 3566 888 3137 398 
Q 2709 -91 1959 -91 
Q 1206 -91 779 398 
Q 353 888 353 1747 
Q 353 2609 779 3096 
Q 1206 3584 1959 3584 
z
" transform="scale(0.015625)"/>
       <path id="DejaVuSans-3" transform="scale(0.015625)"/>
       <path id="DejaVuSans-46" d="M 3122 3366 
L 3122 2828 
Q 2878 2963 2633 3030 
Q 2388 3097 2138 3097 
Q 1578 3097 1268 2742 
Q 959 2388 959 1747 
Q 959 1106 1268 751 
Q 1578 397 2138 397 
Q 2388 397 2633 464 
Q 2878 531 3122 666 
L 3122 134 
Q 2881 22 2623 -34 
Q 2366 -91 2075 -91 
Q 1284 -91 818 406 
Q 353 903 353 1747 
Q 353 2603 823 3093 
Q 1294 3584 2113 3584 
Q 2378 3584 2631 3529 
Q 2884 3475 3122 3366 
z
" transform="scale(0.015625)"/>
       <path id="DejaVuSans-50" d="M 3328 2828 
Q 3544 3216 3844 3400 
Q 4144 3584 4550 3584 
Q 5097 3584 5394 3201 
Q 5691 2819 5691 2113 
L 5691 0 
L 5113 0 
L 5113 2094 
Q 5113 2597 4934 2840 
Q 4756 3084 4391 3084 
Q 3944 3084 3684 2787 
Q 3425 2491 3425 1978 
L 3425 0 
L 2847 0 
L 2847 2094 
Q 2847 2600 2669 2842 
Q 2491 3084 2119 3084 
Q 1678 3084 1418 2786 
Q 1159 2488 1159 1978 
L 1159 0 
L 581 0 
L 581 3500 
L 1159 3500 
L 1159 2956 
Q 1356 3278 1631 3431 
Q 1906 3584 2284 3584 
Q 2666 3584 2933 3390 
Q 3200 3197 3328 2828 
z
" transform="scale(0.015625)"/>
       <path id="DejaVuSans-44" d="M 2194 1759 
Q 1497 1759 1228 1600 
Q 959 1441 959 1056 
Q 959 750 1161 570 
Q 1363 391 1709 391 
Q 2188 391 2477 730 
Q 2766 1069 2766 1631 
L 2766 1759 
L 2194 1759 
z
M 3341 1997 
L 3341 0 
L 2766 0 
L 2766 531 
Q 2569 213 2275 61 
Q 1981 -91 1556 -91 
Q 1019 -91 701 211 
Q 384 513 384 1019 
Q 384 1609 779 1909 
Q 1175 2209 1959 2209 
L 2766 2209 
L 2766 2266 
Q 2766 2663 2505 2880 
Q 2244 3097 1772 3097 
Q 1472 3097 1187 3025 
Q 903 2953 641 2809 
L 641 3341 
Q 956 3463 1253 3523 
Q 1550 3584 1831 3584 
Q 2591 3584 2966 3190 
Q 3341 2797 3341 1997 
z
" transform="scale(0.015625)"/>
       <path id="DejaVuSans-51" d="M 3513 2113 
L 3513 0 
L 2938 0 
L 2938 2094 
Q 2938 2591 2744 2837 
Q 2550 3084 2163 3084 
Q 1697 3084 1428 2787 
Q 1159 2491 1159 1978 
L 1159 0 
L 581 0 
L 581 3500 
L 1159 3500 
L 1159 2956 
Q 1366 3272 1645 3428 
Q 1925 3584 2291 3584 
Q 2894 3584 3203 3211 
Q 3513 2838 3513 2113 
z
" transform="scale(0.015625)"/>
       <path id="DejaVuSans-47" d="M 2906 2969 
L 2906 4863 
L 3481 4863 
L 3481 0 
L 2906 0 
L 2906 525 
Q 2725 213 2448 61 
Q 2172 -91 1784 -91 
Q 1150 -91 751 415 
Q 353 922 353 1747 
Q 353 2572 751 3078 
Q 1150 3584 1784 3584 
Q 2172 3584 2448 3432 
Q 2725 3281 2906 2969 
z
M 947 1747 
Q 947 1113 1208 752 
Q 1469 391 1925 391 
Q 2381 391 2643 752 
Q 2906 1113 2906 1747 
Q 2906 2381 2643 2742 
Q 2381 3103 1925 3103 
Q 1469 3103 1208 2742 
Q 947 2381 947 1747 
z
" transform="scale(0.015625)"/>
       <path id="DejaVuSans-3e" d="M 550 4863 
L 1875 4863 
L 1875 4416 
L 1125 4416 
L 1125 -397 
L 1875 -397 
L 1875 -844 
L 550 -844 
L 550 4863 
z
" transform="scale(0.015625)"/>
       <path id="DejaVuSans-8" d="M 4653 2053 
Q 4381 2053 4226 1822 
Q 4072 1591 4072 1178 
Q 4072 772 4226 539 
Q 4381 306 4653 306 
Q 4919 306 5073 539 
Q 5228 772 5228 1178 
Q 5228 1588 5073 1820 
Q 4919 2053 4653 2053 
z
M 4653 2450 
Q 5147 2450 5437 2106 
Q 5728 1763 5728 1178 
Q 5728 594 5436 251 
Q 5144 -91 4653 -91 
Q 4153 -91 3862 251 
Q 3572 594 3572 1178 
Q 3572 1766 3864 2108 
Q 4156 2450 4653 2450 
z
M 1428 4353 
Q 1159 4353 1004 4120 
Q 850 3888 850 3481 
Q 850 3069 1003 2837 
Q 1156 2606 1428 2606 
Q 1700 2606 1854 2837 
Q 2009 3069 2009 3481 
Q 2009 3884 1853 4118 
Q 1697 4353 1428 4353 
z
M 4250 4750 
L 4750 4750 
L 1831 -91 
L 1331 -91 
L 4250 4750 
z
M 1428 4750 
Q 1922 4750 2215 4408 
Q 2509 4066 2509 3481 
Q 2509 2891 2217 2550 
Q 1925 2209 1428 2209 
Q 931 2209 642 2551 
Q 353 2894 353 3481 
Q 353 4063 643 4406 
Q 934 4750 1428 4750 
z
" transform="scale(0.015625)"/>
       <path id="DejaVuSans-40" d="M 1947 4863 
L 1947 -844 
L 622 -844 
L 622 -397 
L 1369 -397 
L 1369 4416 
L 622 4416 
L 622 4863 
L 1947 4863 
z
" transform="scale(0.015625)"/>
       <path id="DejaVuSans-b" d="M 1984 4856 
Q 1566 4138 1362 3434 
Q 1159 2731 1159 2009 
Q 1159 1288 1364 580 
Q 1569 -128 1984 -844 
L 1484 -844 
Q 1016 -109 783 600 
Q 550 1309 550 2009 
Q 550 2706 781 3412 
Q 1013 4119 1484 4856 
L 1984 4856 
z
" transform="scale(0.015625)"/>
       <path id="DejaVuSans-e" d="M 2944 4013 
L 2944 2272 
L 4684 2272 
L 4684 1741 
L 2944 1741 
L 2944 0 
L 2419 0 
L 2419 1741 
L 678 1741 
L 678 2272 
L 2419 2272 
L 2419 4013 
L 2944 4013 
z
" transform="scale(0.015625)"/>
       <path id="DejaVuSans-20" d="M 678 2906 
L 4684 2906 
L 4684 2381 
L 678 2381 
L 678 2906 
z
M 678 1631 
L 4684 1631 
L 4684 1100 
L 678 1100 
L 678 1631 
z
" transform="scale(0.015625)"/>
       <path id="DejaVuSans-4f" d="M 603 4863 
L 1178 4863 
L 1178 0 
L 603 0 
L 603 4863 
z
" transform="scale(0.015625)"/>
       <path id="DejaVuSans-49" d="M 2375 4863 
L 2375 4384 
L 1825 4384 
Q 1516 4384 1395 4259 
Q 1275 4134 1275 3809 
L 1275 3500 
L 2222 3500 
L 2222 3053 
L 1275 3053 
L 1275 0 
L 697 0 
L 697 3053 
L 147 3053 
L 147 3500 
L 697 3500 
L 697 3744 
Q 697 4328 969 4595 
Q 1241 4863 1831 4863 
L 2375 4863 
z
" transform="scale(0.015625)"/>
       <path id="DejaVuSans-57" d="M 1172 4494 
L 1172 3500 
L 2356 3500 
L 2356 3053 
L 1172 3053 
L 1172 1153 
Q 1172 725 1289 603 
Q 1406 481 1766 481 
L 2356 481 
L 2356 0 
L 1766 0 
Q 1100 0 847 248 
Q 594 497 594 1153 
L 594 3053 
L 172 3053 
L 172 3500 
L 594 3500 
L 594 4494 
L 1172 4494 
z
" transform="scale(0.015625)"/>
       <path id="DejaVuSans-c" d="M 513 4856 
L 1013 4856 
Q 1481 4119 1714 3412 
Q 1947 2706 1947 2009 
Q 1947 1309 1714 600 
Q 1481 -109 1013 -844 
L 513 -844 
Q 928 -128 1133 580 
Q 1338 1288 1338 2009 
Q 1338 2731 1133 3434 
Q 928 4138 513 4856 
z
" transform="scale(0.015625)"/>
      </defs>
      <use xlink:href="#DejaVuSans-56"/>
      <use xlink:href="#DejaVuSans-48" transform="translate(52.09375 0)"/>
      <use xlink:href="#DejaVuSans-55" transform="translate(113.625 0)"/>
      <use xlink:href="#DejaVuSans-59" transform="translate(154.734375 0)"/>
      <use xlink:href="#DejaVuSans-52" transform="translate(213.921875 0)"/>
      <use xlink:href="#DejaVuSans-3" transform="translate(275.109375 0)"/>
      <use xlink:href="#DejaVuSans-46" transform="translate(306.890625 0)"/>
      <use xlink:href="#DejaVuSans-52" transform="translate(361.875 0)"/>
      <use xlink:href="#DejaVuSans-50" transform="translate(423.0625 0)"/>
      <use xlink:href="#DejaVuSans-50" transform="translate(520.46875 0)"/>
      <use xlink:href="#DejaVuSans-44" transform="translate(617.875 0)"/>
      <use xlink:href="#DejaVuSans-51" transform="translate(679.15625 0)"/>
      <use xlink:href="#DejaVuSans-47" transform="translate(742.53125 0)"/>
      <use xlink:href="#DejaVuSans-3" transform="translate(806.015625 0)"/>
      <use xlink:href="#DejaVuSans-3e" transform="translate(837.796875 0)"/>
      <use xlink:href="#DejaVuSans-8" transform="translate(876.8125 0)"/>
      <use xlink:href="#DejaVuSans-40" transform="translate(971.828125 0)"/>
      <use xlink:href="#DejaVuSans-3" transform="translate(1010.84375 0)"/>
      <use xlink:href="#DejaVuSans-3" transform="translate(1042.625 0)"/>
      <use xlink:href="#DejaVuSans-b" transform="translate(1074.40625 0)"/>
      <use xlink:href="#DejaVuSans-e" transform="translate(1113.421875 0)"/>
      <use xlink:href="#DejaVuSans-3" transform="translate(1197.21875 0)"/>
      <use xlink:href="#DejaVuSans-20" transform="translate(1229 0)"/>
      <use xlink:href="#DejaVuSans-3" transform="translate(1312.796875 0)"/>
      <use xlink:href="#DejaVuSans-4f" transform="translate(1344.578125 0)"/>
      <use xlink:href="#DejaVuSans-48" transform="translate(1372.359375 0)"/>
      <use xlink:href="#DejaVuSans-49" transform="translate(1433.890625 0)"/>
      <use xlink:href="#DejaVuSans-57" transform="translate(1467.34375 0)"/>
      <use xlink:href="#DejaVuSans-c" transform="translate(1506.546875 0)"/>
     </g>
    </g>
   </g>
   <g id="matplotlib.axis_2">
    <g id="ytick_1">
     <g id="line2d_11">
      <path d="M 47.362109 146.992443 
L 175.753262 146.992443 
" clip-path="url(#p55e4569e19)" style="fill: none; stroke: #e1e0d9; stroke-width: 0.6; stroke-linecap: round"/>
     </g>
     <g id="line2d_12">
      <defs>
       <path id="mc659222dda" d="M 0 0 
L -3.5 0 
" style="stroke: #c3c2b7; stroke-width: 0.8"/>
      </defs>
      <g>
       <use xlink:href="#mc659222dda" x="47.362109" y="146.992443" style="fill: #c3c2b7; stroke: #c3c2b7; stroke-width: 0.8"/>
      </g>
     </g>
     <g id="text_7">
      <!-- $\mathdefault{−20}$ -->
      <g style="fill: #52514e" transform="translate(23.402109 150.031506) scale(0.08 -0.08)">
       <defs>
        <path id="DejaVuSans-15" d="M 1228 531 
L 3431 531 
L 3431 0 
L 469 0 
L 469 531 
Q 828 903 1448 1529 
Q 2069 2156 2228 2338 
Q 2531 2678 2651 2914 
Q 2772 3150 2772 3378 
Q 2772 3750 2511 3984 
Q 2250 4219 1831 4219 
Q 1534 4219 1204 4116 
Q 875 4013 500 3803 
L 500 4441 
Q 881 4594 1212 4672 
Q 1544 4750 1819 4750 
Q 2544 4750 2975 4387 
Q 3406 4025 3406 3419 
Q 3406 3131 3298 2873 
Q 3191 2616 2906 2266 
Q 2828 2175 2409 1742 
Q 1991 1309 1228 531 
z
" transform="scale(0.015625)"/>
       </defs>
       <use xlink:href="#DejaVuSans-c9c" transform="translate(0 0.78125)"/>
       <use xlink:href="#DejaVuSans-15" transform="translate(83.789062 0.78125)"/>
       <use xlink:href="#DejaVuSans-13" transform="translate(147.412109 0.78125)"/>
      </g>
     </g>
    </g>
    <g id="ytick_2">
     <g id="line2d_13">
      <path d="M 47.362109 120.103717 
L 175.753262 120.103717 
" clip-path="url(#p55e4569e19)" style="fill: none; stroke: #e1e0d9; stroke-width: 0.6; stroke-linecap: round"/>
     </g>
     <g id="line2d_14">
      <g>
       <use xlink:href="#mc659222dda" x="47.362109" y="120.103717" style="fill: #c3c2b7; stroke: #c3c2b7; stroke-width: 0.8"/>
      </g>
     </g>
     <g id="text_8">
      <!-- $\mathdefault{−10}$ -->
      <g style="fill: #52514e" transform="translate(23.402109 123.142779) scale(0.08 -0.08)">
       <use xlink:href="#DejaVuSans-c9c" transform="translate(0 0.78125)"/>
       <use xlink:href="#DejaVuSans-14" transform="translate(83.789062 0.78125)"/>
       <use xlink:href="#DejaVuSans-13" transform="translate(147.412109 0.78125)"/>
      </g>
     </g>
    </g>
    <g id="ytick_3">
     <g id="line2d_15">
      <path d="M 47.362109 93.21499 
L 175.753262 93.21499 
" clip-path="url(#p55e4569e19)" style="fill: none; stroke: #e1e0d9; stroke-width: 0.6; stroke-linecap: round"/>
     </g>
     <g id="line2d_16">
      <g>
       <use xlink:href="#mc659222dda" x="47.362109" y="93.21499" style="fill: #c3c2b7; stroke: #c3c2b7; stroke-width: 0.8"/>
      </g>
     </g>
     <g id="text_9">
      <!-- $\mathdefault{0}$ -->
      <g style="fill: #52514e" transform="translate(35.242109 96.254052) scale(0.08 -0.08)">
       <use xlink:href="#DejaVuSans-13" transform="translate(0 0.78125)"/>
      </g>
     </g>
    </g>
    <g id="ytick_4">
     <g id="line2d_17">
      <path d="M 47.362109 66.326263 
L 175.753262 66.326263 
" clip-path="url(#p55e4569e19)" style="fill: none; stroke: #e1e0d9; stroke-width: 0.6; stroke-linecap: round"/>
     </g>
     <g id="line2d_18">
      <g>
       <use xlink:href="#mc659222dda" x="47.362109" y="66.326263" style="fill: #c3c2b7; stroke: #c3c2b7; stroke-width: 0.8"/>
      </g>
     </g>
     <g id="text_10">
      <!-- $\mathdefault{10}$ -->
      <g style="fill: #52514e" transform="translate(30.122109 69.365325) scale(0.08 -0.08)">
       <use xlink:href="#DejaVuSans-14" transform="translate(0 0.78125)"/>
       <use xlink:href="#DejaVuSans-13" transform="translate(63.623047 0.78125)"/>
      </g>
     </g>
    </g>
    <g id="ytick_5">
     <g id="line2d_19">
      <path d="M 47.362109 39.437536 
L 175.753262 39.437536 
" clip-path="url(#p55e4569e19)" style="fill: none; stroke: #e1e0d9; stroke-width: 0.6; stroke-linecap: round"/>
     </g>
     <g id="line2d_20">
      <g>
       <use xlink:href="#mc659222dda" x="47.362109" y="39.437536" style="fill: #c3c2b7; stroke: #c3c2b7; stroke-width: 0.8"/>
      </g>
     </g>
     <g id="text_11">
      <!-- $\mathdefault{20}$ -->
      <g style="fill: #52514e" transform="translate(30.122109 42.476598) scale(0.08 -0.08)">
       <use xlink:href="#DejaVuSans-15" transform="translate(0 0.78125)"/>
       <use xlink:href="#DejaVuSans-13" transform="translate(63.623047 0.78125)"/>
      </g>
     </g>
    </g>
    <g id="text_12">
     <!-- wheel angle delta [deg] -->
     <g style="fill: #52514e" transform="translate(17.24 150.146362) rotate(-90) scale(0.09 -0.09)">
      <defs>
       <path id="DejaVuSans-5a" d="M 269 3500 
L 844 3500 
L 1563 769 
L 2278 3500 
L 2956 3500 
L 3675 769 
L 4391 3500 
L 4966 3500 
L 4050 0 
L 3372 0 
L 2619 2869 
L 1863 0 
L 1184 0 
L 269 3500 
z
" transform="scale(0.015625)"/>
       <path id="DejaVuSans-4b" d="M 3513 2113 
L 3513 0 
L 2938 0 
L 2938 2094 
Q 2938 2591 2744 2837 
Q 2550 3084 2163 3084 
Q 1697 3084 1428 2787 
Q 1159 2491 1159 1978 
L 1159 0 
L 581 0 
L 581 4863 
L 1159 4863 
L 1159 2956 
Q 1366 3272 1645 3428 
Q 1925 3584 2291 3584 
Q 2894 3584 3203 3211 
Q 3513 2838 3513 2113 
z
" transform="scale(0.015625)"/>
       <path id="DejaVuSans-4a" d="M 2906 1791 
Q 2906 2416 2648 2759 
Q 2391 3103 1925 3103 
Q 1463 3103 1205 2759 
Q 947 2416 947 1791 
Q 947 1169 1205 825 
Q 1463 481 1925 481 
Q 2391 481 2648 825 
Q 2906 1169 2906 1791 
z
M 3481 434 
Q 3481 -459 3084 -895 
Q 2688 -1331 1869 -1331 
Q 1566 -1331 1297 -1286 
Q 1028 -1241 775 -1147 
L 775 -588 
Q 1028 -725 1275 -790 
Q 1522 -856 1778 -856 
Q 2344 -856 2625 -561 
Q 2906 -266 2906 331 
L 2906 616 
Q 2728 306 2450 153 
Q 2172 0 1784 0 
Q 1141 0 747 490 
Q 353 981 353 1791 
Q 353 2603 747 3093 
Q 1141 3584 1784 3584 
Q 2172 3584 2450 3431 
Q 2728 3278 2906 2969 
L 2906 3500 
L 3481 3500 
L 3481 434 
z
" transform="scale(0.015625)"/>
      </defs>
      <use xlink:href="#DejaVuSans-5a"/>
      <use xlink:href="#DejaVuSans-4b" transform="translate(81.78125 0)"/>
      <use xlink:href="#DejaVuSans-48" transform="translate(145.15625 0)"/>
      <use xlink:href="#DejaVuSans-48" transform="translate(206.6875 0)"/>
      <use xlink:href="#DejaVuSans-4f" transform="translate(268.21875 0)"/>
      <use xlink:href="#DejaVuSans-3" transform="translate(296 0)"/>
      <use xlink:href="#DejaVuSans-44" transform="translate(327.78125 0)"/>
      <use xlink:href="#DejaVuSans-51" transform="translate(389.0625 0)"/>
      <use xlink:href="#DejaVuSans-4a" transform="translate(452.4375 0)"/>
      <use xlink:href="#DejaVuSans-4f" transform="translate(515.921875 0)"/>
      <use xlink:href="#DejaVuSans-48" transform="translate(543.703125 0)"/>
      <use xlink:href="#DejaVuSans-3" transform="translate(605.234375 0)"/>
      <use xlink:href="#DejaVuSans-47" transform="translate(637.015625 0)"/>
      <use xlink:href="#DejaVuSans-48" transform="translate(700.5 0)"/>
      <use xlink:href="#DejaVuSans-4f" transform="translate(762.03125 0)"/>
      <use xlink:href="#DejaVuSans-57" transform="translate(789.8125 0)"/>
      <use xlink:href="#DejaVuSans-44" transform="translate(829.015625 0)"/>
      <use xlink:href="#DejaVuSans-3" transform="translate(890.296875 0)"/>
      <use xlink:href="#DejaVuSans-3e" transform="translate(922.078125 0)"/>
      <use xlink:href="#DejaVuSans-47" transform="translate(961.09375 0)"/>
      <use xlink:href="#DejaVuSans-48" transform="translate(1024.578125 0)"/>
      <use xlink:href="#DejaVuSans-4a" transform="translate(1086.109375 0)"/>
      <use xlink:href="#DejaVuSans-40" transform="translate(1149.59375 0)"/>
     </g>
    </g>
   </g>
   <g id="line2d_21">
    <path d="M 53.198071 159.659397 
L 64.869994 151.627537 
L 73.623936 144.472833 
L 82.377878 129.444987 
L 91.131821 116.915251 
L 110.390493 93.21499 
L 110.390493 93.21499 
L 131.983551 83.039443 
L 140.737493 71.60168 
L 149.491435 59.880057 
L 158.245378 49.066605 
L 169.917301 34.228054 
" clip-path="url(#p55e4569e19)" style="fill: none; stroke: #2a78d6; stroke-width: 1.5; stroke-linecap: round"/>
    <defs>
     <path id="mb2eb2d061d" d="M 0 2.25 
C 0.596707 2.25 1.169055 2.012926 1.59099 1.59099 
C 2.012926 1.169055 2.25 0.596707 2.25 0 
C 2.25 -0.596707 2.012926 -1.169055 1.59099 -1.59099 
C 1.169055 -2.012926 0.596707 -2.25 0 -2.25 
C -0.596707 -2.25 -1.169055 -2.012926 -1.59099 -1.59099 
C -2.012926 -1.169055 -2.25 -0.596707 -2.25 0 
C -2.25 0.596707 -2.012926 1.169055 -1.59099 1.59099 
C -1.169055 2.012926 -0.596707 2.25 0 2.25 
z
" style="stroke: #ffffff; stroke-width: 1.2"/>
    </defs>
    <g clip-path="url(#p55e4569e19)">
     <use xlink:href="#mb2eb2d061d" x="53.198071" y="159.659397" style="fill: #2a78d6; stroke: #ffffff; stroke-width: 1.2"/>
     <use xlink:href="#mb2eb2d061d" x="64.869994" y="151.627537" style="fill: #2a78d6; stroke: #ffffff; stroke-width: 1.2"/>
     <use xlink:href="#mb2eb2d061d" x="73.623936" y="144.472833" style="fill: #2a78d6; stroke: #ffffff; stroke-width: 1.2"/>
     <use xlink:href="#mb2eb2d061d" x="82.377878" y="129.444987" style="fill: #2a78d6; stroke: #ffffff; stroke-width: 1.2"/>
     <use xlink:href="#mb2eb2d061d" x="91.131821" y="116.915251" style="fill: #2a78d6; stroke: #ffffff; stroke-width: 1.2"/>
     <use xlink:href="#mb2eb2d061d" x="110.390493" y="93.21499" style="fill: #2a78d6; stroke: #ffffff; stroke-width: 1.2"/>
     <use xlink:href="#mb2eb2d061d" x="110.390493" y="93.21499" style="fill: #2a78d6; stroke: #ffffff; stroke-width: 1.2"/>
     <use xlink:href="#mb2eb2d061d" x="131.983551" y="83.039443" style="fill: #2a78d6; stroke: #ffffff; stroke-width: 1.2"/>
     <use xlink:href="#mb2eb2d061d" x="140.737493" y="71.60168" style="fill: #2a78d6; stroke: #ffffff; stroke-width: 1.2"/>
     <use xlink:href="#mb2eb2d061d" x="149.491435" y="59.880057" style="fill: #2a78d6; stroke: #ffffff; stroke-width: 1.2"/>
     <use xlink:href="#mb2eb2d061d" x="158.245378" y="49.066605" style="fill: #2a78d6; stroke: #ffffff; stroke-width: 1.2"/>
     <use xlink:href="#mb2eb2d061d" x="169.917301" y="34.228054" style="fill: #2a78d6; stroke: #ffffff; stroke-width: 1.2"/>
    </g>
   </g>
   <g id="line2d_22">
    <path d="M 53.198071 157.25604 
L 64.869994 151.292253 
L 73.623936 140.788097 
L 82.377878 130.076281 
L 91.131821 119.158575 
L 110.390493 93.21499 
L 110.390493 93.21499 
L 131.983551 82.106656 
L 140.737493 70.265521 
L 149.491435 59.366658 
L 158.245378 45.591992 
L 169.917301 33.658483 
" clip-path="url(#p55e4569e19)" style="fill: none; stroke: #eb6834; stroke-width: 1.5; stroke-linecap: round"/>
    <defs>
     <path id="m90b25c6df6" d="M 0 2.25 
C 0.596707 2.25 1.169055 2.012926 1.59099 1.59099 
C 2.012926 1.169055 2.25 0.596707 2.25 0 
C 2.25 -0.596707 2.012926 -1.169055 1.59099 -1.59099 
C 1.169055 -2.012926 0.596707 -2.25 0 -2.25 
C -0.596707 -2.25 -1.169055 -2.012926 -1.59099 -1.59099 
C -2.012926 -1.169055 -2.25 -0.596707 -2.25 0 
C -2.25 0.596707 -2.012926 1.169055 -1.59099 1.59099 
C -1.169055 2.012926 -0.596707 2.25 0 2.25 
z
" style="stroke: #ffffff; stroke-width: 1.2"/>
    </defs>
    <g clip-path="url(#p55e4569e19)">
     <use xlink:href="#m90b25c6df6" x="53.198071" y="157.25604" style="fill: #eb6834; stroke: #ffffff; stroke-width: 1.2"/>
     <use xlink:href="#m90b25c6df6" x="64.869994" y="151.292253" style="fill: #eb6834; stroke: #ffffff; stroke-width: 1.2"/>
     <use xlink:href="#m90b25c6df6" x="73.623936" y="140.788097" style="fill: #eb6834; stroke: #ffffff; stroke-width: 1.2"/>
     <use xlink:href="#m90b25c6df6" x="82.377878" y="130.076281" style="fill: #eb6834; stroke: #ffffff; stroke-width: 1.2"/>
     <use xlink:href="#m90b25c6df6" x="91.131821" y="119.158575" style="fill: #eb6834; stroke: #ffffff; stroke-width: 1.2"/>
     <use xlink:href="#m90b25c6df6" x="110.390493" y="93.21499" style="fill: #eb6834; stroke: #ffffff; stroke-width: 1.2"/>
     <use xlink:href="#m90b25c6df6" x="110.390493" y="93.21499" style="fill: #eb6834; stroke: #ffffff; stroke-width: 1.2"/>
     <use xlink:href="#m90b25c6df6" x="131.983551" y="82.106656" style="fill: #eb6834; stroke: #ffffff; stroke-width: 1.2"/>
     <use xlink:href="#m90b25c6df6" x="140.737493" y="70.265521" style="fill: #eb6834; stroke: #ffffff; stroke-width: 1.2"/>
     <use xlink:href="#m90b25c6df6" x="149.491435" y="59.366658" style="fill: #eb6834; stroke: #ffffff; stroke-width: 1.2"/>
     <use xlink:href="#m90b25c6df6" x="158.245378" y="45.591992" style="fill: #eb6834; stroke: #ffffff; stroke-width: 1.2"/>
     <use xlink:href="#m90b25c6df6" x="169.917301" y="33.658483" style="fill: #eb6834; stroke: #ffffff; stroke-width: 1.2"/>
    </g>
   </g>
   <g id="line2d_23">
    <path d="M 53.198071 156.119698 
L 64.869994 147.07409 
L 73.623936 141.537267 
L 82.377878 131.191823 
L 91.131821 121.004892 
L 110.390493 93.21499 
L 110.390493 93.21499 
L 131.983551 82.207737 
L 140.737493 71.369072 
L 149.491435 59.871584 
L 158.245378 50.38114 
L 169.917301 41.060775 
" clip-path="url(#p55e4569e19)" style="fill: none; stroke: #1baf7a; stroke-width: 1.5; stroke-linecap: round"/>
    <defs>
     <path id="ma1332b5551" d="M 0 2.25 
C 0.596707 2.25 1.169055 2.012926 1.59099 1.59099 
C 2.012926 1.169055 2.25 0.596707 2.25 0 
C 2.25 -0.596707 2.012926 -1.169055 1.59099 -1.59099 
C 1.169055 -2.012926 0.596707 -2.25 0 -2.25 
C -0.596707 -2.25 -1.169055 -2.012926 -1.59099 -1.59099 
C -2.012926 -1.169055 -2.25 -0.596707 -2.25 0 
C -2.25 0.596707 -2.012926 1.169055 -1.59099 1.59099 
C -1.169055 2.012926 -0.596707 2.25 0 2.25 
z
" style="stroke: #ffffff; stroke-width: 1.2"/>
    </defs>
    <g clip-path="url(#p55e4569e19)">
     <use xlink:href="#ma1332b5551" x="53.198071" y="156.119698" style="fill: #1baf7a; stroke: #ffffff; stroke-width: 1.2"/>
     <use xlink:href="#ma1332b5551" x="64.869994" y="147.07409" style="fill: #1baf7a; stroke: #ffffff; stroke-width: 1.2"/>
     <use xlink:href="#ma1332b5551" x="73.623936" y="141.537267" style="fill: #1baf7a; stroke: #ffffff; stroke-width: 1.2"/>
     <use xlink:href="#ma1332b5551" x="82.377878" y="131.191823" style="fill: #1baf7a; stroke: #ffffff; stroke-width: 1.2"/>
     <use xlink:href="#ma1332b5551" x="91.131821" y="121.004892" style="fill: #1baf7a; stroke: #ffffff; stroke-width: 1.2"/>
     <use xlink:href="#ma1332b5551" x="110.390493" y="93.21499" style="fill: #1baf7a; stroke: #ffffff; stroke-width: 1.2"/>
     <use xlink:href="#ma1332b5551" x="110.390493" y="93.21499" style="fill: #1baf7a; stroke: #ffffff; stroke-width: 1.2"/>
     <use xlink:href="#ma1332b5551" x="131.983551" y="82.207737" style="fill: #1baf7a; stroke: #ffffff; stroke-width: 1.2"/>
     <use xlink:href="#ma1332b5551" x="140.737493" y="71.369072" style="fill: #1baf7a; stroke: #ffffff; stroke-width: 1.2"/>
     <use xlink:href="#ma1332b5551" x="149.491435" y="59.871584" style="fill: #1baf7a; stroke: #ffffff; stroke-width: 1.2"/>
     <use xlink:href="#ma1332b5551" x="158.245378" y="50.38114" style="fill: #1baf7a; stroke: #ffffff; stroke-width: 1.2"/>
     <use xlink:href="#ma1332b5551" x="169.917301" y="41.060775" style="fill: #1baf7a; stroke: #ffffff; stroke-width: 1.2"/>
    </g>
   </g>
   <g id="line2d_24">
    <path d="M 47.362109 93.21499 
L 175.753262 93.21499 
" clip-path="url(#p55e4569e19)" style="fill: none; stroke: #c3c2b7; stroke-width: 0.8; stroke-linecap: round"/>
   </g>
   <g id="line2d_25">
    <path d="M 111.557686 165.959442 
L 111.557686 27.358437 
" clip-path="url(#p55e4569e19)" style="fill: none; stroke: #c3c2b7; stroke-width: 0.8; stroke-linecap: round"/>
   </g>
   <g id="patch_3">
    <path d="M 47.362109 165.959442 
L 47.362109 27.358437 
" style="fill: none; stroke: #c3c2b7; stroke-width: 0.8; stroke-linejoin: miter; stroke-linecap: square"/>
   </g>
   <g id="patch_4">
    <path d="M 47.362109 165.959442 
L 175.753262 165.959442 
" style="fill: none; stroke: #c3c2b7; stroke-width: 0.8; stroke-linejoin: miter; stroke-linecap: square"/>
   </g>
   <g id="text_13">
    <!-- Steering angle -->
    <g style="fill: #0b0b0b" transform="translate(47.362109 13.358437) scale(0.1 -0.1)">
     <defs>
      <path id="DejaVuSans-Bold-36" d="M 3834 4519 
L 3834 3531 
Q 3450 3703 3084 3790 
Q 2719 3878 2394 3878 
Q 1963 3878 1756 3759 
Q 1550 3641 1550 3391 
Q 1550 3203 1689 3098 
Q 1828 2994 2194 2919 
L 2706 2816 
Q 3484 2659 3812 2340 
Q 4141 2022 4141 1434 
Q 4141 663 3683 286 
Q 3225 -91 2284 -91 
Q 1841 -91 1394 -6 
Q 947 78 500 244 
L 500 1259 
Q 947 1022 1364 901 
Q 1781 781 2169 781 
Q 2563 781 2772 912 
Q 2981 1044 2981 1288 
Q 2981 1506 2839 1625 
Q 2697 1744 2272 1838 
L 1806 1941 
Q 1106 2091 782 2419 
Q 459 2747 459 3303 
Q 459 4000 909 4375 
Q 1359 4750 2203 4750 
Q 2588 4750 2994 4692 
Q 3400 4634 3834 4519 
z
" transform="scale(0.015625)"/>
      <path id="DejaVuSans-Bold-57" d="M 1759 4494 
L 1759 3500 
L 2913 3500 
L 2913 2700 
L 1759 2700 
L 1759 1216 
Q 1759 972 1856 886 
Q 1953 800 2241 800 
L 2816 800 
L 2816 0 
L 1856 0 
Q 1194 0 917 276 
Q 641 553 641 1216 
L 641 2700 
L 84 2700 
L 84 3500 
L 641 3500 
L 641 4494 
L 1759 4494 
z
" transform="scale(0.015625)"/>
      <path id="DejaVuSans-Bold-48" d="M 4031 1759 
L 4031 1441 
L 1416 1441 
Q 1456 1047 1700 850 
Q 1944 653 2381 653 
Q 2734 653 3104 758 
Q 3475 863 3866 1075 
L 3866 213 
Q 3469 63 3072 -14 
Q 2675 -91 2278 -91 
Q 1328 -91 801 392 
Q 275 875 275 1747 
Q 275 2603 792 3093 
Q 1309 3584 2216 3584 
Q 3041 3584 3536 3087 
Q 4031 2591 4031 1759 
z
M 2881 2131 
Q 2881 2450 2695 2645 
Q 2509 2841 2209 2841 
Q 1884 2841 1681 2658 
Q 1478 2475 1428 2131 
L 2881 2131 
z
" transform="scale(0.015625)"/>
      <path id="DejaVuSans-Bold-55" d="M 3138 2547 
Q 2991 2616 2845 2648 
Q 2700 2681 2553 2681 
Q 2122 2681 1889 2404 
Q 1656 2128 1656 1613 
L 1656 0 
L 538 0 
L 538 3500 
L 1656 3500 
L 1656 2925 
Q 1872 3269 2151 3426 
Q 2431 3584 2822 3584 
Q 2878 3584 2943 3579 
Q 3009 3575 3134 3559 
L 3138 2547 
z
" transform="scale(0.015625)"/>
      <path id="DejaVuSans-Bold-4c" d="M 538 3500 
L 1656 3500 
L 1656 0 
L 538 0 
L 538 3500 
z
M 538 4863 
L 1656 4863 
L 1656 3950 
L 538 3950 
L 538 4863 
z
" transform="scale(0.015625)"/>
      <path id="DejaVuSans-Bold-51" d="M 4056 2131 
L 4056 0 
L 2931 0 
L 2931 347 
L 2931 1631 
Q 2931 2084 2911 2256 
Q 2891 2428 2841 2509 
Q 2775 2619 2662 2680 
Q 2550 2741 2406 2741 
Q 2056 2741 1856 2470 
Q 1656 2200 1656 1722 
L 1656 0 
L 538 0 
L 538 3500 
L 1656 3500 
L 1656 2988 
Q 1909 3294 2193 3439 
Q 2478 3584 2822 3584 
Q 3428 3584 3742 3212 
Q 4056 2841 4056 2131 
z
" transform="scale(0.015625)"/>
      <path id="DejaVuSans-Bold-4a" d="M 2919 594 
Q 2688 288 2409 144 
Q 2131 0 1766 0 
Q 1125 0 706 504 
Q 288 1009 288 1791 
Q 288 2575 706 3076 
Q 1125 3578 1766 3578 
Q 2131 3578 2409 3434 
Q 2688 3291 2919 2981 
L 2919 3500 
L 4044 3500 
L 4044 353 
Q 4044 -491 3511 -936 
Q 2978 -1381 1966 -1381 
Q 1638 -1381 1331 -1331 
Q 1025 -1281 716 -1178 
L 716 -306 
Q 1009 -475 1290 -558 
Q 1572 -641 1856 -641 
Q 2406 -641 2662 -400 
Q 2919 -159 2919 353 
L 2919 594 
z
M 2181 2772 
Q 1834 2772 1640 2515 
Q 1447 2259 1447 1791 
Q 1447 1309 1634 1061 
Q 1822 813 2181 813 
Q 2531 813 2725 1069 
Q 2919 1325 2919 1791 
Q 2919 2259 2725 2515 
Q 2531 2772 2181 2772 
z
" transform="scale(0.015625)"/>
      <path id="DejaVuSans-Bold-3" transform="scale(0.015625)"/>
      <path id="DejaVuSans-Bold-44" d="M 2106 1575 
Q 1756 1575 1579 1456 
Q 1403 1338 1403 1106 
Q 1403 894 1545 773 
Q 1688 653 1941 653 
Q 2256 653 2472 879 
Q 2688 1106 2688 1447 
L 2688 1575 
L 2106 1575 
z
M 3816 1997 
L 3816 0 
L 2688 0 
L 2688 519 
Q 2463 200 2181 54 
Q 1900 -91 1497 -91 
Q 953 -91 614 226 
Q 275 544 275 1050 
Q 275 1666 698 1953 
Q 1122 2241 2028 2241 
L 2688 2241 
L 2688 2328 
Q 2688 2594 2478 2717 
Q 2269 2841 1825 2841 
Q 1466 2841 1156 2769 
Q 847 2697 581 2553 
L 581 3406 
Q 941 3494 1303 3539 
Q 1666 3584 2028 3584 
Q 2975 3584 3395 3211 
Q 3816 2838 3816 1997 
z
" transform="scale(0.015625)"/>
      <path id="DejaVuSans-Bold-4f" d="M 538 4863 
L 1656 4863 
L 1656 0 
L 538 0 
L 538 4863 
z
" transform="scale(0.015625)"/>
     </defs>
     <use xlink:href="#DejaVuSans-Bold-36"/>
     <use xlink:href="#DejaVuSans-Bold-57" transform="translate(72.015625 0)"/>
     <use xlink:href="#DejaVuSans-Bold-48" transform="translate(119.8125 0)"/>
     <use xlink:href="#DejaVuSans-Bold-48" transform="translate(187.640625 0)"/>
     <use xlink:href="#DejaVuSans-Bold-55" transform="translate(255.46875 0)"/>
     <use xlink:href="#DejaVuSans-Bold-4c" transform="translate(304.78125 0)"/>
     <use xlink:href="#DejaVuSans-Bold-51" transform="translate(339.0625 0)"/>
     <use xlink:href="#DejaVuSans-Bold-4a" transform="translate(410.25 0)"/>
     <use xlink:href="#DejaVuSans-Bold-3" transform="translate(481.828125 0)"/>
     <use xlink:href="#DejaVuSans-Bold-44" transform="translate(516.640625 0)"/>
     <use xlink:href="#DejaVuSans-Bold-51" transform="translate(584.125 0)"/>
     <use xlink:href="#DejaVuSans-Bold-4a" transform="translate(655.3125 0)"/>
     <use xlink:href="#DejaVuSans-Bold-4f" transform="translate(726.890625 0)"/>
     <use xlink:href="#DejaVuSans-Bold-48" transform="translate(761.171875 0)"/>
    </g>
   </g>
  </g>
  <g id="axes_2">
   <g id="patch_5">
    <path d="M 277.66243 165.959442 
L 406.053583 165.959442 
L 406.053583 27.358437 
L 277.66243 27.358437 
z
" style="fill: #ffffff"/>
   </g>
   <g id="matplotlib.axis_3">
    <g id="xtick_6">
     <g id="line2d_26">
      <path d="M 283.498392 165.959442 
L 283.498392 27.358437 
" clip-path="url(#p6df4e5b221)" style="fill: none; stroke: #e1e0d9; stroke-width: 0.6; stroke-linecap: round"/>
     </g>
     <g id="line2d_27">
      <g>
       <use xlink:href="#m5e57a02975" x="283.498392" y="165.959442" style="fill: #c3c2b7; stroke: #c3c2b7; stroke-width: 0.8"/>
      </g>
     </g>
     <g id="text_14">
      <!-- $\mathdefault{−100}$ -->
      <g style="fill: #52514e" transform="translate(272.498392 179.037567) scale(0.08 -0.08)">
       <use xlink:href="#DejaVuSans-c9c" transform="translate(0 0.78125)"/>
       <use xlink:href="#DejaVuSans-14" transform="translate(83.789062 0.78125)"/>
       <use xlink:href="#DejaVuSans-13" transform="translate(147.412109 0.78125)"/>
       <use xlink:href="#DejaVuSans-13" transform="translate(211.035156 0.78125)"/>
      </g>
     </g>
    </g>
    <g id="xtick_7">
     <g id="line2d_28">
      <path d="M 312.678199 165.959442 
L 312.678199 27.358437 
" clip-path="url(#p6df4e5b221)" style="fill: none; stroke: #e1e0d9; stroke-width: 0.6; stroke-linecap: round"/>
     </g>
     <g id="line2d_29">
      <g>
       <use xlink:href="#m5e57a02975" x="312.678199" y="165.959442" style="fill: #c3c2b7; stroke: #c3c2b7; stroke-width: 0.8"/>
      </g>
     </g>
     <g id="text_15">
      <!-- $\mathdefault{−50}$ -->
      <g style="fill: #52514e" transform="translate(304.198199 179.037567) scale(0.08 -0.08)">
       <use xlink:href="#DejaVuSans-c9c" transform="translate(0 0.78125)"/>
       <use xlink:href="#DejaVuSans-18" transform="translate(83.789062 0.78125)"/>
       <use xlink:href="#DejaVuSans-13" transform="translate(147.412109 0.78125)"/>
      </g>
     </g>
    </g>
    <g id="xtick_8">
     <g id="line2d_30">
      <path d="M 341.858007 165.959442 
L 341.858007 27.358437 
" clip-path="url(#p6df4e5b221)" style="fill: none; stroke: #e1e0d9; stroke-width: 0.6; stroke-linecap: round"/>
     </g>
     <g id="line2d_31">
      <g>
       <use xlink:href="#m5e57a02975" x="341.858007" y="165.959442" style="fill: #c3c2b7; stroke: #c3c2b7; stroke-width: 0.8"/>
      </g>
     </g>
     <g id="text_16">
      <!-- $\mathdefault{0}$ -->
      <g style="fill: #52514e" transform="translate(339.298007 179.037567) scale(0.08 -0.08)">
       <use xlink:href="#DejaVuSans-13" transform="translate(0 0.78125)"/>
      </g>
     </g>
    </g>
    <g id="xtick_9">
     <g id="line2d_32">
      <path d="M 371.037814 165.959442 
L 371.037814 27.358437 
" clip-path="url(#p6df4e5b221)" style="fill: none; stroke: #e1e0d9; stroke-width: 0.6; stroke-linecap: round"/>
     </g>
     <g id="line2d_33">
      <g>
       <use xlink:href="#m5e57a02975" x="371.037814" y="165.959442" style="fill: #c3c2b7; stroke: #c3c2b7; stroke-width: 0.8"/>
      </g>
     </g>
     <g id="text_17">
      <!-- $\mathdefault{50}$ -->
      <g style="fill: #52514e" transform="translate(365.917814 179.037567) scale(0.08 -0.08)">
       <use xlink:href="#DejaVuSans-18" transform="translate(0 0.78125)"/>
       <use xlink:href="#DejaVuSans-13" transform="translate(63.623047 0.78125)"/>
      </g>
     </g>
    </g>
    <g id="xtick_10">
     <g id="line2d_34">
      <path d="M 400.217621 165.959442 
L 400.217621 27.358437 
" clip-path="url(#p6df4e5b221)" style="fill: none; stroke: #e1e0d9; stroke-width: 0.6; stroke-linecap: round"/>
     </g>
     <g id="line2d_35">
      <g>
       <use xlink:href="#m5e57a02975" x="400.217621" y="165.959442" style="fill: #c3c2b7; stroke: #c3c2b7; stroke-width: 0.8"/>
      </g>
     </g>
     <g id="text_18">
      <!-- $\mathdefault{100}$ -->
      <g style="fill: #52514e" transform="translate(392.577621 179.037567) scale(0.08 -0.08)">
       <use xlink:href="#DejaVuSans-14" transform="translate(0 0.78125)"/>
       <use xlink:href="#DejaVuSans-13" transform="translate(63.623047 0.78125)"/>
       <use xlink:href="#DejaVuSans-13" transform="translate(127.246094 0.78125)"/>
      </g>
     </g>
    </g>
    <g id="text_19">
     <!-- servo command [%]  (+ = left) -->
     <g style="fill: #52514e" transform="translate(272.307694 191.798036) scale(0.09 -0.09)">
      <use xlink:href="#DejaVuSans-56"/>
      <use xlink:href="#DejaVuSans-48" transform="translate(52.09375 0)"/>
      <use xlink:href="#DejaVuSans-55" transform="translate(113.625 0)"/>
      <use xlink:href="#DejaVuSans-59" transform="translate(154.734375 0)"/>
      <use xlink:href="#DejaVuSans-52" transform="translate(213.921875 0)"/>
      <use xlink:href="#DejaVuSans-3" transform="translate(275.109375 0)"/>
      <use xlink:href="#DejaVuSans-46" transform="translate(306.890625 0)"/>
      <use xlink:href="#DejaVuSans-52" transform="translate(361.875 0)"/>
      <use xlink:href="#DejaVuSans-50" transform="translate(423.0625 0)"/>
      <use xlink:href="#DejaVuSans-50" transform="translate(520.46875 0)"/>
      <use xlink:href="#DejaVuSans-44" transform="translate(617.875 0)"/>
      <use xlink:href="#DejaVuSans-51" transform="translate(679.15625 0)"/>
      <use xlink:href="#DejaVuSans-47" transform="translate(742.53125 0)"/>
      <use xlink:href="#DejaVuSans-3" transform="translate(806.015625 0)"/>
      <use xlink:href="#DejaVuSans-3e" transform="translate(837.796875 0)"/>
      <use xlink:href="#DejaVuSans-8" transform="translate(876.8125 0)"/>
      <use xlink:href="#DejaVuSans-40" transform="translate(971.828125 0)"/>
      <use xlink:href="#DejaVuSans-3" transform="translate(1010.84375 0)"/>
      <use xlink:href="#DejaVuSans-3" transform="translate(1042.625 0)"/>
      <use xlink:href="#DejaVuSans-b" transform="translate(1074.40625 0)"/>
      <use xlink:href="#DejaVuSans-e" transform="translate(1113.421875 0)"/>
      <use xlink:href="#DejaVuSans-3" transform="translate(1197.21875 0)"/>
      <use xlink:href="#DejaVuSans-20" transform="translate(1229 0)"/>
      <use xlink:href="#DejaVuSans-3" transform="translate(1312.796875 0)"/>
      <use xlink:href="#DejaVuSans-4f" transform="translate(1344.578125 0)"/>
      <use xlink:href="#DejaVuSans-48" transform="translate(1372.359375 0)"/>
      <use xlink:href="#DejaVuSans-49" transform="translate(1433.890625 0)"/>
      <use xlink:href="#DejaVuSans-57" transform="translate(1467.34375 0)"/>
      <use xlink:href="#DejaVuSans-c" transform="translate(1506.546875 0)"/>
     </g>
    </g>
   </g>
   <g id="matplotlib.axis_4">
    <g id="ytick_6">
     <g id="line2d_36">
      <path d="M 277.66243 150.916046 
L 406.053583 150.916046 
" clip-path="url(#p6df4e5b221)" style="fill: none; stroke: #e1e0d9; stroke-width: 0.6; stroke-linecap: round"/>
     </g>
     <g id="line2d_37">
      <g>
       <use xlink:href="#mc659222dda" x="277.66243" y="150.916046" style="fill: #c3c2b7; stroke: #c3c2b7; stroke-width: 0.8"/>
      </g>
     </g>
     <g id="text_20">
      <!-- $\mathdefault{−4}$ -->
      <g style="fill: #52514e" transform="translate(258.82243 153.955109) scale(0.08 -0.08)">
       <defs>
        <path id="DejaVuSans-17" d="M 2419 4116 
L 825 1625 
L 2419 1625 
L 2419 4116 
z
M 2253 4666 
L 3047 4666 
L 3047 1625 
L 3713 1625 
L 3713 1100 
L 3047 1100 
L 3047 0 
L 2419 0 
L 2419 1100 
L 313 1100 
L 313 1709 
L 2253 4666 
z
" transform="scale(0.015625)"/>
       </defs>
       <use xlink:href="#DejaVuSans-c9c" transform="translate(0 0.09375)"/>
       <use xlink:href="#DejaVuSans-17" transform="translate(83.789062 0.09375)"/>
      </g>
     </g>
    </g>
    <g id="ytick_7">
     <g id="line2d_38">
      <path d="M 277.66243 121.858074 
L 406.053583 121.858074 
" clip-path="url(#p6df4e5b221)" style="fill: none; stroke: #e1e0d9; stroke-width: 0.6; stroke-linecap: round"/>
     </g>
     <g id="line2d_39">
      <g>
       <use xlink:href="#mc659222dda" x="277.66243" y="121.858074" style="fill: #c3c2b7; stroke: #c3c2b7; stroke-width: 0.8"/>
      </g>
     </g>
     <g id="text_21">
      <!-- $\mathdefault{−2}$ -->
      <g style="fill: #52514e" transform="translate(258.82243 124.897136) scale(0.08 -0.08)">
       <use xlink:href="#DejaVuSans-c9c" transform="translate(0 0.78125)"/>
       <use xlink:href="#DejaVuSans-15" transform="translate(83.789062 0.78125)"/>
      </g>
     </g>
    </g>
    <g id="ytick_8">
     <g id="line2d_40">
      <path d="M 277.66243 92.800101 
L 406.053583 92.800101 
" clip-path="url(#p6df4e5b221)" style="fill: none; stroke: #e1e0d9; stroke-width: 0.6; stroke-linecap: round"/>
     </g>
     <g id="line2d_41">
      <g>
       <use xlink:href="#mc659222dda" x="277.66243" y="92.800101" style="fill: #c3c2b7; stroke: #c3c2b7; stroke-width: 0.8"/>
      </g>
     </g>
     <g id="text_22">
      <!-- $\mathdefault{0}$ -->
      <g style="fill: #52514e" transform="translate(265.54243 95.839164) scale(0.08 -0.08)">
       <use xlink:href="#DejaVuSans-13" transform="translate(0 0.78125)"/>
      </g>
     </g>
    </g>
    <g id="ytick_9">
     <g id="line2d_42">
      <path d="M 277.66243 63.742129 
L 406.053583 63.742129 
" clip-path="url(#p6df4e5b221)" style="fill: none; stroke: #e1e0d9; stroke-width: 0.6; stroke-linecap: round"/>
     </g>
     <g id="line2d_43">
      <g>
       <use xlink:href="#mc659222dda" x="277.66243" y="63.742129" style="fill: #c3c2b7; stroke: #c3c2b7; stroke-width: 0.8"/>
      </g>
     </g>
     <g id="text_23">
      <!-- $\mathdefault{2}$ -->
      <g style="fill: #52514e" transform="translate(265.54243 66.781191) scale(0.08 -0.08)">
       <use xlink:href="#DejaVuSans-15" transform="translate(0 0.78125)"/>
      </g>
     </g>
    </g>
    <g id="ytick_10">
     <g id="line2d_44">
      <path d="M 277.66243 34.684156 
L 406.053583 34.684156 
" clip-path="url(#p6df4e5b221)" style="fill: none; stroke: #e1e0d9; stroke-width: 0.6; stroke-linecap: round"/>
     </g>
     <g id="line2d_45">
      <g>
       <use xlink:href="#mc659222dda" x="277.66243" y="34.684156" style="fill: #c3c2b7; stroke: #c3c2b7; stroke-width: 0.8"/>
      </g>
     </g>
     <g id="text_24">
      <!-- $\mathdefault{4}$ -->
      <g style="fill: #52514e" transform="translate(265.54243 37.723219) scale(0.08 -0.08)">
       <use xlink:href="#DejaVuSans-17" transform="translate(0 0.09375)"/>
      </g>
     </g>
    </g>
    <g id="text_25">
     <!-- curvature tan(delta)/L [1/m] -->
     <g style="fill: #52514e" transform="translate(252.660321 159.831909) rotate(-90) scale(0.09 -0.09)">
      <defs>
       <path id="DejaVuSans-58" d="M 544 1381 
L 544 3500 
L 1119 3500 
L 1119 1403 
Q 1119 906 1312 657 
Q 1506 409 1894 409 
Q 2359 409 2629 706 
Q 2900 1003 2900 1516 
L 2900 3500 
L 3475 3500 
L 3475 0 
L 2900 0 
L 2900 538 
Q 2691 219 2414 64 
Q 2138 -91 1772 -91 
Q 1169 -91 856 284 
Q 544 659 544 1381 
z
M 1991 3584 
L 1991 3584 
z
" transform="scale(0.015625)"/>
       <path id="DejaVuSans-12" d="M 1625 4666 
L 2156 4666 
L 531 -594 
L 0 -594 
L 1625 4666 
z
" transform="scale(0.015625)"/>
       <path id="DejaVuSans-2f" d="M 628 4666 
L 1259 4666 
L 1259 531 
L 3531 531 
L 3531 0 
L 628 0 
L 628 4666 
z
" transform="scale(0.015625)"/>
      </defs>
      <use xlink:href="#DejaVuSans-46"/>
      <use xlink:href="#DejaVuSans-58" transform="translate(54.984375 0)"/>
      <use xlink:href="#DejaVuSans-55" transform="translate(118.359375 0)"/>
      <use xlink:href="#DejaVuSans-59" transform="translate(159.46875 0)"/>
      <use xlink:href="#DejaVuSans-44" transform="translate(218.65625 0)"/>
      <use xlink:href="#DejaVuSans-57" transform="translate(279.9375 0)"/>
      <use xlink:href="#DejaVuSans-58" transform="translate(319.140625 0)"/>
      <use xlink:href="#DejaVuSans-55" transform="translate(382.515625 0)"/>
      <use xlink:href="#DejaVuSans-48" transform="translate(421.421875 0)"/>
      <use xlink:href="#DejaVuSans-3" transform="translate(482.953125 0)"/>
      <use xlink:href="#DejaVuSans-57" transform="translate(514.734375 0)"/>
      <use xlink:href="#DejaVuSans-44" transform="translate(553.9375 0)"/>
      <use xlink:href="#DejaVuSans-51" transform="translate(615.21875 0)"/>
      <use xlink:href="#DejaVuSans-b" transform="translate(678.59375 0)"/>
      <use xlink:href="#DejaVuSans-47" transform="translate(717.609375 0)"/>
      <use xlink:href="#DejaVuSans-48" transform="translate(781.09375 0)"/>
      <use xlink:href="#DejaVuSans-4f" transform="translate(842.625 0)"/>
      <use xlink:href="#DejaVuSans-57" transform="translate(870.40625 0)"/>
      <use xlink:href="#DejaVuSans-44" transform="translate(909.609375 0)"/>
      <use xlink:href="#DejaVuSans-c" transform="translate(970.890625 0)"/>
      <use xlink:href="#DejaVuSans-12" transform="translate(1009.90625 0)"/>
      <use xlink:href="#DejaVuSans-2f" transform="translate(1043.59375 0)"/>
      <use xlink:href="#DejaVuSans-3" transform="translate(1099.3125 0)"/>
      <use xlink:href="#DejaVuSans-3e" transform="translate(1131.09375 0)"/>
      <use xlink:href="#DejaVuSans-14" transform="translate(1170.109375 0)"/>
      <use xlink:href="#DejaVuSans-12" transform="translate(1233.734375 0)"/>
      <use xlink:href="#DejaVuSans-50" transform="translate(1267.421875 0)"/>
      <use xlink:href="#DejaVuSans-40" transform="translate(1364.828125 0)"/>
     </g>
    </g>
   </g>
   <g id="line2d_46">
    <path d="M 283.498392 159.659397 
L 295.170315 150.687896 
L 303.924257 143.006032 
L 312.678199 127.611515 
L 321.432141 115.329032 
L 340.690814 92.800101 
L 340.690814 92.800101 
L 362.283872 83.189903 
L 371.037814 72.282525 
L 379.791756 60.863061 
L 388.545698 49.986832 
L 400.217621 34.283692 
" clip-path="url(#p6df4e5b221)" style="fill: none; stroke: #2a78d6; stroke-width: 1.5; stroke-linecap: round"/>
    <g clip-path="url(#p6df4e5b221)">
     <use xlink:href="#mb2eb2d061d" x="283.498392" y="159.659397" style="fill: #2a78d6; stroke: #ffffff; stroke-width: 1.2"/>
     <use xlink:href="#mb2eb2d061d" x="295.170315" y="150.687896" style="fill: #2a78d6; stroke: #ffffff; stroke-width: 1.2"/>
     <use xlink:href="#mb2eb2d061d" x="303.924257" y="143.006032" style="fill: #2a78d6; stroke: #ffffff; stroke-width: 1.2"/>
     <use xlink:href="#mb2eb2d061d" x="312.678199" y="127.611515" style="fill: #2a78d6; stroke: #ffffff; stroke-width: 1.2"/>
     <use xlink:href="#mb2eb2d061d" x="321.432141" y="115.329032" style="fill: #2a78d6; stroke: #ffffff; stroke-width: 1.2"/>
     <use xlink:href="#mb2eb2d061d" x="340.690814" y="92.800101" style="fill: #2a78d6; stroke: #ffffff; stroke-width: 1.2"/>
     <use xlink:href="#mb2eb2d061d" x="340.690814" y="92.800101" style="fill: #2a78d6; stroke: #ffffff; stroke-width: 1.2"/>
     <use xlink:href="#mb2eb2d061d" x="362.283872" y="83.189903" style="fill: #2a78d6; stroke: #ffffff; stroke-width: 1.2"/>
     <use xlink:href="#mb2eb2d061d" x="371.037814" y="72.282525" style="fill: #2a78d6; stroke: #ffffff; stroke-width: 1.2"/>
     <use xlink:href="#mb2eb2d061d" x="379.791756" y="60.863061" style="fill: #2a78d6; stroke: #ffffff; stroke-width: 1.2"/>
     <use xlink:href="#mb2eb2d061d" x="388.545698" y="49.986832" style="fill: #2a78d6; stroke: #ffffff; stroke-width: 1.2"/>
     <use xlink:href="#mb2eb2d061d" x="400.217621" y="34.283692" style="fill: #2a78d6; stroke: #ffffff; stroke-width: 1.2"/>
    </g>
   </g>
   <g id="line2d_47">
    <path d="M 283.498392 156.932258 
L 295.170315 150.321823 
L 303.924257 139.147292 
L 312.678199 128.241667 
L 321.432141 117.500561 
L 340.690814 92.800101 
L 340.690814 92.800101 
L 362.283872 82.306008 
L 371.037814 70.9957 
L 379.791756 60.355123 
L 388.545698 46.401067 
L 400.217621 33.658483 
" clip-path="url(#p6df4e5b221)" style="fill: none; stroke: #eb6834; stroke-width: 1.5; stroke-linecap: round"/>
    <g clip-path="url(#p6df4e5b221)">
     <use xlink:href="#m90b25c6df6" x="283.498392" y="156.932258" style="fill: #eb6834; stroke: #ffffff; stroke-width: 1.2"/>
     <use xlink:href="#m90b25c6df6" x="295.170315" y="150.321823" style="fill: #eb6834; stroke: #ffffff; stroke-width: 1.2"/>
     <use xlink:href="#m90b25c6df6" x="303.924257" y="139.147292" style="fill: #eb6834; stroke: #ffffff; stroke-width: 1.2"/>
     <use xlink:href="#m90b25c6df6" x="312.678199" y="128.241667" style="fill: #eb6834; stroke: #ffffff; stroke-width: 1.2"/>
     <use xlink:href="#m90b25c6df6" x="321.432141" y="117.500561" style="fill: #eb6834; stroke: #ffffff; stroke-width: 1.2"/>
     <use xlink:href="#m90b25c6df6" x="340.690814" y="92.800101" style="fill: #eb6834; stroke: #ffffff; stroke-width: 1.2"/>
     <use xlink:href="#m90b25c6df6" x="340.690814" y="92.800101" style="fill: #eb6834; stroke: #ffffff; stroke-width: 1.2"/>
     <use xlink:href="#m90b25c6df6" x="362.283872" y="82.306008" style="fill: #eb6834; stroke: #ffffff; stroke-width: 1.2"/>
     <use xlink:href="#m90b25c6df6" x="371.037814" y="70.9957" style="fill: #eb6834; stroke: #ffffff; stroke-width: 1.2"/>
     <use xlink:href="#m90b25c6df6" x="379.791756" y="60.355123" style="fill: #eb6834; stroke: #ffffff; stroke-width: 1.2"/>
     <use xlink:href="#m90b25c6df6" x="388.545698" y="46.401067" style="fill: #eb6834; stroke: #ffffff; stroke-width: 1.2"/>
     <use xlink:href="#m90b25c6df6" x="400.217621" y="33.658483" style="fill: #eb6834; stroke: #ffffff; stroke-width: 1.2"/>
    </g>
   </g>
   <g id="line2d_48">
    <path d="M 283.498392 155.655943 
L 295.170315 145.768502 
L 303.924257 139.92692 
L 312.678199 129.358291 
L 321.432141 119.295831 
L 340.690814 92.800101 
L 340.690814 92.800101 
L 362.283872 82.401827 
L 371.037814 72.058738 
L 379.791756 60.854685 
L 388.545698 51.330827 
L 400.217621 41.645975 
" clip-path="url(#p6df4e5b221)" style="fill: none; stroke: #1baf7a; stroke-width: 1.5; stroke-linecap: round"/>
    <g clip-path="url(#p6df4e5b221)">
     <use xlink:href="#ma1332b5551" x="283.498392" y="155.655943" style="fill: #1baf7a; stroke: #ffffff; stroke-width: 1.2"/>
     <use xlink:href="#ma1332b5551" x="295.170315" y="145.768502" style="fill: #1baf7a; stroke: #ffffff; stroke-width: 1.2"/>
     <use xlink:href="#ma1332b5551" x="303.924257" y="139.92692" style="fill: #1baf7a; stroke: #ffffff; stroke-width: 1.2"/>
     <use xlink:href="#ma1332b5551" x="312.678199" y="129.358291" style="fill: #1baf7a; stroke: #ffffff; stroke-width: 1.2"/>
     <use xlink:href="#ma1332b5551" x="321.432141" y="119.295831" style="fill: #1baf7a; stroke: #ffffff; stroke-width: 1.2"/>
     <use xlink:href="#ma1332b5551" x="340.690814" y="92.800101" style="fill: #1baf7a; stroke: #ffffff; stroke-width: 1.2"/>
     <use xlink:href="#ma1332b5551" x="340.690814" y="92.800101" style="fill: #1baf7a; stroke: #ffffff; stroke-width: 1.2"/>
     <use xlink:href="#ma1332b5551" x="362.283872" y="82.401827" style="fill: #1baf7a; stroke: #ffffff; stroke-width: 1.2"/>
     <use xlink:href="#ma1332b5551" x="371.037814" y="72.058738" style="fill: #1baf7a; stroke: #ffffff; stroke-width: 1.2"/>
     <use xlink:href="#ma1332b5551" x="379.791756" y="60.854685" style="fill: #1baf7a; stroke: #ffffff; stroke-width: 1.2"/>
     <use xlink:href="#ma1332b5551" x="388.545698" y="51.330827" style="fill: #1baf7a; stroke: #ffffff; stroke-width: 1.2"/>
     <use xlink:href="#ma1332b5551" x="400.217621" y="41.645975" style="fill: #1baf7a; stroke: #ffffff; stroke-width: 1.2"/>
    </g>
   </g>
   <g id="line2d_49">
    <path d="M 277.66243 92.800101 
L 406.053583 92.800101 
" clip-path="url(#p6df4e5b221)" style="fill: none; stroke: #c3c2b7; stroke-width: 0.8; stroke-linecap: round"/>
   </g>
   <g id="line2d_50">
    <path d="M 341.858007 165.959442 
L 341.858007 27.358437 
" clip-path="url(#p6df4e5b221)" style="fill: none; stroke: #c3c2b7; stroke-width: 0.8; stroke-linecap: round"/>
   </g>
   <g id="patch_6">
    <path d="M 277.66243 165.959442 
L 277.66243 27.358437 
" style="fill: none; stroke: #c3c2b7; stroke-width: 0.8; stroke-linejoin: miter; stroke-linecap: square"/>
   </g>
   <g id="patch_7">
    <path d="M 277.66243 165.959442 
L 406.053583 165.959442 
" style="fill: none; stroke: #c3c2b7; stroke-width: 0.8; stroke-linejoin: miter; stroke-linecap: square"/>
   </g>
   <g id="text_26">
    <!-- Curvature -->
    <g style="fill: #0b0b0b" transform="translate(277.66243 13.358437) scale(0.1 -0.1)">
     <defs>
      <path id="DejaVuSans-Bold-26" d="M 4288 256 
Q 3956 84 3597 -3 
Q 3238 -91 2847 -91 
Q 1681 -91 1000 561 
Q 319 1213 319 2328 
Q 319 3447 1000 4098 
Q 1681 4750 2847 4750 
Q 3238 4750 3597 4662 
Q 3956 4575 4288 4403 
L 4288 3438 
Q 3953 3666 3628 3772 
Q 3303 3878 2944 3878 
Q 2300 3878 1931 3465 
Q 1563 3053 1563 2328 
Q 1563 1606 1931 1193 
Q 2300 781 2944 781 
Q 3303 781 3628 887 
Q 3953 994 4288 1222 
L 4288 256 
z
" transform="scale(0.015625)"/>
      <path id="DejaVuSans-Bold-58" d="M 500 1363 
L 500 3500 
L 1625 3500 
L 1625 3150 
Q 1625 2866 1622 2436 
Q 1619 2006 1619 1863 
Q 1619 1441 1641 1255 
Q 1663 1069 1716 984 
Q 1784 875 1895 815 
Q 2006 756 2150 756 
Q 2500 756 2700 1025 
Q 2900 1294 2900 1772 
L 2900 3500 
L 4019 3500 
L 4019 0 
L 2900 0 
L 2900 506 
Q 2647 200 2364 54 
Q 2081 -91 1741 -91 
Q 1134 -91 817 281 
Q 500 653 500 1363 
z
" transform="scale(0.015625)"/>
      <path id="DejaVuSans-Bold-59" d="M 97 3500 
L 1216 3500 
L 2088 1081 
L 2956 3500 
L 4078 3500 
L 2700 0 
L 1472 0 
L 97 3500 
z
" transform="scale(0.015625)"/>
     </defs>
     <use xlink:href="#DejaVuSans-Bold-26"/>
     <use xlink:href="#DejaVuSans-Bold-58" transform="translate(73.390625 0)"/>
     <use xlink:href="#DejaVuSans-Bold-55" transform="translate(144.578125 0)"/>
     <use xlink:href="#DejaVuSans-Bold-59" transform="translate(193.890625 0)"/>
     <use xlink:href="#DejaVuSans-Bold-44" transform="translate(259.078125 0)"/>
     <use xlink:href="#DejaVuSans-Bold-57" transform="translate(326.5625 0)"/>
     <use xlink:href="#DejaVuSans-Bold-58" transform="translate(374.359375 0)"/>
     <use xlink:href="#DejaVuSans-Bold-55" transform="translate(445.546875 0)"/>
     <use xlink:href="#DejaVuSans-Bold-48" transform="translate(494.859375 0)"/>
    </g>
   </g>
   <g id="legend_1">
    <g id="line2d_51">
     <path d="M 214.957382 202.930414 
L 222.957382 202.930414 
L 230.957382 202.930414 
" style="fill: none; stroke: #2a78d6; stroke-width: 1.5; stroke-linecap: round"/>
     <g>
      <use xlink:href="#mb2eb2d061d" x="222.957382" y="202.930414" style="fill: #2a78d6; stroke: #ffffff; stroke-width: 1.2"/>
     </g>
    </g>
    <g id="text_27">
     <!-- v = 0.35 m/s -->
     <g style="fill: #52514e" transform="translate(237.357382 205.730414) scale(0.08 -0.08)">
      <defs>
       <path id="DejaVuSans-11" d="M 684 794 
L 1344 794 
L 1344 0 
L 684 0 
L 684 794 
z
" transform="scale(0.015625)"/>
       <path id="DejaVuSans-16" d="M 2597 2516 
Q 3050 2419 3304 2112 
Q 3559 1806 3559 1356 
Q 3559 666 3084 287 
Q 2609 -91 1734 -91 
Q 1441 -91 1130 -33 
Q 819 25 488 141 
L 488 750 
Q 750 597 1062 519 
Q 1375 441 1716 441 
Q 2309 441 2620 675 
Q 2931 909 2931 1356 
Q 2931 1769 2642 2001 
Q 2353 2234 1838 2234 
L 1294 2234 
L 1294 2753 
L 1863 2753 
Q 2328 2753 2575 2939 
Q 2822 3125 2822 3475 
Q 2822 3834 2567 4026 
Q 2313 4219 1838 4219 
Q 1578 4219 1281 4162 
Q 984 4106 628 3988 
L 628 4550 
Q 988 4650 1302 4700 
Q 1616 4750 1894 4750 
Q 2613 4750 3031 4423 
Q 3450 4097 3450 3541 
Q 3450 3153 3228 2886 
Q 3006 2619 2597 2516 
z
" transform="scale(0.015625)"/>
      </defs>
      <use xlink:href="#DejaVuSans-59"/>
      <use xlink:href="#DejaVuSans-3" transform="translate(59.1875 0)"/>
      <use xlink:href="#DejaVuSans-20" transform="translate(90.96875 0)"/>
      <use xlink:href="#DejaVuSans-3" transform="translate(174.765625 0)"/>
      <use xlink:href="#DejaVuSans-13" transform="translate(206.546875 0)"/>
      <use xlink:href="#DejaVuSans-11" transform="translate(270.171875 0)"/>
      <use xlink:href="#DejaVuSans-16" transform="translate(301.953125 0)"/>
      <use xlink:href="#DejaVuSans-18" transform="translate(365.578125 0)"/>
      <use xlink:href="#DejaVuSans-3" transform="translate(429.203125 0)"/>
      <use xlink:href="#DejaVuSans-50" transform="translate(460.984375 0)"/>
      <use xlink:href="#DejaVuSans-12" transform="translate(558.390625 0)"/>
      <use xlink:href="#DejaVuSans-56" transform="translate(592.078125 0)"/>
     </g>
    </g>
    <g id="line2d_52">
     <path d="M 304.891132 202.930414 
L 312.891132 202.930414 
L 320.891132 202.930414 
" style="fill: none; stroke: #eb6834; stroke-width: 1.5; stroke-linecap: round"/>
     <g>
      <use xlink:href="#m90b25c6df6" x="312.891132" y="202.930414" style="fill: #eb6834; stroke: #ffffff; stroke-width: 1.2"/>
     </g>
    </g>
    <g id="text_28">
     <!-- v = 0.50 m/s -->
     <g style="fill: #52514e" transform="translate(327.291132 205.730414) scale(0.08 -0.08)">
      <use xlink:href="#DejaVuSans-59"/>
      <use xlink:href="#DejaVuSans-3" transform="translate(59.1875 0)"/>
      <use xlink:href="#DejaVuSans-20" transform="translate(90.96875 0)"/>
      <use xlink:href="#DejaVuSans-3" transform="translate(174.765625 0)"/>
      <use xlink:href="#DejaVuSans-13" transform="translate(206.546875 0)"/>
      <use xlink:href="#DejaVuSans-11" transform="translate(270.171875 0)"/>
      <use xlink:href="#DejaVuSans-18" transform="translate(301.953125 0)"/>
      <use xlink:href="#DejaVuSans-13" transform="translate(365.578125 0)"/>
      <use xlink:href="#DejaVuSans-3" transform="translate(429.203125 0)"/>
      <use xlink:href="#DejaVuSans-50" transform="translate(460.984375 0)"/>
      <use xlink:href="#DejaVuSans-12" transform="translate(558.390625 0)"/>
      <use xlink:href="#DejaVuSans-56" transform="translate(592.078125 0)"/>
     </g>
    </g>
    <g id="line2d_53">
     <path d="M 394.824882 202.930414 
L 402.824882 202.930414 
L 410.824882 202.930414 
" style="fill: none; stroke: #1baf7a; stroke-width: 1.5; stroke-linecap: round"/>
     <g>
      <use xlink:href="#ma1332b5551" x="402.824882" y="202.930414" style="fill: #1baf7a; stroke: #ffffff; stroke-width: 1.2"/>
     </g>
    </g>
    <g id="text_29">
     <!-- v = 0.75 m/s -->
     <g style="fill: #52514e" transform="translate(417.224882 205.730414) scale(0.08 -0.08)">
      <defs>
       <path id="DejaVuSans-1a" d="M 525 4666 
L 3525 4666 
L 3525 4397 
L 1831 0 
L 1172 0 
L 2766 4134 
L 525 4134 
L 525 4666 
z
" transform="scale(0.015625)"/>
      </defs>
      <use xlink:href="#DejaVuSans-59"/>
      <use xlink:href="#DejaVuSans-3" transform="translate(59.1875 0)"/>
      <use xlink:href="#DejaVuSans-20" transform="translate(90.96875 0)"/>
      <use xlink:href="#DejaVuSans-3" transform="translate(174.765625 0)"/>
      <use xlink:href="#DejaVuSans-13" transform="translate(206.546875 0)"/>
      <use xlink:href="#DejaVuSans-11" transform="translate(270.171875 0)"/>
      <use xlink:href="#DejaVuSans-1a" transform="translate(301.953125 0)"/>
      <use xlink:href="#DejaVuSans-18" transform="translate(365.578125 0)"/>
      <use xlink:href="#DejaVuSans-3" transform="translate(429.203125 0)"/>
      <use xlink:href="#DejaVuSans-50" transform="translate(460.984375 0)"/>
      <use xlink:href="#DejaVuSans-12" transform="translate(558.390625 0)"/>
      <use xlink:href="#DejaVuSans-56" transform="translate(592.078125 0)"/>
     </g>
    </g>
   </g>
  </g>
  <g id="axes_3">
   <g id="patch_8">
    <path d="M 507.962751 165.959442 
L 636.353904 165.959442 
L 636.353904 27.358437 
L 507.962751 27.358437 
z
" style="fill: #ffffff"/>
   </g>
   <g id="matplotlib.axis_5">
    <g id="xtick_11">
     <g id="line2d_54">
      <path d="M 513.798713 165.959442 
L 513.798713 27.358437 
" clip-path="url(#p7150bd90f6)" style="fill: none; stroke: #e1e0d9; stroke-width: 0.6; stroke-linecap: round"/>
     </g>
     <g id="line2d_55">
      <g>
       <use xlink:href="#m5e57a02975" x="513.798713" y="165.959442" style="fill: #c3c2b7; stroke: #c3c2b7; stroke-width: 0.8"/>
      </g>
     </g>
     <g id="text_30">
      <!-- $\mathdefault{−100}$ -->
      <g style="fill: #52514e" transform="translate(502.798713 179.037567) scale(0.08 -0.08)">
       <use xlink:href="#DejaVuSans-c9c" transform="translate(0 0.78125)"/>
       <use xlink:href="#DejaVuSans-14" transform="translate(83.789062 0.78125)"/>
       <use xlink:href="#DejaVuSans-13" transform="translate(147.412109 0.78125)"/>
       <use xlink:href="#DejaVuSans-13" transform="translate(211.035156 0.78125)"/>
      </g>
     </g>
    </g>
    <g id="xtick_12">
     <g id="line2d_56">
      <path d="M 542.97852 165.959442 
L 542.97852 27.358437 
" clip-path="url(#p7150bd90f6)" style="fill: none; stroke: #e1e0d9; stroke-width: 0.6; stroke-linecap: round"/>
     </g>
     <g id="line2d_57">
      <g>
       <use xlink:href="#m5e57a02975" x="542.97852" y="165.959442" style="fill: #c3c2b7; stroke: #c3c2b7; stroke-width: 0.8"/>
      </g>
     </g>
     <g id="text_31">
      <!-- $\mathdefault{−50}$ -->
      <g style="fill: #52514e" transform="translate(534.49852 179.037567) scale(0.08 -0.08)">
       <use xlink:href="#DejaVuSans-c9c" transform="translate(0 0.78125)"/>
       <use xlink:href="#DejaVuSans-18" transform="translate(83.789062 0.78125)"/>
       <use xlink:href="#DejaVuSans-13" transform="translate(147.412109 0.78125)"/>
      </g>
     </g>
    </g>
    <g id="xtick_13">
     <g id="line2d_58">
      <path d="M 572.158327 165.959442 
L 572.158327 27.358437 
" clip-path="url(#p7150bd90f6)" style="fill: none; stroke: #e1e0d9; stroke-width: 0.6; stroke-linecap: round"/>
     </g>
     <g id="line2d_59">
      <g>
       <use xlink:href="#m5e57a02975" x="572.158327" y="165.959442" style="fill: #c3c2b7; stroke: #c3c2b7; stroke-width: 0.8"/>
      </g>
     </g>
     <g id="text_32">
      <!-- $\mathdefault{0}$ -->
      <g style="fill: #52514e" transform="translate(569.598327 179.037567) scale(0.08 -0.08)">
       <use xlink:href="#DejaVuSans-13" transform="translate(0 0.78125)"/>
      </g>
     </g>
    </g>
    <g id="xtick_14">
     <g id="line2d_60">
      <path d="M 601.338135 165.959442 
L 601.338135 27.358437 
" clip-path="url(#p7150bd90f6)" style="fill: none; stroke: #e1e0d9; stroke-width: 0.6; stroke-linecap: round"/>
     </g>
     <g id="line2d_61">
      <g>
       <use xlink:href="#m5e57a02975" x="601.338135" y="165.959442" style="fill: #c3c2b7; stroke: #c3c2b7; stroke-width: 0.8"/>
      </g>
     </g>
     <g id="text_33">
      <!-- $\mathdefault{50}$ -->
      <g style="fill: #52514e" transform="translate(596.218135 179.037567) scale(0.08 -0.08)">
       <use xlink:href="#DejaVuSans-18" transform="translate(0 0.78125)"/>
       <use xlink:href="#DejaVuSans-13" transform="translate(63.623047 0.78125)"/>
      </g>
     </g>
    </g>
    <g id="xtick_15">
     <g id="line2d_62">
      <path d="M 630.517942 165.959442 
L 630.517942 27.358437 
" clip-path="url(#p7150bd90f6)" style="fill: none; stroke: #e1e0d9; stroke-width: 0.6; stroke-linecap: round"/>
     </g>
     <g id="line2d_63">
      <g>
       <use xlink:href="#m5e57a02975" x="630.517942" y="165.959442" style="fill: #c3c2b7; stroke: #c3c2b7; stroke-width: 0.8"/>
      </g>
     </g>
     <g id="text_34">
      <!-- $\mathdefault{100}$ -->
      <g style="fill: #52514e" transform="translate(622.877942 179.037567) scale(0.08 -0.08)">
       <use xlink:href="#DejaVuSans-14" transform="translate(0 0.78125)"/>
       <use xlink:href="#DejaVuSans-13" transform="translate(63.623047 0.78125)"/>
       <use xlink:href="#DejaVuSans-13" transform="translate(127.246094 0.78125)"/>
      </g>
     </g>
    </g>
    <g id="text_35">
     <!-- servo command [%]  (+ = left) -->
     <g style="fill: #52514e" transform="translate(502.608015 191.798036) scale(0.09 -0.09)">
      <use xlink:href="#DejaVuSans-56"/>
      <use xlink:href="#DejaVuSans-48" transform="translate(52.09375 0)"/>
      <use xlink:href="#DejaVuSans-55" transform="translate(113.625 0)"/>
      <use xlink:href="#DejaVuSans-59" transform="translate(154.734375 0)"/>
      <use xlink:href="#DejaVuSans-52" transform="translate(213.921875 0)"/>
      <use xlink:href="#DejaVuSans-3" transform="translate(275.109375 0)"/>
      <use xlink:href="#DejaVuSans-46" transform="translate(306.890625 0)"/>
      <use xlink:href="#DejaVuSans-52" transform="translate(361.875 0)"/>
      <use xlink:href="#DejaVuSans-50" transform="translate(423.0625 0)"/>
      <use xlink:href="#DejaVuSans-50" transform="translate(520.46875 0)"/>
      <use xlink:href="#DejaVuSans-44" transform="translate(617.875 0)"/>
      <use xlink:href="#DejaVuSans-51" transform="translate(679.15625 0)"/>
      <use xlink:href="#DejaVuSans-47" transform="translate(742.53125 0)"/>
      <use xlink:href="#DejaVuSans-3" transform="translate(806.015625 0)"/>
      <use xlink:href="#DejaVuSans-3e" transform="translate(837.796875 0)"/>
      <use xlink:href="#DejaVuSans-8" transform="translate(876.8125 0)"/>
      <use xlink:href="#DejaVuSans-40" transform="translate(971.828125 0)"/>
      <use xlink:href="#DejaVuSans-3" transform="translate(1010.84375 0)"/>
      <use xlink:href="#DejaVuSans-3" transform="translate(1042.625 0)"/>
      <use xlink:href="#DejaVuSans-b" transform="translate(1074.40625 0)"/>
      <use xlink:href="#DejaVuSans-e" transform="translate(1113.421875 0)"/>
      <use xlink:href="#DejaVuSans-3" transform="translate(1197.21875 0)"/>
      <use xlink:href="#DejaVuSans-20" transform="translate(1229 0)"/>
      <use xlink:href="#DejaVuSans-3" transform="translate(1312.796875 0)"/>
      <use xlink:href="#DejaVuSans-4f" transform="translate(1344.578125 0)"/>
      <use xlink:href="#DejaVuSans-48" transform="translate(1372.359375 0)"/>
      <use xlink:href="#DejaVuSans-49" transform="translate(1433.890625 0)"/>
      <use xlink:href="#DejaVuSans-57" transform="translate(1467.34375 0)"/>
      <use xlink:href="#DejaVuSans-c" transform="translate(1506.546875 0)"/>
     </g>
    </g>
   </g>
   <g id="matplotlib.axis_6">
    <g id="ytick_11">
     <g id="line2d_64">
      <path d="M 507.962751 151.123402 
L 636.353904 151.123402 
" clip-path="url(#p7150bd90f6)" style="fill: none; stroke: #e1e0d9; stroke-width: 0.6; stroke-linecap: round"/>
     </g>
     <g id="line2d_65">
      <g>
       <use xlink:href="#mc659222dda" x="507.962751" y="151.123402" style="fill: #c3c2b7; stroke: #c3c2b7; stroke-width: 0.8"/>
      </g>
     </g>
     <g id="text_36">
      <!-- $\mathdefault{−3}$ -->
      <g style="fill: #52514e" transform="translate(489.122751 154.162464) scale(0.08 -0.08)">
       <use xlink:href="#DejaVuSans-c9c" transform="translate(0 0.78125)"/>
       <use xlink:href="#DejaVuSans-16" transform="translate(83.789062 0.78125)"/>
      </g>
     </g>
    </g>
    <g id="ytick_12">
     <g id="line2d_66">
      <path d="M 507.962751 128.508626 
L 636.353904 128.508626 
" clip-path="url(#p7150bd90f6)" style="fill: none; stroke: #e1e0d9; stroke-width: 0.6; stroke-linecap: round"/>
     </g>
     <g id="line2d_67">
      <g>
       <use xlink:href="#mc659222dda" x="507.962751" y="128.508626" style="fill: #c3c2b7; stroke: #c3c2b7; stroke-width: 0.8"/>
      </g>
     </g>
     <g id="text_37">
      <!-- $\mathdefault{−2}$ -->
      <g style="fill: #52514e" transform="translate(489.122751 131.547688) scale(0.08 -0.08)">
       <use xlink:href="#DejaVuSans-c9c" transform="translate(0 0.78125)"/>
       <use xlink:href="#DejaVuSans-15" transform="translate(83.789062 0.78125)"/>
      </g>
     </g>
    </g>
    <g id="ytick_13">
     <g id="line2d_68">
      <path d="M 507.962751 105.89385 
L 636.353904 105.89385 
" clip-path="url(#p7150bd90f6)" style="fill: none; stroke: #e1e0d9; stroke-width: 0.6; stroke-linecap: round"/>
     </g>
     <g id="line2d_69">
      <g>
       <use xlink:href="#mc659222dda" x="507.962751" y="105.89385" style="fill: #c3c2b7; stroke: #c3c2b7; stroke-width: 0.8"/>
      </g>
     </g>
     <g id="text_38">
      <!-- $\mathdefault{−1}$ -->
      <g style="fill: #52514e" transform="translate(489.122751 108.932913) scale(0.08 -0.08)">
       <use xlink:href="#DejaVuSans-c9c" transform="translate(0 0.09375)"/>
       <use xlink:href="#DejaVuSans-14" transform="translate(83.789062 0.09375)"/>
      </g>
     </g>
    </g>
    <g id="ytick_14">
     <g id="line2d_70">
      <path d="M 507.962751 83.279074 
L 636.353904 83.279074 
" clip-path="url(#p7150bd90f6)" style="fill: none; stroke: #e1e0d9; stroke-width: 0.6; stroke-linecap: round"/>
     </g>
     <g id="line2d_71">
      <g>
       <use xlink:href="#mc659222dda" x="507.962751" y="83.279074" style="fill: #c3c2b7; stroke: #c3c2b7; stroke-width: 0.8"/>
      </g>
     </g>
     <g id="text_39">
      <!-- $\mathdefault{0}$ -->
      <g style="fill: #52514e" transform="translate(495.842751 86.318137) scale(0.08 -0.08)">
       <use xlink:href="#DejaVuSans-13" transform="translate(0 0.78125)"/>
      </g>
     </g>
    </g>
    <g id="ytick_15">
     <g id="line2d_72">
      <path d="M 507.962751 60.664298 
L 636.353904 60.664298 
" clip-path="url(#p7150bd90f6)" style="fill: none; stroke: #e1e0d9; stroke-width: 0.6; stroke-linecap: round"/>
     </g>
     <g id="line2d_73">
      <g>
       <use xlink:href="#mc659222dda" x="507.962751" y="60.664298" style="fill: #c3c2b7; stroke: #c3c2b7; stroke-width: 0.8"/>
      </g>
     </g>
     <g id="text_40">
      <!-- $\mathdefault{1}$ -->
      <g style="fill: #52514e" transform="translate(495.842751 63.703361) scale(0.08 -0.08)">
       <use xlink:href="#DejaVuSans-14" transform="translate(0 0.09375)"/>
      </g>
     </g>
    </g>
    <g id="ytick_16">
     <g id="line2d_74">
      <path d="M 507.962751 38.049523 
L 636.353904 38.049523 
" clip-path="url(#p7150bd90f6)" style="fill: none; stroke: #e1e0d9; stroke-width: 0.6; stroke-linecap: round"/>
     </g>
     <g id="line2d_75">
      <g>
       <use xlink:href="#mc659222dda" x="507.962751" y="38.049523" style="fill: #c3c2b7; stroke: #c3c2b7; stroke-width: 0.8"/>
      </g>
     </g>
     <g id="text_41">
      <!-- $\mathdefault{2}$ -->
      <g style="fill: #52514e" transform="translate(495.842751 41.088585) scale(0.08 -0.08)">
       <use xlink:href="#DejaVuSans-15" transform="translate(0 0.78125)"/>
      </g>
     </g>
    </g>
    <g id="text_42">
     <!-- deviation from linear fit [deg] -->
     <g style="fill: #52514e" transform="translate(482.960642 163.088784) rotate(-90) scale(0.09 -0.09)">
      <defs>
       <path id="DejaVuSans-4c" d="M 603 3500 
L 1178 3500 
L 1178 0 
L 603 0 
L 603 3500 
z
M 603 4863 
L 1178 4863 
L 1178 4134 
L 603 4134 
L 603 4863 
z
" transform="scale(0.015625)"/>
       <path id="DejaVuSans-13af" d="M 3431 3500 
L 3431 0 
L 2853 0 
L 2853 3053 
L 1275 3053 
L 1275 0 
L 697 0 
L 697 3053 
L 147 3053 
L 147 3500 
L 697 3500 
L 697 3744 
Q 697 4316 967 4589 
Q 1238 4863 1797 4863 
L 2375 4863 
L 2375 4384 
L 1825 4384 
Q 1516 4384 1395 4259 
Q 1275 4134 1275 3809 
L 1275 3500 
L 3431 3500 
z
M 2853 4856 
L 3431 4856 
L 3431 4128 
L 2853 4128 
L 2853 4856 
z
" transform="scale(0.015625)"/>
      </defs>
      <use xlink:href="#DejaVuSans-47"/>
      <use xlink:href="#DejaVuSans-48" transform="translate(63.484375 0)"/>
      <use xlink:href="#DejaVuSans-59" transform="translate(125.015625 0)"/>
      <use xlink:href="#DejaVuSans-4c" transform="translate(184.203125 0)"/>
      <use xlink:href="#DejaVuSans-44" transform="translate(211.984375 0)"/>
      <use xlink:href="#DejaVuSans-57" transform="translate(273.265625 0)"/>
      <use xlink:href="#DejaVuSans-4c" transform="translate(312.46875 0)"/>
      <use xlink:href="#DejaVuSans-52" transform="translate(340.25 0)"/>
      <use xlink:href="#DejaVuSans-51" transform="translate(401.4375 0)"/>
      <use xlink:href="#DejaVuSans-3" transform="translate(464.8125 0)"/>
      <use xlink:href="#DejaVuSans-49" transform="translate(496.59375 0)"/>
      <use xlink:href="#DejaVuSans-55" transform="translate(531.796875 0)"/>
      <use xlink:href="#DejaVuSans-52" transform="translate(570.703125 0)"/>
      <use xlink:href="#DejaVuSans-50" transform="translate(631.890625 0)"/>
      <use xlink:href="#DejaVuSans-3" transform="translate(729.296875 0)"/>
      <use xlink:href="#DejaVuSans-4f" transform="translate(761.078125 0)"/>
      <use xlink:href="#DejaVuSans-4c" transform="translate(788.859375 0)"/>
      <use xlink:href="#DejaVuSans-51" transform="translate(816.640625 0)"/>
      <use xlink:href="#DejaVuSans-48" transform="translate(880.015625 0)"/>
      <use xlink:href="#DejaVuSans-44" transform="translate(941.546875 0)"/>
      <use xlink:href="#DejaVuSans-55" transform="translate(1002.828125 0)"/>
      <use xlink:href="#DejaVuSans-3" transform="translate(1043.9375 0)"/>
      <use xlink:href="#DejaVuSans-13af" transform="translate(1075.71875 0)"/>
      <use xlink:href="#DejaVuSans-57" transform="translate(1138.703125 0)"/>
      <use xlink:href="#DejaVuSans-3" transform="translate(1177.90625 0)"/>
      <use xlink:href="#DejaVuSans-3e" transform="translate(1209.6875 0)"/>
      <use xlink:href="#DejaVuSans-47" transform="translate(1248.703125 0)"/>
      <use xlink:href="#DejaVuSans-48" transform="translate(1312.1875 0)"/>
      <use xlink:href="#DejaVuSans-4a" transform="translate(1373.71875 0)"/>
      <use xlink:href="#DejaVuSans-40" transform="translate(1437.203125 0)"/>
     </g>
    </g>
   </g>
   <g id="line2d_76">
    <path d="M 570.991135 83.279074 
L 592.584193 159.659397 
L 601.338135 129.122232 
L 610.092077 96.197656 
L 618.846019 70.911259 
L 630.517942 33.658483 
" clip-path="url(#p7150bd90f6)" style="fill: none; stroke: #2a78d6; stroke-width: 1.5; stroke-linecap: round"/>
    <g clip-path="url(#p7150bd90f6)">
     <use xlink:href="#mb2eb2d061d" x="570.991135" y="83.279074" style="fill: #2a78d6; stroke: #ffffff; stroke-width: 1.2"/>
     <use xlink:href="#mb2eb2d061d" x="592.584193" y="159.659397" style="fill: #2a78d6; stroke: #ffffff; stroke-width: 1.2"/>
     <use xlink:href="#mb2eb2d061d" x="601.338135" y="129.122232" style="fill: #2a78d6; stroke: #ffffff; stroke-width: 1.2"/>
     <use xlink:href="#mb2eb2d061d" x="610.092077" y="96.197656" style="fill: #2a78d6; stroke: #ffffff; stroke-width: 1.2"/>
     <use xlink:href="#mb2eb2d061d" x="618.846019" y="70.911259" style="fill: #2a78d6; stroke: #ffffff; stroke-width: 1.2"/>
     <use xlink:href="#mb2eb2d061d" x="630.517942" y="33.658483" style="fill: #2a78d6; stroke: #ffffff; stroke-width: 1.2"/>
    </g>
   </g>
   <g id="line2d_77">
    <path d="M 513.798713 40.722108 
L 525.470636 95.902347 
L 534.224578 127.776856 
L 542.97852 93.434267 
L 551.732462 80.10204 
L 570.991135 83.279074 
" clip-path="url(#p7150bd90f6)" style="fill: none; stroke: #2a78d6; stroke-width: 1.5; stroke-linecap: round"/>
    <g clip-path="url(#p7150bd90f6)">
     <use xlink:href="#mb2eb2d061d" x="513.798713" y="40.722108" style="fill: #2a78d6; stroke: #ffffff; stroke-width: 1.2"/>
     <use xlink:href="#mb2eb2d061d" x="525.470636" y="95.902347" style="fill: #2a78d6; stroke: #ffffff; stroke-width: 1.2"/>
     <use xlink:href="#mb2eb2d061d" x="534.224578" y="127.776856" style="fill: #2a78d6; stroke: #ffffff; stroke-width: 1.2"/>
     <use xlink:href="#mb2eb2d061d" x="542.97852" y="93.434267" style="fill: #2a78d6; stroke: #ffffff; stroke-width: 1.2"/>
     <use xlink:href="#mb2eb2d061d" x="551.732462" y="80.10204" style="fill: #2a78d6; stroke: #ffffff; stroke-width: 1.2"/>
     <use xlink:href="#mb2eb2d061d" x="570.991135" y="83.279074" style="fill: #2a78d6; stroke: #ffffff; stroke-width: 1.2"/>
    </g>
   </g>
   <g id="line2d_78">
    <path d="M 570.991135 83.279074 
L 592.584193 157.645558 
L 601.338135 126.0799 
L 610.092077 102.439226 
L 618.846019 54.611599 
L 630.517942 44.94378 
" clip-path="url(#p7150bd90f6)" style="fill: none; stroke: #eb6834; stroke-width: 1.5; stroke-linecap: round"/>
    <g clip-path="url(#p7150bd90f6)">
     <use xlink:href="#m90b25c6df6" x="570.991135" y="83.279074" style="fill: #eb6834; stroke: #ffffff; stroke-width: 1.2"/>
     <use xlink:href="#m90b25c6df6" x="592.584193" y="157.645558" style="fill: #eb6834; stroke: #ffffff; stroke-width: 1.2"/>
     <use xlink:href="#m90b25c6df6" x="601.338135" y="126.0799" style="fill: #eb6834; stroke: #ffffff; stroke-width: 1.2"/>
     <use xlink:href="#m90b25c6df6" x="610.092077" y="102.439226" style="fill: #eb6834; stroke: #ffffff; stroke-width: 1.2"/>
     <use xlink:href="#m90b25c6df6" x="618.846019" y="54.611599" style="fill: #eb6834; stroke: #ffffff; stroke-width: 1.2"/>
     <use xlink:href="#m90b25c6df6" x="630.517942" y="44.94378" style="fill: #eb6834; stroke: #ffffff; stroke-width: 1.2"/>
    </g>
   </g>
   <g id="line2d_79">
    <path d="M 513.798713 34.436093 
L 525.470636 104.167537 
L 534.224578 105.739711 
L 542.97852 105.565366 
L 551.732462 103.659377 
L 570.991135 83.279074 
" clip-path="url(#p7150bd90f6)" style="fill: none; stroke: #eb6834; stroke-width: 1.5; stroke-linecap: round"/>
    <g clip-path="url(#p7150bd90f6)">
     <use xlink:href="#m90b25c6df6" x="513.798713" y="34.436093" style="fill: #eb6834; stroke: #ffffff; stroke-width: 1.2"/>
     <use xlink:href="#m90b25c6df6" x="525.470636" y="104.167537" style="fill: #eb6834; stroke: #ffffff; stroke-width: 1.2"/>
     <use xlink:href="#m90b25c6df6" x="534.224578" y="105.739711" style="fill: #eb6834; stroke: #ffffff; stroke-width: 1.2"/>
     <use xlink:href="#m90b25c6df6" x="542.97852" y="105.565366" style="fill: #eb6834; stroke: #ffffff; stroke-width: 1.2"/>
     <use xlink:href="#m90b25c6df6" x="551.732462" y="103.659377" style="fill: #eb6834; stroke: #ffffff; stroke-width: 1.2"/>
     <use xlink:href="#m90b25c6df6" x="570.991135" y="83.279074" style="fill: #eb6834; stroke: #ffffff; stroke-width: 1.2"/>
    </g>
   </g>
   <g id="line2d_80">
    <path d="M 570.991135 83.279074 
L 592.584193 143.442616 
L 601.338135 114.205638 
L 610.092077 79.427621 
L 618.846019 61.529859 
L 630.517942 65.7031 
" clip-path="url(#p7150bd90f6)" style="fill: none; stroke: #1baf7a; stroke-width: 1.5; stroke-linecap: round"/>
    <g clip-path="url(#p7150bd90f6)">
     <use xlink:href="#ma1332b5551" x="570.991135" y="83.279074" style="fill: #1baf7a; stroke: #ffffff; stroke-width: 1.2"/>
     <use xlink:href="#ma1332b5551" x="592.584193" y="143.442616" style="fill: #1baf7a; stroke: #ffffff; stroke-width: 1.2"/>
     <use xlink:href="#ma1332b5551" x="601.338135" y="114.205638" style="fill: #1baf7a; stroke: #ffffff; stroke-width: 1.2"/>
     <use xlink:href="#ma1332b5551" x="610.092077" y="79.427621" style="fill: #1baf7a; stroke: #ffffff; stroke-width: 1.2"/>
     <use xlink:href="#ma1332b5551" x="618.846019" y="61.529859" style="fill: #1baf7a; stroke: #ffffff; stroke-width: 1.2"/>
     <use xlink:href="#ma1332b5551" x="630.517942" y="65.7031" style="fill: #1baf7a; stroke: #ffffff; stroke-width: 1.2"/>
    </g>
   </g>
   <g id="line2d_81">
    <path d="M 513.798713 34.844944 
L 525.470636 76.622831 
L 534.224578 118.447363 
L 542.97852 119.828972 
L 551.732462 122.543754 
L 570.991135 83.279074 
" clip-path="url(#p7150bd90f6)" style="fill: none; stroke: #1baf7a; stroke-width: 1.5; stroke-linecap: round"/>
    <g clip-path="url(#p7150bd90f6)">
     <use xlink:href="#ma1332b5551" x="513.798713" y="34.844944" style="fill: #1baf7a; stroke: #ffffff; stroke-width: 1.2"/>
     <use xlink:href="#ma1332b5551" x="525.470636" y="76.622831" style="fill: #1baf7a; stroke: #ffffff; stroke-width: 1.2"/>
     <use xlink:href="#ma1332b5551" x="534.224578" y="118.447363" style="fill: #1baf7a; stroke: #ffffff; stroke-width: 1.2"/>
     <use xlink:href="#ma1332b5551" x="542.97852" y="119.828972" style="fill: #1baf7a; stroke: #ffffff; stroke-width: 1.2"/>
     <use xlink:href="#ma1332b5551" x="551.732462" y="122.543754" style="fill: #1baf7a; stroke: #ffffff; stroke-width: 1.2"/>
     <use xlink:href="#ma1332b5551" x="570.991135" y="83.279074" style="fill: #1baf7a; stroke: #ffffff; stroke-width: 1.2"/>
    </g>
   </g>
   <g id="line2d_82">
    <path d="M 507.962751 83.279074 
L 636.353904 83.279074 
" clip-path="url(#p7150bd90f6)" style="fill: none; stroke: #c3c2b7; stroke-width: 0.8; stroke-linecap: round"/>
   </g>
   <g id="line2d_83">
    <path d="M 572.158327 165.959442 
L 572.158327 27.358437 
" clip-path="url(#p7150bd90f6)" style="fill: none; stroke: #c3c2b7; stroke-width: 0.8; stroke-linecap: round"/>
   </g>
   <g id="patch_9">
    <path d="M 507.962751 165.959442 
L 507.962751 27.358437 
" style="fill: none; stroke: #c3c2b7; stroke-width: 0.8; stroke-linejoin: miter; stroke-linecap: square"/>
   </g>
   <g id="patch_10">
    <path d="M 507.962751 165.959442 
L 636.353904 165.959442 
" style="fill: none; stroke: #c3c2b7; stroke-width: 0.8; stroke-linejoin: miter; stroke-linecap: square"/>
   </g>
   <g id="text_43">
    <!-- Nonlinearity per side -->
    <g style="fill: #0b0b0b" transform="translate(507.962751 13.358437) scale(0.1 -0.1)">
     <defs>
      <path id="DejaVuSans-Bold-31" d="M 588 4666 
L 1931 4666 
L 3628 1466 
L 3628 4666 
L 4769 4666 
L 4769 0 
L 3425 0 
L 1728 3200 
L 1728 0 
L 588 0 
L 588 4666 
z
" transform="scale(0.015625)"/>
      <path id="DejaVuSans-Bold-52" d="M 2203 2784 
Q 1831 2784 1636 2517 
Q 1441 2250 1441 1747 
Q 1441 1244 1636 976 
Q 1831 709 2203 709 
Q 2569 709 2762 976 
Q 2956 1244 2956 1747 
Q 2956 2250 2762 2517 
Q 2569 2784 2203 2784 
z
M 2203 3584 
Q 3106 3584 3614 3096 
Q 4122 2609 4122 1747 
Q 4122 884 3614 396 
Q 3106 -91 2203 -91 
Q 1297 -91 786 396 
Q 275 884 275 1747 
Q 275 2609 786 3096 
Q 1297 3584 2203 3584 
z
" transform="scale(0.015625)"/>
      <path id="DejaVuSans-Bold-5c" d="M 78 3500 
L 1197 3500 
L 2138 1125 
L 2938 3500 
L 4056 3500 
L 2584 -331 
Q 2363 -916 2067 -1148 
Q 1772 -1381 1288 -1381 
L 641 -1381 
L 641 -647 
L 991 -647 
Q 1275 -647 1404 -556 
Q 1534 -466 1606 -231 
L 1638 -134 
L 78 3500 
z
" transform="scale(0.015625)"/>
      <path id="DejaVuSans-Bold-53" d="M 1656 506 
L 1656 -1331 
L 538 -1331 
L 538 3500 
L 1656 3500 
L 1656 2988 
Q 1888 3294 2169 3439 
Q 2450 3584 2816 3584 
Q 3463 3584 3878 3070 
Q 4294 2556 4294 1747 
Q 4294 938 3878 423 
Q 3463 -91 2816 -91 
Q 2450 -91 2169 54 
Q 1888 200 1656 506 
z
M 2400 2772 
Q 2041 2772 1848 2508 
Q 1656 2244 1656 1747 
Q 1656 1250 1848 986 
Q 2041 722 2400 722 
Q 2759 722 2948 984 
Q 3138 1247 3138 1747 
Q 3138 2247 2948 2509 
Q 2759 2772 2400 2772 
z
" transform="scale(0.015625)"/>
      <path id="DejaVuSans-Bold-56" d="M 3272 3391 
L 3272 2541 
Q 2913 2691 2578 2766 
Q 2244 2841 1947 2841 
Q 1628 2841 1473 2761 
Q 1319 2681 1319 2516 
Q 1319 2381 1436 2309 
Q 1553 2238 1856 2203 
L 2053 2175 
Q 2913 2066 3209 1816 
Q 3506 1566 3506 1031 
Q 3506 472 3093 190 
Q 2681 -91 1863 -91 
Q 1516 -91 1145 -36 
Q 775 19 384 128 
L 384 978 
Q 719 816 1070 734 
Q 1422 653 1784 653 
Q 2113 653 2278 743 
Q 2444 834 2444 1013 
Q 2444 1163 2330 1236 
Q 2216 1309 1875 1350 
L 1678 1375 
Q 931 1469 631 1722 
Q 331 1975 331 2491 
Q 331 3047 712 3315 
Q 1094 3584 1881 3584 
Q 2191 3584 2531 3537 
Q 2872 3491 3272 3391 
z
" transform="scale(0.015625)"/>
      <path id="DejaVuSans-Bold-47" d="M 2919 2988 
L 2919 4863 
L 4044 4863 
L 4044 0 
L 2919 0 
L 2919 506 
Q 2688 197 2409 53 
Q 2131 -91 1766 -91 
Q 1119 -91 703 423 
Q 288 938 288 1747 
Q 288 2556 703 3070 
Q 1119 3584 1766 3584 
Q 2128 3584 2408 3439 
Q 2688 3294 2919 2988 
z
M 2181 722 
Q 2541 722 2730 984 
Q 2919 1247 2919 1747 
Q 2919 2247 2730 2509 
Q 2541 2772 2181 2772 
Q 1825 2772 1636 2509 
Q 1447 2247 1447 1747 
Q 1447 1247 1636 984 
Q 1825 722 2181 722 
z
" transform="scale(0.015625)"/>
     </defs>
     <use xlink:href="#DejaVuSans-Bold-31"/>
     <use xlink:href="#DejaVuSans-Bold-52" transform="translate(83.6875 0)"/>
     <use xlink:href="#DejaVuSans-Bold-51" transform="translate(152.390625 0)"/>
     <use xlink:href="#DejaVuSans-Bold-4f" transform="translate(223.578125 0)"/>
     <use xlink:href="#DejaVuSans-Bold-4c" transform="translate(257.859375 0)"/>
     <use xlink:href="#DejaVuSans-Bold-51" transform="translate(292.140625 0)"/>
     <use xlink:href="#DejaVuSans-Bold-48" transform="translate(363.328125 0)"/>
     <use xlink:href="#DejaVuSans-Bold-44" transform="translate(431.15625 0)"/>
     <use xlink:href="#DejaVuSans-Bold-55" transform="translate(498.640625 0)"/>
     <use xlink:href="#DejaVuSans-Bold-4c" transform="translate(547.953125 0)"/>
     <use xlink:href="#DejaVuSans-Bold-57" transform="translate(582.234375 0)"/>
     <use xlink:href="#DejaVuSans-Bold-5c" transform="translate(630.03125 0)"/>
     <use xlink:href="#DejaVuSans-Bold-3" transform="translate(695.21875 0)"/>
     <use xlink:href="#DejaVuSans-Bold-53" transform="translate(730.03125 0)"/>
     <use xlink:href="#DejaVuSans-Bold-48" transform="translate(801.609375 0)"/>
     <use xlink:href="#DejaVuSans-Bold-55" transform="translate(869.4375 0)"/>
     <use xlink:href="#DejaVuSans-Bold-3" transform="translate(918.75 0)"/>
     <use xlink:href="#DejaVuSans-Bold-56" transform="translate(953.5625 0)"/>
     <use xlink:href="#DejaVuSans-Bold-4c" transform="translate(1013.078125 0)"/>
     <use xlink:href="#DejaVuSans-Bold-47" transform="translate(1047.359375 0)"/>
     <use xlink:href="#DejaVuSans-Bold-48" transform="translate(1118.9375 0)"/>
    </g>
   </g>
  </g>
  <g id="text_44">
   <!-- Source: steer_calib.json (L = 0.100 m)  |  plot_steer_lut.py -->
   <g style="fill: #898781" transform="translate(5.76 238.102397) scale(0.07 -0.07)">
    <defs>
     <path id="DejaVuSans-36" d="M 3425 4513 
L 3425 3897 
Q 3066 4069 2747 4153 
Q 2428 4238 2131 4238 
Q 1616 4238 1336 4038 
Q 1056 3838 1056 3469 
Q 1056 3159 1242 3001 
Q 1428 2844 1947 2747 
L 2328 2669 
Q 3034 2534 3370 2195 
Q 3706 1856 3706 1288 
Q 3706 609 3251 259 
Q 2797 -91 1919 -91 
Q 1588 -91 1214 -16 
Q 841 59 441 206 
L 441 856 
Q 825 641 1194 531 
Q 1563 422 1919 422 
Q 2459 422 2753 634 
Q 3047 847 3047 1241 
Q 3047 1584 2836 1778 
Q 2625 1972 2144 2069 
L 1759 2144 
Q 1053 2284 737 2584 
Q 422 2884 422 3419 
Q 422 4038 858 4394 
Q 1294 4750 2059 4750 
Q 2388 4750 2728 4690 
Q 3069 4631 3425 4513 
z
" transform="scale(0.015625)"/>
     <path id="DejaVuSans-1d" d="M 750 794 
L 1409 794 
L 1409 0 
L 750 0 
L 750 794 
z
M 750 3309 
L 1409 3309 
L 1409 2516 
L 750 2516 
L 750 3309 
z
" transform="scale(0.015625)"/>
     <path id="DejaVuSans-42" d="M 3263 -1063 
L 3263 -1509 
L -63 -1509 
L -63 -1063 
L 3263 -1063 
z
" transform="scale(0.015625)"/>
     <path id="DejaVuSans-45" d="M 3116 1747 
Q 3116 2381 2855 2742 
Q 2594 3103 2138 3103 
Q 1681 3103 1420 2742 
Q 1159 2381 1159 1747 
Q 1159 1113 1420 752 
Q 1681 391 2138 391 
Q 2594 391 2855 752 
Q 3116 1113 3116 1747 
z
M 1159 2969 
Q 1341 3281 1617 3432 
Q 1894 3584 2278 3584 
Q 2916 3584 3314 3078 
Q 3713 2572 3713 1747 
Q 3713 922 3314 415 
Q 2916 -91 2278 -91 
Q 1894 -91 1617 61 
Q 1341 213 1159 525 
L 1159 0 
L 581 0 
L 581 4863 
L 1159 4863 
L 1159 2969 
z
" transform="scale(0.015625)"/>
     <path id="DejaVuSans-4d" d="M 603 3500 
L 1178 3500 
L 1178 -63 
Q 1178 -731 923 -1031 
Q 669 -1331 103 -1331 
L -116 -1331 
L -116 -844 
L 38 -844 
Q 366 -844 484 -692 
Q 603 -541 603 -63 
L 603 3500 
z
M 603 4863 
L 1178 4863 
L 1178 4134 
L 603 4134 
L 603 4863 
z
" transform="scale(0.015625)"/>
     <path id="DejaVuSans-5f" d="M 1344 4891 
L 1344 -1509 
L 813 -1509 
L 813 4891 
L 1344 4891 
z
" transform="scale(0.015625)"/>
     <path id="DejaVuSans-53" d="M 1159 525 
L 1159 -1331 
L 581 -1331 
L 581 3500 
L 1159 3500 
L 1159 2969 
Q 1341 3281 1617 3432 
Q 1894 3584 2278 3584 
Q 2916 3584 3314 3078 
Q 3713 2572 3713 1747 
Q 3713 922 3314 415 
Q 2916 -91 2278 -91 
Q 1894 -91 1617 61 
Q 1341 213 1159 525 
z
M 3116 1747 
Q 3116 2381 2855 2742 
Q 2594 3103 2138 3103 
Q 1681 3103 1420 2742 
Q 1159 2381 1159 1747 
Q 1159 1113 1420 752 
Q 1681 391 2138 391 
Q 2594 391 2855 752 
Q 3116 1113 3116 1747 
z
" transform="scale(0.015625)"/>
     <path id="DejaVuSans-5c" d="M 2059 -325 
Q 1816 -950 1584 -1140 
Q 1353 -1331 966 -1331 
L 506 -1331 
L 506 -850 
L 844 -850 
Q 1081 -850 1212 -737 
Q 1344 -625 1503 -206 
L 1606 56 
L 191 3500 
L 800 3500 
L 1894 763 
L 2988 3500 
L 3597 3500 
L 2059 -325 
z
" transform="scale(0.015625)"/>
    </defs>
    <use xlink:href="#DejaVuSans-36"/>
    <use xlink:href="#DejaVuSans-52" transform="translate(63.484375 0)"/>
    <use xlink:href="#DejaVuSans-58" transform="translate(124.671875 0)"/>
    <use xlink:href="#DejaVuSans-55" transform="translate(188.046875 0)"/>
    <use xlink:href="#DejaVuSans-46" transform="translate(226.953125 0)"/>
    <use xlink:href="#DejaVuSans-48" transform="translate(281.9375 0)"/>
    <use xlink:href="#DejaVuSans-1d" transform="translate(343.46875 0)"/>
    <use xlink:href="#DejaVuSans-3" transform="translate(377.15625 0)"/>
    <use xlink:href="#DejaVuSans-56" transform="translate(408.9375 0)"/>
    <use xlink:href="#DejaVuSans-57" transform="translate(461.03125 0)"/>
    <use xlink:href="#DejaVuSans-48" transform="translate(500.234375 0)"/>
    <use xlink:href="#DejaVuSans-48" transform="translate(561.765625 0)"/>
    <use xlink:href="#DejaVuSans-55" transform="translate(623.296875 0)"/>
    <use xlink:href="#DejaVuSans-42" transform="translate(664.40625 0)"/>
    <use xlink:href="#DejaVuSans-46" transform="translate(714.40625 0)"/>
    <use xlink:href="#DejaVuSans-44" transform="translate(769.390625 0)"/>
    <use xlink:href="#DejaVuSans-4f" transform="translate(830.671875 0)"/>
    <use xlink:href="#DejaVuSans-4c" transform="translate(858.453125 0)"/>
    <use xlink:href="#DejaVuSans-45" transform="translate(886.234375 0)"/>
    <use xlink:href="#DejaVuSans-11" transform="translate(949.71875 0)"/>
    <use xlink:href="#DejaVuSans-4d" transform="translate(981.5 0)"/>
    <use xlink:href="#DejaVuSans-56" transform="translate(1009.28125 0)"/>
    <use xlink:href="#DejaVuSans-52" transform="translate(1061.375 0)"/>
    <use xlink:href="#DejaVuSans-51" transform="translate(1122.5625 0)"/>
    <use xlink:href="#DejaVuSans-3" transform="translate(1185.9375 0)"/>
    <use xlink:href="#DejaVuSans-b" transform="translate(1217.71875 0)"/>
    <use xlink:href="#DejaVuSans-2f" transform="translate(1256.734375 0)"/>
    <use xlink:href="#DejaVuSans-3" transform="translate(1312.453125 0)"/>
    <use xlink:href="#DejaVuSans-20" transform="translate(1344.234375 0)"/>
    <use xlink:href="#DejaVuSans-3" transform="translate(1428.03125 0)"/>
    <use xlink:href="#DejaVuSans-13" transform="translate(1459.8125 0)"/>
    <use xlink:href="#DejaVuSans-11" transform="translate(1523.4375 0)"/>
    <use xlink:href="#DejaVuSans-14" transform="translate(1555.21875 0)"/>
    <use xlink:href="#DejaVuSans-13" transform="translate(1618.84375 0)"/>
    <use xlink:href="#DejaVuSans-13" transform="translate(1682.46875 0)"/>
    <use xlink:href="#DejaVuSans-3" transform="translate(1746.09375 0)"/>
    <use xlink:href="#DejaVuSans-50" transform="translate(1777.875 0)"/>
    <use xlink:href="#DejaVuSans-c" transform="translate(1875.28125 0)"/>
    <use xlink:href="#DejaVuSans-3" transform="translate(1914.296875 0)"/>
    <use xlink:href="#DejaVuSans-3" transform="translate(1946.078125 0)"/>
    <use xlink:href="#DejaVuSans-5f" transform="translate(1977.859375 0)"/>
    <use xlink:href="#DejaVuSans-3" transform="translate(2011.546875 0)"/>
    <use xlink:href="#DejaVuSans-3" transform="translate(2043.328125 0)"/>
    <use xlink:href="#DejaVuSans-53" transform="translate(2075.109375 0)"/>
    <use xlink:href="#DejaVuSans-4f" transform="translate(2138.59375 0)"/>
    <use xlink:href="#DejaVuSans-52" transform="translate(2166.375 0)"/>
    <use xlink:href="#DejaVuSans-57" transform="translate(2227.5625 0)"/>
    <use xlink:href="#DejaVuSans-42" transform="translate(2266.765625 0)"/>
    <use xlink:href="#DejaVuSans-56" transform="translate(2316.765625 0)"/>
    <use xlink:href="#DejaVuSans-57" transform="translate(2368.859375 0)"/>
    <use xlink:href="#DejaVuSans-48" transform="translate(2408.0625 0)"/>
    <use xlink:href="#DejaVuSans-48" transform="translate(2469.59375 0)"/>
    <use xlink:href="#DejaVuSans-55" transform="translate(2531.125 0)"/>
    <use xlink:href="#DejaVuSans-42" transform="translate(2572.234375 0)"/>
    <use xlink:href="#DejaVuSans-4f" transform="translate(2622.234375 0)"/>
    <use xlink:href="#DejaVuSans-58" transform="translate(2650.015625 0)"/>
    <use xlink:href="#DejaVuSans-57" transform="translate(2713.390625 0)"/>
    <use xlink:href="#DejaVuSans-11" transform="translate(2752.59375 0)"/>
    <use xlink:href="#DejaVuSans-53" transform="translate(2784.375 0)"/>
    <use xlink:href="#DejaVuSans-5c" transform="translate(2847.859375 0)"/>
   </g>
  </g>
 </g>
 <defs>
  <clipPath id="p55e4569e19">
   <rect x="47.362109" y="27.358437" width="128.391153" height="138.601005"/>
  </clipPath>
  <clipPath id="p6df4e5b221">
   <rect x="277.66243" y="27.358437" width="128.391153" height="138.601005"/>
  </clipPath>
  <clipPath id="p7150bd90f6">
   <rect x="507.962751" y="27.358437" width="128.391153" height="138.601005"/>
  </clipPath>
 </defs>
</svg>
